{"glyphs":{"0":{"ha":867,"x_min":50,"x_max":817,"o":"m 433 -4 q 234 52 321 -4 q 99 214 147 108 q 50 461 50 319 q 152 806 50 688 q 433 924 254 925 q 633 868 546 924 q 768 707 719 813 q 817 461 817 601 q 768 211 817 317 q 633 50 719 106 q 433 -4 546 -6 m 432 125 q 613 217 550 125 q 678 464 676 308 q 613 705 676 615 q 432 794 550 794 q 253 704 315 794 q 189 461 190 614 q 253 216 190 307 q 432 125 315 125 z "},"1":{"ha":458,"x_min":74,"x_max":314,"o":"m 314 914 l 314 0 l 178 0 l 178 785 l 74 785 l 74 914 l 314 914 z "},"2":{"ha":757,"x_min":57,"x_max":697,"o":"m 697 131 l 697 0 l 75 0 l 121 46 q 342 275 263 188 q 474 452 421 363 q 528 622 528 542 q 478 751 528 707 q 356 796 428 796 q 260 772 299 796 q 205 713 222 749 q 188 640 188 676 q 242 494 188 551 l 160 419 q 85 513 114 447 q 57 638 57 579 q 95 780 57 714 q 206 885 133 846 q 378 925 278 925 q 528 885 463 925 q 631 779 594 846 q 667 633 667 713 q 629 475 667 554 q 537 326 592 396 q 390 154 482 257 l 369 131 l 697 131 z "},"3":{"ha":728,"x_min":74,"x_max":639,"o":"m 397 578 q 571 506 503 572 q 639 304 639 439 q 596 138 639 210 q 478 28 553 67 q 315 -11 404 -11 q 183 17 250 -11 q 74 89 117 44 l 143 200 q 217 143 169 167 q 313 119 264 119 q 446 172 392 119 q 500 313 500 225 q 453 437 500 390 q 326 483 407 483 q 208 463 265 483 l 204 468 l 408 785 l 128 785 l 128 914 l 607 914 l 397 578 z "},"4":{"ha":744,"x_min":18,"x_max":696,"o":"m 696 325 l 696 221 l 576 221 l 576 0 l 442 0 l 442 221 l 18 221 l 18 222 l 575 925 l 576 925 l 576 325 l 696 325 m 442 325 l 442 610 l 221 325 l 442 325 z "},"5":{"ha":726,"x_min":90,"x_max":643,"o":"m 357 597 q 512 557 447 597 q 610 449 576 517 q 643 299 643 382 q 603 142 643 213 q 495 30 564 71 q 340 -11 426 -11 q 201 15 269 -11 q 90 83 133 42 l 163 189 q 236 138 190 157 q 329 118 282 118 q 455 167 406 118 q 504 294 504 217 q 458 431 504 379 q 325 483 411 483 q 237 470 279 483 q 149 431 194 457 l 147 431 l 147 914 l 585 914 l 585 785 l 264 785 l 264 586 q 357 597 308 597 z "},"6":{"ha":757,"x_min":53,"x_max":700,"o":"m 425 586 q 559 548 496 586 q 661 443 622 510 q 700 294 700 376 q 656 135 700 204 q 538 27 611 65 q 381 -11 464 -11 q 213 33 288 -11 q 96 160 139 78 q 53 351 53 242 q 170 660 53 517 q 474 922 288 803 l 564 824 q 357 681 440 763 q 235 514 274 600 q 425 586 307 586 m 375 110 q 508 161 454 110 q 561 294 561 213 q 508 423 561 374 q 375 472 454 472 q 283 451 325 472 q 215 392 240 429 q 190 313 190 356 l 190 288 q 215 199 190 240 q 283 134 240 158 q 375 110 325 110 z "},"7":{"ha":681,"x_min":43,"x_max":642,"o":"m 642 914 l 275 0 l 124 0 l 444 785 l 43 785 l 43 914 l 642 914 z "},"8":{"ha":726,"x_min":39,"x_max":688,"o":"m 39 289 q 92 452 39 385 q 218 550 144 519 q 147 619 172 579 q 122 715 122 658 q 153 823 122 775 q 240 898 185 871 q 363 925 294 925 q 485 898 429 925 q 572 824 540 871 q 604 721 604 778 q 579 622 604 661 q 507 550 554 582 q 635 451 582 518 q 688 289 688 383 q 644 141 688 210 q 526 31 601 72 q 361 -11 451 -11 q 197 30 271 -11 q 81 140 124 71 q 39 289 39 210 m 253 700 q 287 626 253 657 q 365 596 321 596 q 442 626 410 596 q 475 700 475 657 q 443 781 475 749 q 365 813 411 813 q 286 781 319 813 q 253 700 253 749 m 176 294 q 201 199 176 243 q 269 129 226 156 q 361 103 311 103 q 456 129 413 103 q 526 199 500 156 q 553 294 553 243 q 528 389 553 346 q 459 458 503 432 q 364 483 415 483 q 271 458 314 483 q 202 390 228 433 q 176 294 176 346 z "},"9":{"ha":747,"x_min":53,"x_max":700,"o":"m 372 910 q 539 869 464 910 q 657 755 614 828 q 700 589 700 682 q 635 344 700 454 q 476 153 571 235 q 244 -18 382 72 l 154 82 q 364 213 275 143 q 499 353 453 283 q 328 300 433 300 q 194 338 257 300 q 92 442 131 376 q 53 590 53 508 q 97 758 53 685 q 215 870 142 831 q 372 910 288 910 m 192 599 q 245 465 192 517 q 378 414 299 414 q 510 462 458 414 q 563 583 563 510 l 563 610 q 507 735 560 683 q 378 788 454 788 q 245 735 299 788 q 192 599 192 682 z "},"\u0000":{"ha":0,"x_min":0,"x_max":0,"o":""},"\r":{"ha":439,"x_min":0,"x_max":0,"o":""}," ":{"ha":439,"x_min":0,"x_max":0,"o":""},"A":{"ha":974,"x_min":44,"x_max":931,"o":"m 671 264 l 285 264 l 178 0 l 44 0 l 483 1046 l 492 1046 l 931 0 l 775 0 l 671 264 m 625 381 l 482 747 l 333 381 l 625 381 z "},"Á":{"ha":974,"x_min":44,"x_max":931,"o":"m 671 264 l 285 264 l 178 0 l 44 0 l 483 1046 l 492 1046 l 931 0 l 775 0 l 671 264 m 625 381 l 482 747 l 333 381 l 625 381 m 526 1085 l 443 1085 l 558 1271 l 703 1271 l 526 1085 z "},"Ă":{"ha":974,"x_min":44,"x_max":931,"o":"m 671 264 l 285 264 l 178 0 l 44 0 l 483 1046 l 492 1046 l 931 0 l 775 0 l 671 264 m 625 381 l 482 747 l 333 381 l 625 381 m 490 1092 q 349 1155 403 1092 q 279 1336 294 1218 l 368 1336 q 408 1223 376 1265 q 490 1181 439 1181 q 572 1223 542 1181 q 610 1336 601 1265 l 699 1336 q 631 1154 685 1217 q 490 1092 576 1092 z "},"Ắ":{"ha":974,"x_min":44,"x_max":931,"o":"m 671 264 l 285 264 l 178 0 l 44 0 l 483 1046 l 492 1046 l 931 0 l 775 0 l 671 264 m 625 381 l 482 747 l 333 381 l 625 381 m 490 1092 q 349 1155 403 1092 q 279 1336 294 1218 l 368 1336 q 408 1223 376 1265 q 490 1181 439 1181 q 572 1223 542 1181 q 610 1336 601 1265 l 699 1336 q 631 1154 685 1217 q 490 1092 576 1092 m 525 1388 l 442 1388 l 557 1574 l 701 1574 l 525 1388 z "},"Ặ":{"ha":974,"x_min":44,"x_max":931,"o":"m 671 264 l 285 264 l 178 0 l 44 0 l 483 1046 l 492 1046 l 931 0 l 775 0 l 671 264 m 625 381 l 482 747 l 333 381 l 625 381 m 408 -142 q 432 -90 408 -111 q 486 -69 456 -69 q 540 -90 517 -69 q 563 -142 563 -111 q 540 -193 563 -172 q 486 -214 517 -214 q 432 -193 456 -214 q 408 -142 408 -172 m 490 1092 q 349 1155 403 1092 q 279 1336 294 1218 l 368 1336 q 408 1223 376 1265 q 490 1181 439 1181 q 572 1223 542 1181 q 610 1336 601 1265 l 699 1336 q 631 1154 685 1217 q 490 1092 576 1092 z "},"Ằ":{"ha":974,"x_min":44,"x_max":931,"o":"m 671 264 l 285 264 l 178 0 l 44 0 l 483 1046 l 492 1046 l 931 0 l 775 0 l 671 264 m 625 381 l 482 747 l 333 381 l 625 381 m 490 1092 q 349 1155 403 1092 q 279 1336 294 1218 l 368 1336 q 408 1223 376 1265 q 490 1181 439 1181 q 572 1223 542 1181 q 610 1336 601 1265 l 699 1336 q 631 1154 685 1217 q 490 1092 576 1092 m 421 1583 l 521 1397 l 439 1397 l 276 1583 l 421 1583 z "},"Ẳ":{"ha":974,"x_min":44,"x_max":931,"o":"m 671 264 l 285 264 l 178 0 l 44 0 l 483 1046 l 492 1046 l 931 0 l 775 0 l 671 264 m 625 381 l 482 747 l 333 381 l 625 381 m 490 1092 q 349 1155 403 1092 q 279 1336 294 1218 l 368 1336 q 408 1223 376 1265 q 490 1181 439 1181 q 572 1223 542 1181 q 610 1336 601 1265 l 699 1336 q 631 1154 685 1217 q 490 1092 576 1092 m 478 1436 q 526 1478 511 1461 q 540 1519 540 1496 q 528 1555 540 1542 q 494 1568 517 1568 q 458 1558 474 1568 q 431 1525 443 1547 l 381 1557 q 438 1622 404 1600 q 511 1643 471 1643 q 589 1613 561 1643 q 617 1535 617 1582 q 589 1458 617 1490 q 511 1394 561 1426 l 478 1436 z "},"Ẵ":{"ha":974,"x_min":44,"x_max":931,"o":"m 671 264 l 285 264 l 178 0 l 44 0 l 483 1046 l 492 1046 l 931 0 l 775 0 l 671 264 m 625 381 l 482 747 l 333 381 l 625 381 m 490 1092 q 349 1155 403 1092 q 279 1336 294 1218 l 368 1336 q 408 1223 376 1265 q 490 1181 439 1181 q 572 1223 542 1181 q 610 1336 601 1265 l 699 1336 q 631 1154 685 1217 q 490 1092 576 1092 m 596 1438 q 531 1453 556 1438 q 468 1500 506 1468 q 431 1531 446 1521 q 397 1540 415 1540 q 356 1513 371 1540 q 342 1438 340 1485 l 269 1438 q 301 1575 264 1519 q 404 1631 339 1631 q 462 1615 436 1631 q 517 1569 488 1599 q 559 1533 543 1544 q 593 1522 575 1522 q 643 1631 643 1522 l 715 1631 q 717 1600 717 1619 q 682 1482 717 1526 q 596 1438 647 1438 z "},"Â":{"ha":974,"x_min":44,"x_max":931,"o":"m 671 264 l 285 264 l 178 0 l 44 0 l 483 1046 l 492 1046 l 931 0 l 775 0 l 671 264 m 625 381 l 482 747 l 333 381 l 625 381 m 593 1108 l 479 1228 l 371 1108 l 250 1108 l 479 1346 l 481 1346 l 714 1108 l 593 1108 z "},"Ấ":{"ha":974,"x_min":44,"x_max":931,"o":"m 671 264 l 285 264 l 178 0 l 44 0 l 483 1046 l 492 1046 l 931 0 l 775 0 l 671 264 m 625 381 l 482 747 l 333 381 l 625 381 m 601 1132 l 488 1251 l 379 1132 l 258 1132 l 488 1369 l 489 1369 l 722 1132 l 601 1132 m 754 1268 l 671 1268 l 786 1454 l 931 1454 l 754 1268 z "},"Ậ":{"ha":974,"x_min":44,"x_max":931,"o":"m 671 264 l 285 264 l 178 0 l 44 0 l 483 1046 l 492 1046 l 931 0 l 775 0 l 671 264 m 625 381 l 482 747 l 333 381 l 625 381 m 408 -142 q 432 -90 408 -111 q 486 -69 456 -69 q 540 -90 517 -69 q 563 -142 563 -111 q 540 -193 563 -172 q 486 -214 517 -214 q 432 -193 456 -214 q 408 -142 408 -172 m 593 1108 l 479 1228 l 371 1108 l 250 1108 l 479 1346 l 481 1346 l 714 1108 l 593 1108 z "},"Ầ":{"ha":974,"x_min":44,"x_max":931,"o":"m 671 264 l 285 264 l 178 0 l 44 0 l 483 1046 l 492 1046 l 931 0 l 775 0 l 671 264 m 625 381 l 482 747 l 333 381 l 625 381 m 593 1128 l 479 1247 l 371 1128 l 250 1128 l 479 1365 l 481 1365 l 714 1128 l 593 1128 m 208 1463 l 308 1276 l 226 1276 l 64 1463 l 208 1463 z "},"Ẩ":{"ha":974,"x_min":44,"x_max":931,"o":"m 671 264 l 285 264 l 178 0 l 44 0 l 483 1046 l 492 1046 l 931 0 l 775 0 l 671 264 m 625 381 l 482 747 l 333 381 l 625 381 m 596 1132 l 482 1251 l 374 1132 l 253 1132 l 482 1369 l 483 1369 l 717 1132 l 596 1132 m 700 1278 q 748 1320 733 1303 q 763 1361 763 1338 q 751 1397 763 1383 q 717 1410 739 1410 q 681 1399 696 1410 q 653 1367 665 1389 l 603 1399 q 660 1463 626 1442 q 733 1485 693 1485 q 811 1454 783 1485 q 839 1376 839 1424 q 811 1300 839 1332 q 733 1236 783 1268 l 700 1278 z "},"Ẫ":{"ha":974,"x_min":44,"x_max":931,"o":"m 671 264 l 285 264 l 178 0 l 44 0 l 483 1046 l 492 1046 l 931 0 l 775 0 l 671 264 m 625 381 l 482 747 l 333 381 l 625 381 m 592 1122 l 478 1242 l 369 1122 l 249 1122 l 478 1360 l 479 1360 l 713 1122 l 592 1122 m 590 1424 q 525 1439 550 1424 q 463 1486 500 1454 q 425 1517 440 1507 q 392 1526 410 1526 q 350 1499 365 1526 q 336 1424 335 1471 l 264 1424 q 296 1561 258 1506 q 399 1617 333 1617 q 456 1601 431 1617 q 511 1556 482 1585 q 553 1519 538 1531 q 588 1508 569 1508 q 638 1617 638 1508 l 710 1617 q 711 1586 711 1606 q 676 1468 711 1513 q 590 1424 642 1424 z "},"Ȁ":{"ha":974,"x_min":44,"x_max":931,"o":"m 671 264 l 285 264 l 178 0 l 44 0 l 483 1046 l 492 1046 l 931 0 l 775 0 l 671 264 m 625 381 l 482 747 l 333 381 l 625 381 m 354 1293 l 454 1107 l 372 1107 l 210 1293 l 354 1293 m 551 1293 l 651 1107 l 569 1107 l 407 1293 l 551 1293 z "},"Ä":{"ha":974,"x_min":44,"x_max":931,"o":"m 671 264 l 285 264 l 178 0 l 44 0 l 483 1046 l 492 1046 l 931 0 l 775 0 l 671 264 m 625 381 l 482 747 l 333 381 l 625 381 m 279 1168 q 301 1220 279 1199 q 353 1242 324 1242 q 403 1220 381 1242 q 425 1168 425 1199 q 403 1116 425 1138 q 353 1094 381 1094 q 301 1115 324 1094 q 279 1168 279 1136 m 539 1168 q 561 1220 539 1199 q 613 1242 583 1242 q 663 1220 640 1242 q 685 1168 685 1199 q 663 1116 685 1138 q 613 1094 640 1094 q 561 1115 583 1094 q 539 1168 539 1136 z "},"Ạ":{"ha":974,"x_min":44,"x_max":931,"o":"m 671 264 l 285 264 l 178 0 l 44 0 l 483 1046 l 492 1046 l 931 0 l 775 0 l 671 264 m 625 381 l 482 747 l 333 381 l 625 381 m 408 -142 q 432 -90 408 -111 q 486 -69 456 -69 q 540 -90 517 -69 q 563 -142 563 -111 q 540 -193 563 -172 q 486 -214 517 -214 q 432 -193 456 -214 q 408 -142 408 -172 z "},"À":{"ha":974,"x_min":44,"x_max":931,"o":"m 671 264 l 285 264 l 178 0 l 44 0 l 483 1046 l 492 1046 l 931 0 l 775 0 l 671 264 m 625 381 l 482 747 l 333 381 l 625 381 m 422 1281 l 522 1094 l 440 1094 l 278 1281 l 422 1281 z "},"Ả":{"ha":974,"x_min":44,"x_max":931,"o":"m 671 264 l 285 264 l 178 0 l 44 0 l 483 1046 l 492 1046 l 931 0 l 775 0 l 671 264 m 625 381 l 482 747 l 333 381 l 625 381 m 479 1133 q 527 1176 513 1158 q 542 1217 542 1193 q 530 1252 542 1239 q 496 1265 518 1265 q 460 1255 475 1265 q 432 1222 444 1244 l 382 1254 q 439 1319 406 1297 q 513 1340 472 1340 q 590 1310 563 1340 q 618 1232 618 1279 q 590 1156 618 1188 q 513 1092 563 1124 l 479 1133 z "},"Ȃ":{"ha":974,"x_min":44,"x_max":931,"o":"m 671 264 l 285 264 l 178 0 l 44 0 l 483 1046 l 492 1046 l 931 0 l 775 0 l 671 264 m 625 381 l 482 747 l 333 381 l 625 381 m 482 1303 q 624 1240 569 1303 q 693 1058 678 1176 l 604 1058 q 565 1172 596 1129 q 482 1214 533 1214 q 401 1172 431 1214 q 363 1058 371 1129 l 274 1058 q 342 1240 288 1178 q 482 1303 396 1303 z "},"Ā":{"ha":974,"x_min":44,"x_max":931,"o":"m 671 264 l 285 264 l 178 0 l 44 0 l 483 1046 l 492 1046 l 931 0 l 775 0 l 671 264 m 625 381 l 482 747 l 333 381 l 625 381 m 656 1190 l 656 1097 l 314 1097 l 314 1190 l 656 1190 z "},"Ą":{"ha":974,"x_min":44,"x_max":985,"o":"m 985 -206 q 915 -272 960 -246 q 828 -299 871 -299 q 712 -257 758 -299 q 665 -147 665 -215 q 694 -62 665 -104 q 772 7 724 -21 l 671 264 l 285 264 l 178 0 l 44 0 l 483 1046 l 492 1046 l 931 0 l 932 0 q 813 -68 853 -36 q 774 -137 774 -100 q 792 -189 774 -172 q 840 -206 811 -206 q 935 -140 893 -206 l 985 -206 m 625 381 l 482 747 l 333 381 l 625 381 z "},"Å":{"ha":974,"x_min":44,"x_max":931,"o":"m 671 264 l 285 264 l 178 0 l 44 0 l 483 1046 l 492 1046 l 931 0 l 775 0 l 671 264 m 625 381 l 482 747 l 333 381 l 625 381 m 361 1218 q 398 1308 361 1274 q 492 1342 435 1342 q 584 1307 547 1342 q 621 1218 621 1272 q 584 1128 621 1164 q 492 1093 547 1093 q 398 1128 435 1093 q 361 1218 361 1163 m 432 1215 q 449 1172 432 1189 q 492 1154 465 1154 q 533 1172 517 1154 q 550 1215 550 1189 q 533 1261 550 1244 q 492 1278 517 1278 q 449 1261 465 1278 q 432 1215 432 1244 z "},"Ǻ":{"ha":974,"x_min":44,"x_max":931,"o":"m 671 264 l 285 264 l 178 0 l 44 0 l 483 1046 l 492 1046 l 931 0 l 775 0 l 671 264 m 625 381 l 482 747 l 333 381 l 625 381 m 361 1218 q 398 1308 361 1274 q 492 1342 435 1342 q 584 1307 547 1342 q 621 1218 621 1272 q 584 1128 621 1164 q 492 1093 547 1093 q 398 1128 435 1093 q 361 1218 361 1163 m 432 1215 q 449 1172 432 1189 q 492 1154 465 1154 q 533 1172 517 1154 q 550 1215 550 1189 q 533 1261 550 1244 q 492 1278 517 1278 q 449 1261 465 1278 q 432 1215 432 1244 m 526 1393 l 443 1393 l 558 1579 l 703 1579 l 526 1393 z "},"Ã":{"ha":974,"x_min":44,"x_max":931,"o":"m 671 264 l 285 264 l 178 0 l 44 0 l 483 1046 l 492 1046 l 931 0 l 775 0 l 671 264 m 625 381 l 482 747 l 333 381 l 625 381 m 597 1133 q 532 1149 557 1133 q 469 1196 507 1164 q 432 1226 447 1217 q 399 1236 417 1236 q 357 1208 372 1236 q 343 1133 342 1181 l 271 1133 q 303 1271 265 1215 q 406 1326 340 1326 q 463 1310 438 1326 q 518 1265 489 1294 q 560 1229 544 1240 q 594 1218 576 1218 q 644 1326 644 1218 l 717 1326 q 718 1296 718 1315 q 683 1178 718 1222 q 597 1133 649 1133 z "},"Æ":{"ha":1321,"x_min":18,"x_max":1231,"o":"m 1231 131 l 1231 0 l 663 0 l 663 249 l 325 249 l 172 0 l 18 0 l 663 1004 l 1211 1004 l 1211 874 l 797 874 l 797 568 l 1156 568 l 1156 438 l 797 438 l 797 131 l 1231 131 m 663 356 l 663 797 l 392 356 l 663 356 z "},"Ǽ":{"ha":1321,"x_min":18,"x_max":1231,"o":"m 1231 131 l 1231 0 l 663 0 l 663 249 l 325 249 l 172 0 l 18 0 l 663 1004 l 1211 1004 l 1211 874 l 797 874 l 797 568 l 1156 568 l 1156 438 l 797 438 l 797 131 l 1231 131 m 663 356 l 663 797 l 392 356 l 663 356 m 947 1068 l 864 1068 l 979 1254 l 1124 1254 l 947 1068 z "},"B":{"ha":860,"x_min":144,"x_max":778,"o":"m 592 521 q 728 426 678 488 q 778 282 778 364 q 731 123 778 186 q 609 30 685 60 q 443 0 533 0 l 144 0 l 144 1004 l 404 1004 q 643 941 558 1004 q 728 751 728 878 q 692 613 728 672 q 592 521 657 554 m 279 565 l 432 565 q 549 610 510 565 q 589 724 589 654 q 542 838 589 800 q 410 875 494 875 l 279 875 l 279 565 m 438 125 q 582 165 525 125 q 639 281 639 204 q 577 397 639 360 q 428 435 515 435 l 279 435 l 279 125 l 438 125 z "},"C":{"ha":964,"x_min":82,"x_max":882,"o":"m 882 75 q 759 16 833 43 q 597 -11 685 -11 q 326 57 443 -11 q 145 240 208 125 q 82 494 82 356 q 146 762 82 643 q 323 948 210 881 q 579 1015 436 1015 q 738 993 664 1015 q 869 935 811 971 l 815 808 q 583 886 700 886 q 403 835 486 886 q 272 695 321 783 q 222 501 222 607 q 267 306 222 393 q 397 169 313 218 q 590 119 481 119 q 825 196 725 119 l 882 75 z "},"Ć":{"ha":964,"x_min":82,"x_max":882,"o":"m 882 75 q 759 16 833 43 q 597 -11 685 -11 q 326 57 443 -11 q 145 240 208 125 q 82 494 82 356 q 146 762 82 643 q 323 948 210 881 q 579 1015 436 1015 q 738 993 664 1015 q 869 935 811 971 l 815 808 q 583 886 700 886 q 403 835 486 886 q 272 695 321 783 q 222 501 222 607 q 267 306 222 393 q 397 169 313 218 q 590 119 481 119 q 825 196 725 119 l 882 75 m 593 1072 l 510 1072 l 625 1258 l 769 1258 l 593 1072 z "},"Č":{"ha":964,"x_min":82,"x_max":882,"o":"m 882 75 q 759 16 833 43 q 597 -11 685 -11 q 326 57 443 -11 q 145 240 208 125 q 82 494 82 356 q 146 762 82 643 q 323 948 210 881 q 579 1015 436 1015 q 738 993 664 1015 q 869 935 811 971 l 815 808 q 583 886 700 886 q 403 835 486 886 q 272 695 321 783 q 222 501 222 607 q 267 306 222 393 q 397 169 313 218 q 590 119 481 119 q 825 196 725 119 l 882 75 m 783 1300 l 554 1063 l 553 1063 l 319 1300 l 440 1300 l 556 1181 l 664 1300 l 783 1300 z "},"Ç":{"ha":964,"x_min":82,"x_max":882,"o":"m 579 -64 q 701 -94 656 -62 q 747 -185 747 -126 q 692 -286 747 -251 q 556 -321 638 -321 q 408 -268 464 -321 l 450 -214 q 490 -240 465 -231 q 543 -250 514 -250 q 609 -233 581 -250 q 638 -187 638 -217 q 616 -143 638 -161 q 547 -125 594 -125 q 457 -142 504 -125 l 433 -79 l 513 -6 q 284 83 382 13 q 134 262 186 154 q 82 494 82 369 q 146 762 82 643 q 323 948 210 881 q 579 1015 436 1015 q 738 993 664 1015 q 869 935 811 971 l 815 808 q 583 886 700 886 q 403 835 486 886 q 272 695 321 783 q 222 501 222 607 q 267 306 222 393 q 397 169 313 218 q 590 119 481 119 q 825 196 725 119 l 882 75 q 765 18 835 44 q 614 -11 696 -8 l 568 -65 q 579 -64 572 -64 z "},"Ĉ":{"ha":964,"x_min":82,"x_max":882,"o":"m 882 75 q 759 16 833 43 q 597 -11 685 -11 q 326 57 443 -11 q 145 240 208 125 q 82 494 82 356 q 146 762 82 643 q 323 948 210 881 q 579 1015 436 1015 q 738 993 664 1015 q 869 935 811 971 l 815 808 q 583 886 700 886 q 403 835 486 886 q 272 695 321 783 q 222 501 222 607 q 267 306 222 393 q 397 169 313 218 q 590 119 481 119 q 825 196 725 119 l 882 75 m 660 1096 l 546 1215 l 438 1096 l 317 1096 l 546 1333 l 547 1333 l 781 1096 l 660 1096 z "},"Ċ":{"ha":964,"x_min":82,"x_max":882,"o":"m 882 75 q 759 16 833 43 q 597 -11 685 -11 q 326 57 443 -11 q 145 240 208 125 q 82 494 82 356 q 146 762 82 643 q 323 948 210 881 q 579 1015 436 1015 q 738 993 664 1015 q 869 935 811 971 l 815 808 q 583 886 700 886 q 403 835 486 886 q 272 695 321 783 q 222 501 222 607 q 267 306 222 393 q 397 169 313 218 q 590 119 481 119 q 825 196 725 119 l 882 75 m 478 1153 q 501 1204 478 1183 q 556 1225 525 1225 q 609 1204 586 1225 q 632 1153 632 1183 q 609 1101 632 1122 q 556 1081 586 1081 q 501 1101 525 1081 q 478 1153 478 1122 z "},"D":{"ha":1047,"x_min":144,"x_max":965,"o":"m 144 1004 l 419 1004 q 730 930 607 1004 q 909 738 853 856 q 965 490 965 621 q 897 233 965 344 q 715 60 829 121 q 468 0 601 0 l 144 0 l 144 1004 m 442 131 q 640 174 553 131 q 777 301 728 218 q 826 500 826 385 q 775 703 826 618 q 638 831 724 788 q 454 875 553 875 l 279 875 l 279 131 l 442 131 z "},"Ǆ":{"ha":1971,"x_min":144,"x_max":1894,"o":"m 144 1004 l 419 1004 q 730 930 607 1004 q 909 738 853 856 q 965 490 965 621 q 897 233 965 344 q 715 60 829 121 q 468 0 601 0 l 144 0 l 144 1004 m 442 131 q 640 174 553 131 q 777 301 728 218 q 826 500 826 385 q 775 703 826 618 q 638 831 724 788 q 454 875 553 875 l 279 875 l 279 131 l 442 131 m 1894 131 l 1894 0 l 1051 0 l 1288 351 q 1640 875 1571 776 l 1222 875 q 1143 898 1178 875 q 1108 960 1108 921 l 1108 1054 l 1233 1054 l 1233 1036 q 1242 1009 1233 1014 q 1278 1004 1250 1004 l 1879 1004 l 1283 131 l 1894 131 m 1704 1278 l 1475 1040 l 1474 1040 l 1240 1278 l 1361 1278 l 1476 1158 l 1585 1278 l 1704 1278 z "},"Ð":{"ha":1047,"x_min":24,"x_max":965,"o":"m 419 1004 q 730 930 607 1004 q 909 738 853 856 q 965 490 965 621 q 897 233 965 344 q 715 60 829 121 q 468 0 601 0 l 144 0 l 144 438 l 24 438 l 24 560 l 144 560 l 144 1004 l 419 1004 m 442 131 q 640 174 553 131 q 777 301 728 218 q 826 500 826 385 q 775 703 826 618 q 638 831 724 788 q 454 875 553 875 l 279 875 l 279 560 l 410 560 l 410 438 l 279 438 l 279 131 l 442 131 z "},"Ď":{"ha":1047,"x_min":144,"x_max":965,"o":"m 144 1004 l 419 1004 q 730 930 607 1004 q 909 738 853 856 q 965 490 965 621 q 897 233 965 344 q 715 60 829 121 q 468 0 601 0 l 144 0 l 144 1004 m 442 131 q 640 174 553 131 q 777 301 728 218 q 826 500 826 385 q 775 703 826 618 q 638 831 724 788 q 454 875 553 875 l 279 875 l 279 131 l 442 131 m 657 1278 l 428 1040 l 426 1040 l 193 1278 l 314 1278 l 429 1158 l 538 1278 l 657 1278 z "},"Đ":{"ha":1057,"x_min":33,"x_max":975,"o":"m 429 1004 q 740 930 617 1004 q 919 738 863 856 q 975 490 975 621 q 907 233 975 344 q 725 60 839 121 q 478 0 611 0 l 154 0 l 154 438 l 33 438 l 33 560 l 154 560 l 154 1004 l 429 1004 m 451 131 q 650 174 563 131 q 787 301 738 218 q 836 500 836 385 q 785 703 836 618 q 648 831 733 788 q 464 875 563 875 l 289 875 l 289 560 l 419 560 l 419 438 l 289 438 l 289 131 l 451 131 z "},"ǅ":{"ha":1690,"x_min":144,"x_max":1624,"o":"m 144 1004 l 419 1004 q 730 930 607 1004 q 909 738 853 856 q 965 490 965 621 q 897 233 965 344 q 715 60 829 121 q 468 0 601 0 l 144 0 l 144 1004 m 442 131 q 640 174 553 131 q 777 301 728 218 q 826 500 826 385 q 775 703 826 618 q 638 831 724 788 q 454 875 553 875 l 279 875 l 279 131 l 442 131 m 1297 107 l 1618 107 l 1618 0 l 1086 0 l 1413 469 l 1214 469 q 1139 497 1168 469 q 1110 575 1110 524 l 1110 631 l 1208 631 l 1208 613 q 1219 583 1208 590 q 1256 575 1229 575 l 1624 575 l 1297 107 m 1614 885 l 1385 647 l 1383 647 l 1150 885 l 1271 885 l 1386 765 l 1494 885 l 1614 885 z "},"E":{"ha":907,"x_min":144,"x_max":817,"o":"m 797 1004 l 797 875 l 279 875 l 279 569 l 742 569 l 742 440 l 279 440 l 279 131 l 817 131 l 817 0 l 144 0 l 144 1004 l 797 1004 z "},"É":{"ha":907,"x_min":144,"x_max":817,"o":"m 797 1004 l 797 875 l 279 875 l 279 569 l 742 569 l 742 440 l 279 440 l 279 131 l 817 131 l 817 0 l 144 0 l 144 1004 l 797 1004 m 504 1068 l 421 1068 l 536 1254 l 681 1254 l 504 1068 z "},"Ĕ":{"ha":907,"x_min":144,"x_max":817,"o":"m 797 1004 l 797 875 l 279 875 l 279 569 l 742 569 l 742 440 l 279 440 l 279 131 l 817 131 l 817 0 l 144 0 l 144 1004 l 797 1004 m 468 1075 q 326 1138 381 1075 q 257 1319 272 1201 l 346 1319 q 385 1206 354 1249 q 468 1164 417 1164 q 549 1206 519 1164 q 588 1319 579 1249 l 676 1319 q 608 1138 663 1200 q 468 1075 554 1075 z "},"Ě":{"ha":907,"x_min":144,"x_max":817,"o":"m 797 1004 l 797 875 l 279 875 l 279 569 l 742 569 l 742 440 l 279 440 l 279 131 l 817 131 l 817 0 l 144 0 l 144 1004 l 797 1004 m 694 1296 l 465 1058 l 464 1058 l 231 1296 l 351 1296 l 467 1176 l 575 1296 l 694 1296 z "},"Ê":{"ha":907,"x_min":144,"x_max":817,"o":"m 797 1004 l 797 875 l 279 875 l 279 569 l 742 569 l 742 440 l 279 440 l 279 131 l 817 131 l 817 0 l 144 0 l 144 1004 l 797 1004 m 571 1092 l 457 1211 l 349 1092 l 228 1092 l 457 1329 l 458 1329 l 692 1092 l 571 1092 z "},"Ế":{"ha":907,"x_min":144,"x_max":908,"o":"m 797 1004 l 797 875 l 279 875 l 279 569 l 742 569 l 742 440 l 279 440 l 279 131 l 817 131 l 817 0 l 144 0 l 144 1004 l 797 1004 m 579 1115 l 465 1235 l 357 1115 l 236 1115 l 465 1353 l 467 1353 l 700 1115 l 579 1115 m 732 1251 l 649 1251 l 764 1438 l 908 1438 l 732 1251 z "},"Ệ":{"ha":907,"x_min":144,"x_max":817,"o":"m 797 1004 l 797 875 l 279 875 l 279 569 l 742 569 l 742 440 l 279 440 l 279 131 l 817 131 l 817 0 l 144 0 l 144 1004 l 797 1004 m 386 -142 q 410 -90 386 -111 q 464 -69 433 -69 q 517 -90 494 -69 q 540 -142 540 -111 q 517 -193 540 -172 q 464 -214 494 -214 q 410 -193 433 -214 q 386 -142 386 -172 m 571 1092 l 457 1211 l 349 1092 l 228 1092 l 457 1329 l 458 1329 l 692 1092 l 571 1092 z "},"Ề":{"ha":907,"x_min":40,"x_max":817,"o":"m 797 1004 l 797 875 l 279 875 l 279 569 l 742 569 l 742 440 l 279 440 l 279 131 l 817 131 l 817 0 l 144 0 l 144 1004 l 797 1004 m 569 1111 l 456 1231 l 347 1111 l 226 1111 l 456 1349 l 457 1349 l 690 1111 l 569 1111 m 185 1446 l 285 1260 l 203 1260 l 40 1446 l 185 1446 z "},"Ể":{"ha":907,"x_min":144,"x_max":817,"o":"m 797 1004 l 797 875 l 279 875 l 279 569 l 742 569 l 742 440 l 279 440 l 279 131 l 817 131 l 817 0 l 144 0 l 144 1004 l 797 1004 m 574 1115 l 460 1235 l 351 1115 l 231 1115 l 460 1353 l 461 1353 l 694 1115 l 574 1115 m 678 1261 q 726 1303 711 1286 q 740 1344 740 1321 q 728 1380 740 1367 q 694 1393 717 1393 q 658 1383 674 1393 q 631 1350 643 1372 l 581 1382 q 638 1447 604 1425 q 711 1468 671 1468 q 789 1438 761 1468 q 817 1360 817 1407 q 789 1283 817 1315 q 711 1219 761 1251 l 678 1261 z "},"Ễ":{"ha":907,"x_min":144,"x_max":817,"o":"m 797 1004 l 797 875 l 279 875 l 279 569 l 742 569 l 742 440 l 279 440 l 279 131 l 817 131 l 817 0 l 144 0 l 144 1004 l 797 1004 m 569 1106 l 456 1225 l 347 1106 l 226 1106 l 456 1343 l 457 1343 l 690 1106 l 569 1106 m 568 1407 q 503 1422 528 1407 q 440 1469 478 1438 q 403 1500 418 1490 q 369 1510 388 1510 q 328 1482 343 1510 q 314 1407 313 1454 l 242 1407 q 274 1544 236 1489 q 376 1600 311 1600 q 434 1584 408 1600 q 489 1539 460 1568 q 531 1503 515 1514 q 565 1492 547 1492 q 615 1600 615 1492 l 688 1600 q 689 1569 689 1589 q 654 1451 689 1496 q 568 1407 619 1407 z "},"Ȅ":{"ha":907,"x_min":144,"x_max":817,"o":"m 797 1004 l 797 875 l 279 875 l 279 569 l 742 569 l 742 440 l 279 440 l 279 131 l 817 131 l 817 0 l 144 0 l 144 1004 l 797 1004 m 332 1276 l 432 1090 l 350 1090 l 188 1276 l 332 1276 m 529 1276 l 629 1090 l 547 1090 l 385 1276 l 529 1276 z "},"Ë":{"ha":907,"x_min":144,"x_max":817,"o":"m 797 1004 l 797 875 l 279 875 l 279 569 l 742 569 l 742 440 l 279 440 l 279 131 l 817 131 l 817 0 l 144 0 l 144 1004 l 797 1004 m 257 1151 q 279 1203 257 1182 q 331 1225 301 1225 q 381 1203 358 1225 q 403 1151 403 1182 q 381 1099 403 1121 q 331 1078 358 1078 q 279 1099 301 1078 q 257 1151 257 1119 m 517 1151 q 539 1203 517 1182 q 590 1225 561 1225 q 640 1203 618 1225 q 663 1151 663 1182 q 640 1099 663 1121 q 590 1078 618 1078 q 539 1099 561 1078 q 517 1151 517 1119 z "},"Ė":{"ha":907,"x_min":144,"x_max":817,"o":"m 797 1004 l 797 875 l 279 875 l 279 569 l 742 569 l 742 440 l 279 440 l 279 131 l 817 131 l 817 0 l 144 0 l 144 1004 l 797 1004 m 389 1149 q 413 1200 389 1179 q 467 1221 436 1221 q 520 1200 497 1221 q 543 1149 543 1179 q 520 1097 543 1118 q 467 1076 497 1076 q 413 1097 436 1076 q 389 1149 389 1118 z "},"Ẹ":{"ha":907,"x_min":144,"x_max":817,"o":"m 797 1004 l 797 875 l 279 875 l 279 569 l 742 569 l 742 440 l 279 440 l 279 131 l 817 131 l 817 0 l 144 0 l 144 1004 l 797 1004 m 386 -142 q 410 -90 386 -111 q 464 -69 433 -69 q 517 -90 494 -69 q 540 -142 540 -111 q 517 -193 540 -172 q 464 -214 494 -214 q 410 -193 433 -214 q 386 -142 386 -172 z "},"È":{"ha":907,"x_min":144,"x_max":817,"o":"m 797 1004 l 797 875 l 279 875 l 279 569 l 742 569 l 742 440 l 279 440 l 279 131 l 817 131 l 817 0 l 144 0 l 144 1004 l 797 1004 m 400 1264 l 500 1078 l 418 1078 l 256 1264 l 400 1264 z "},"Ẻ":{"ha":907,"x_min":144,"x_max":817,"o":"m 797 1004 l 797 875 l 279 875 l 279 569 l 742 569 l 742 440 l 279 440 l 279 131 l 817 131 l 817 0 l 144 0 l 144 1004 l 797 1004 m 457 1117 q 505 1159 490 1142 q 519 1200 519 1176 q 508 1235 519 1222 q 474 1249 496 1249 q 438 1238 453 1249 q 410 1206 422 1228 l 360 1238 q 417 1302 383 1281 q 490 1324 450 1324 q 568 1293 540 1324 q 596 1215 596 1263 q 568 1139 596 1171 q 490 1075 540 1107 l 457 1117 z "},"Ȇ":{"ha":907,"x_min":144,"x_max":817,"o":"m 797 1004 l 797 875 l 279 875 l 279 569 l 742 569 l 742 440 l 279 440 l 279 131 l 817 131 l 817 0 l 144 0 l 144 1004 l 797 1004 m 460 1286 q 601 1223 547 1286 q 671 1042 656 1160 l 582 1042 q 542 1155 574 1113 q 460 1197 511 1197 q 378 1155 408 1197 q 340 1042 349 1113 l 251 1042 q 319 1224 265 1161 q 460 1286 374 1286 z "},"Ē":{"ha":907,"x_min":144,"x_max":817,"o":"m 797 1004 l 797 875 l 279 875 l 279 569 l 742 569 l 742 440 l 279 440 l 279 131 l 817 131 l 817 0 l 144 0 l 144 1004 l 797 1004 m 633 1174 l 633 1081 l 292 1081 l 292 1174 l 633 1174 z "},"Ę":{"ha":907,"x_min":144,"x_max":871,"o":"m 871 -206 q 801 -272 846 -246 q 714 -299 757 -299 q 598 -257 644 -299 q 551 -147 551 -215 q 577 -67 551 -106 q 647 0 603 -28 l 144 0 l 144 1004 l 797 1004 l 797 875 l 279 875 l 279 569 l 742 569 l 742 440 l 279 440 l 279 131 l 817 131 l 817 0 l 818 0 q 699 -68 739 -36 q 660 -137 660 -100 q 678 -189 660 -172 q 726 -206 697 -206 q 821 -140 779 -206 l 871 -206 z "},"Ẽ":{"ha":907,"x_min":144,"x_max":817,"o":"m 797 1004 l 797 875 l 279 875 l 279 569 l 742 569 l 742 440 l 279 440 l 279 131 l 817 131 l 817 0 l 144 0 l 144 1004 l 797 1004 m 575 1117 q 510 1132 535 1117 q 447 1179 485 1147 q 410 1210 425 1200 q 376 1219 394 1219 q 335 1192 350 1219 q 321 1117 319 1164 l 249 1117 q 281 1254 243 1199 q 383 1310 318 1310 q 441 1294 415 1310 q 496 1249 467 1278 q 538 1213 522 1224 q 572 1201 554 1201 q 622 1310 622 1201 l 694 1310 q 696 1279 696 1299 q 661 1161 696 1206 q 575 1117 626 1117 z "},"F":{"ha":818,"x_min":144,"x_max":740,"o":"m 740 1004 l 740 875 l 279 875 l 279 556 l 683 556 l 683 426 l 279 426 l 279 0 l 144 0 l 144 1004 l 740 1004 z "},"G":{"ha":1044,"x_min":82,"x_max":932,"o":"m 932 86 q 788 19 886 50 q 607 -11 690 -11 q 331 53 450 -11 q 147 231 211 118 q 82 483 82 343 q 151 767 82 647 q 339 951 221 888 q 597 1015 457 1015 q 757 995 682 1015 q 892 942 832 975 l 847 818 q 735 862 803 843 q 614 881 668 881 q 408 833 497 881 q 269 699 318 786 q 221 494 221 611 q 269 301 221 386 q 407 170 318 217 q 610 124 496 124 q 713 134 663 124 q 796 164 763 144 l 796 363 l 596 363 l 596 492 l 932 492 l 932 86 z "},"Ğ":{"ha":1044,"x_min":82,"x_max":932,"o":"m 932 86 q 788 19 886 50 q 607 -11 690 -11 q 331 53 450 -11 q 147 231 211 118 q 82 483 82 343 q 151 767 82 647 q 339 951 221 888 q 597 1015 457 1015 q 757 995 682 1015 q 892 942 832 975 l 847 818 q 735 862 803 843 q 614 881 668 881 q 408 833 497 881 q 269 699 318 786 q 221 494 221 611 q 269 301 221 386 q 407 170 318 217 q 610 124 496 124 q 713 134 663 124 q 796 164 763 144 l 796 363 l 596 363 l 596 492 l 932 492 l 932 86 m 568 1057 q 426 1120 481 1057 q 357 1301 372 1183 l 446 1301 q 485 1188 454 1231 q 568 1146 517 1146 q 649 1188 619 1146 q 688 1301 679 1231 l 776 1301 q 708 1119 763 1182 q 568 1057 654 1057 z "},"Ǧ":{"ha":1044,"x_min":82,"x_max":932,"o":"m 932 86 q 788 19 886 50 q 607 -11 690 -11 q 331 53 450 -11 q 147 231 211 118 q 82 483 82 343 q 151 767 82 647 q 339 951 221 888 q 597 1015 457 1015 q 757 995 682 1015 q 892 942 832 975 l 847 818 q 735 862 803 843 q 614 881 668 881 q 408 833 497 881 q 269 699 318 786 q 221 494 221 611 q 269 301 221 386 q 407 170 318 217 q 610 124 496 124 q 713 134 663 124 q 796 164 763 144 l 796 363 l 596 363 l 596 492 l 932 492 l 932 86 m 794 1278 l 565 1040 l 564 1040 l 331 1278 l 451 1278 l 567 1158 l 675 1278 l 794 1278 z "},"Ĝ":{"ha":1044,"x_min":82,"x_max":932,"o":"m 932 86 q 788 19 886 50 q 607 -11 690 -11 q 331 53 450 -11 q 147 231 211 118 q 82 483 82 343 q 151 767 82 647 q 339 951 221 888 q 597 1015 457 1015 q 757 995 682 1015 q 892 942 832 975 l 847 818 q 735 862 803 843 q 614 881 668 881 q 408 833 497 881 q 269 699 318 786 q 221 494 221 611 q 269 301 221 386 q 407 170 318 217 q 610 124 496 124 q 713 134 663 124 q 796 164 763 144 l 796 363 l 596 363 l 596 492 l 932 492 l 932 86 m 671 1074 l 557 1193 l 449 1074 l 328 1074 l 557 1311 l 558 1311 l 792 1074 l 671 1074 z "},"Ģ":{"ha":1044,"x_min":82,"x_max":932,"o":"m 932 86 q 788 19 886 50 q 607 -11 690 -11 q 331 53 450 -11 q 147 231 211 118 q 82 483 82 343 q 151 767 82 647 q 339 951 221 888 q 597 1015 457 1015 q 757 995 682 1015 q 892 942 832 975 l 847 818 q 735 862 803 843 q 614 881 668 881 q 408 833 497 881 q 269 699 318 786 q 221 494 221 611 q 269 301 221 386 q 407 170 318 217 q 610 124 496 124 q 713 134 663 124 q 796 164 763 144 l 796 363 l 596 363 l 596 492 l 932 492 l 932 86 m 422 -253 q 465 -191 450 -231 q 479 -107 479 -151 q 476 -68 479 -93 l 592 -68 q 594 -99 594 -87 q 567 -212 594 -156 q 489 -299 539 -269 l 422 -253 z "},"Ġ":{"ha":1044,"x_min":82,"x_max":932,"o":"m 932 86 q 788 19 886 50 q 607 -11 690 -11 q 331 53 450 -11 q 147 231 211 118 q 82 483 82 343 q 151 767 82 647 q 339 951 221 888 q 597 1015 457 1015 q 757 995 682 1015 q 892 942 832 975 l 847 818 q 735 862 803 843 q 614 881 668 881 q 408 833 497 881 q 269 699 318 786 q 221 494 221 611 q 269 301 221 386 q 407 170 318 217 q 610 124 496 124 q 713 134 663 124 q 796 164 763 144 l 796 363 l 596 363 l 596 492 l 932 492 l 932 86 m 489 1131 q 513 1182 489 1161 q 567 1203 536 1203 q 620 1182 597 1203 q 643 1131 643 1161 q 620 1079 643 1100 q 567 1058 597 1058 q 513 1079 536 1058 q 489 1131 489 1100 z "},"H":{"ha":1085,"x_min":144,"x_max":940,"o":"m 940 0 l 806 0 l 806 440 l 279 440 l 279 0 l 144 0 l 144 1004 l 279 1004 l 279 569 l 806 569 l 806 1004 l 940 1004 l 940 0 z "},"Ħ":{"ha":1311,"x_min":144,"x_max":1167,"o":"m 1167 690 l 1046 690 l 1046 0 l 911 0 l 911 440 l 385 440 l 385 0 l 250 0 l 250 690 l 144 690 l 144 790 l 250 790 l 250 1004 l 385 1004 l 385 790 l 911 790 l 911 1004 l 1046 1004 l 1046 790 l 1167 790 l 1167 690 m 911 690 l 385 690 l 385 569 l 911 569 l 911 690 z "},"Ĥ":{"ha":1085,"x_min":144,"x_max":940,"o":"m 940 0 l 806 0 l 806 440 l 279 440 l 279 0 l 144 0 l 144 1004 l 279 1004 l 279 569 l 806 569 l 806 1004 l 940 1004 l 940 0 m 649 1074 l 535 1193 l 426 1074 l 306 1074 l 535 1311 l 536 1311 l 769 1074 l 649 1074 z "},"I":{"ha":424,"x_min":144,"x_max":279,"o":"m 279 1004 l 279 0 l 144 0 l 144 1004 l 279 1004 z "},"Ĳ":{"ha":931,"x_min":144,"x_max":786,"o":"m 279 1004 l 279 0 l 144 0 l 144 1004 l 279 1004 m 786 182 q 740 -24 786 63 q 613 -158 694 -111 q 428 -207 532 -204 l 428 -76 q 591 -5 531 -71 q 651 186 651 61 l 651 1004 l 786 1004 l 786 182 z "},"Í":{"ha":424,"x_min":144,"x_max":428,"o":"m 279 1004 l 279 0 l 144 0 l 144 1004 l 279 1004 m 251 1068 l 168 1068 l 283 1254 l 428 1254 l 251 1068 z "},"Ĭ":{"ha":424,"x_min":3,"x_max":422,"o":"m 279 1004 l 279 0 l 144 0 l 144 1004 l 279 1004 m 214 1075 q 72 1138 126 1075 q 3 1319 18 1201 l 92 1319 q 131 1206 100 1249 q 214 1164 163 1164 q 295 1206 265 1164 q 333 1319 325 1249 l 422 1319 q 354 1138 408 1200 q 214 1075 300 1075 z "},"Î":{"ha":424,"x_min":-26,"x_max":438,"o":"m 279 1004 l 279 0 l 144 0 l 144 1004 l 279 1004 m 317 1092 l 203 1211 l 94 1092 l -26 1092 l 203 1329 l 204 1329 l 438 1092 l 317 1092 z "},"Ȉ":{"ha":424,"x_min":-67,"x_max":375,"o":"m 279 1004 l 279 0 l 144 0 l 144 1004 l 279 1004 m 78 1276 l 178 1090 l 96 1090 l -67 1276 l 78 1276 m 275 1276 l 375 1090 l 293 1090 l 131 1276 l 275 1276 z "},"Ï":{"ha":424,"x_min":4,"x_max":410,"o":"m 279 1004 l 279 0 l 144 0 l 144 1004 l 279 1004 m 4 1151 q 26 1203 4 1182 q 78 1225 49 1225 q 128 1203 106 1225 q 150 1151 150 1182 q 128 1099 150 1121 q 78 1078 106 1078 q 26 1099 49 1078 q 4 1151 4 1119 m 264 1151 q 286 1203 264 1182 q 338 1225 308 1225 q 388 1203 365 1225 q 410 1151 410 1182 q 388 1099 410 1121 q 338 1078 365 1078 q 286 1099 308 1078 q 264 1151 264 1119 z "},"İ":{"ha":424,"x_min":136,"x_max":290,"o":"m 279 1004 l 279 0 l 144 0 l 144 1004 l 279 1004 m 136 1149 q 160 1200 136 1179 q 214 1221 183 1221 q 267 1200 244 1221 q 290 1149 290 1179 q 267 1097 290 1118 q 214 1076 244 1076 q 160 1097 183 1076 q 136 1149 136 1118 z "},"Ị":{"ha":424,"x_min":133,"x_max":288,"o":"m 279 1004 l 279 0 l 144 0 l 144 1004 l 279 1004 m 133 -142 q 157 -90 133 -111 q 211 -69 181 -69 q 265 -90 242 -69 q 288 -142 288 -111 q 265 -193 288 -172 q 211 -214 242 -214 q 157 -193 181 -214 q 133 -142 133 -172 z "},"Ì":{"ha":424,"x_min":3,"x_max":279,"o":"m 279 1004 l 279 0 l 144 0 l 144 1004 l 279 1004 m 147 1264 l 247 1078 l 165 1078 l 3 1264 l 147 1264 z "},"Ỉ":{"ha":424,"x_min":106,"x_max":342,"o":"m 279 1004 l 279 0 l 144 0 l 144 1004 l 279 1004 m 203 1117 q 251 1159 236 1142 q 265 1200 265 1176 q 253 1235 265 1222 q 219 1249 242 1249 q 183 1238 199 1249 q 156 1206 168 1228 l 106 1238 q 163 1302 129 1281 q 236 1324 196 1324 q 314 1293 286 1324 q 342 1215 342 1263 q 314 1139 342 1171 q 236 1075 286 1107 l 203 1117 z "},"Ȋ":{"ha":424,"x_min":-3,"x_max":417,"o":"m 279 1004 l 279 0 l 144 0 l 144 1004 l 279 1004 m 206 1286 q 347 1223 293 1286 q 417 1042 401 1160 l 328 1042 q 288 1155 319 1113 q 206 1197 257 1197 q 124 1155 154 1197 q 86 1042 94 1113 l -3 1042 q 65 1224 11 1161 q 206 1286 119 1286 z "},"Ī":{"ha":424,"x_min":38,"x_max":379,"o":"m 279 1004 l 279 0 l 144 0 l 144 1004 l 279 1004 m 379 1174 l 379 1081 l 38 1081 l 38 1174 l 379 1174 z "},"Į":{"ha":381,"x_min":19,"x_max":339,"o":"m 339 -206 q 270 -272 314 -246 q 183 -299 226 -299 q 66 -260 113 -299 q 19 -157 19 -222 q 53 -64 19 -108 q 144 7 88 -19 l 144 1004 l 279 1004 l 279 0 l 274 0 q 165 -65 201 -33 q 128 -137 128 -97 q 147 -189 128 -172 q 196 -206 167 -206 q 289 -140 247 -206 l 339 -206 z "},"Ĩ":{"ha":424,"x_min":-4,"x_max":443,"o":"m 279 1004 l 279 0 l 144 0 l 144 1004 l 279 1004 m 322 1117 q 257 1132 282 1117 q 194 1179 232 1147 q 157 1210 172 1200 q 124 1219 142 1219 q 82 1192 97 1219 q 68 1117 67 1164 l -4 1117 q 28 1254 -10 1199 q 131 1310 65 1310 q 188 1294 163 1310 q 243 1249 214 1278 q 285 1213 269 1224 q 319 1201 301 1201 q 369 1310 369 1201 l 442 1310 q 443 1279 443 1299 q 408 1161 443 1206 q 322 1117 374 1117 z "},"J":{"ha":507,"x_min":4,"x_max":363,"o":"m 363 182 q 317 -24 363 63 q 190 -158 271 -111 q 4 -207 108 -204 l 4 -76 q 167 -5 107 -71 q 228 186 228 61 l 228 1004 l 363 1004 l 363 182 z "},"Ĵ":{"ha":507,"x_min":4,"x_max":521,"o":"m 363 182 q 317 -24 363 63 q 190 -158 271 -111 q 4 -207 108 -204 l 4 -76 q 167 -5 107 -71 q 228 186 228 61 l 228 1004 l 363 1004 l 363 182 m 400 1092 l 286 1211 l 178 1092 l 57 1092 l 286 1329 l 288 1329 l 521 1092 l 400 1092 z "},"K":{"ha":944,"x_min":144,"x_max":903,"o":"m 278 550 l 294 576 l 706 1004 l 879 1004 l 464 574 l 903 0 l 732 0 l 365 488 l 281 406 l 282 0 l 144 0 l 144 1004 l 282 1004 l 282 600 l 278 550 z "},"Ķ":{"ha":944,"x_min":144,"x_max":903,"o":"m 278 550 l 294 576 l 706 1004 l 879 1004 l 464 574 l 903 0 l 732 0 l 365 488 l 281 406 l 282 0 l 144 0 l 144 1004 l 282 1004 l 282 600 l 278 550 m 333 -253 q 376 -191 361 -231 q 390 -107 390 -151 q 388 -68 390 -93 l 503 -68 q 506 -99 506 -87 q 478 -212 506 -156 q 400 -299 450 -269 l 333 -253 z "},"L":{"ha":864,"x_min":144,"x_max":790,"o":"m 279 1004 l 279 131 l 790 131 l 790 0 l 144 0 l 144 1004 l 279 1004 z "},"Ǉ":{"ha":1371,"x_min":144,"x_max":1226,"o":"m 279 1004 l 279 131 l 790 131 l 790 0 l 144 0 l 144 1004 l 279 1004 m 1226 182 q 1181 -24 1226 63 q 1053 -158 1135 -111 q 868 -207 972 -204 l 868 -76 q 1031 -5 971 -71 q 1092 186 1092 61 l 1092 1004 l 1226 1004 l 1226 182 z "},"Ĺ":{"ha":864,"x_min":144,"x_max":790,"o":"m 279 1004 l 279 131 l 790 131 l 790 0 l 144 0 l 144 1004 l 279 1004 m 249 1068 l 165 1068 l 281 1254 l 425 1254 l 249 1068 z "},"Ľ":{"ha":854,"x_min":144,"x_max":790,"o":"m 279 1004 l 279 131 l 790 131 l 790 0 l 144 0 l 144 1004 l 279 1004 m 507 817 q 548 880 532 842 q 564 958 564 918 q 561 990 564 968 l 665 1000 q 668 969 668 981 q 640 864 668 917 q 572 783 613 811 l 507 817 z "},"Ļ":{"ha":864,"x_min":144,"x_max":790,"o":"m 279 1004 l 279 131 l 790 131 l 790 0 l 144 0 l 144 1004 l 279 1004 m 335 -253 q 377 -191 363 -231 q 392 -107 392 -151 q 389 -68 392 -93 l 504 -68 q 507 -99 507 -87 q 479 -212 507 -156 q 401 -299 451 -269 l 335 -253 z "},"Ŀ":{"ha":874,"x_min":144,"x_max":811,"o":"m 279 1004 l 279 131 l 790 131 l 790 0 l 144 0 l 144 1004 l 279 1004 m 665 535 q 688 588 665 565 q 739 610 710 610 q 788 588 765 610 q 811 535 811 565 q 789 482 811 503 q 739 461 767 461 q 688 482 710 461 q 665 535 665 503 z "},"ǈ":{"ha":1225,"x_min":144,"x_max":1135,"o":"m 279 1004 l 279 131 l 790 131 l 790 0 l 144 0 l 144 1004 l 279 1004 m 907 -197 q 990 1 990 -126 l 990 575 l 1121 575 l 1121 -4 q 1088 -169 1121 -103 q 985 -278 1056 -236 l 907 -197 m 981 782 q 1004 833 981 813 q 1058 854 1028 854 q 1112 833 1089 854 q 1135 782 1135 813 q 1112 731 1135 751 q 1058 710 1089 710 q 1004 731 1028 710 q 981 782 981 751 z "},"Ł":{"ha":854,"x_min":22,"x_max":790,"o":"m 790 131 l 790 0 l 144 0 l 144 399 l 49 367 l 22 474 l 144 514 l 144 1004 l 279 1004 l 279 558 l 539 643 l 565 536 l 279 442 l 279 131 l 790 131 z "},"M":{"ha":1288,"x_min":144,"x_max":1143,"o":"m 1143 1036 l 1143 0 l 1010 0 l 1010 650 l 640 126 l 638 126 l 275 632 l 275 0 l 144 0 l 144 1036 l 146 1036 l 640 336 l 1142 1036 l 1143 1036 z "},"N":{"ha":1164,"x_min":144,"x_max":1019,"o":"m 1019 1004 l 1019 -33 l 1015 -33 l 278 715 l 281 0 l 144 0 l 144 1035 l 151 1035 l 888 278 l 885 1004 l 1019 1004 z "},"Ǌ":{"ha":1671,"x_min":144,"x_max":1526,"o":"m 1019 1004 l 1019 -33 l 1015 -33 l 278 715 l 281 0 l 144 0 l 144 1035 l 151 1035 l 888 278 l 885 1004 l 1019 1004 m 1526 182 q 1481 -24 1526 63 q 1353 -158 1435 -111 q 1168 -207 1272 -204 l 1168 -76 q 1331 -5 1271 -71 q 1392 186 1392 61 l 1392 1004 l 1526 1004 l 1526 182 z "},"Ń":{"ha":1164,"x_min":144,"x_max":1019,"o":"m 1019 1004 l 1019 -33 l 1015 -33 l 278 715 l 281 0 l 144 0 l 144 1035 l 151 1035 l 888 278 l 885 1004 l 1019 1004 m 604 1050 l 521 1050 l 636 1236 l 781 1236 l 604 1050 z "},"Ň":{"ha":1164,"x_min":144,"x_max":1019,"o":"m 1019 1004 l 1019 -33 l 1015 -33 l 278 715 l 281 0 l 144 0 l 144 1035 l 151 1035 l 888 278 l 885 1004 l 1019 1004 m 794 1278 l 565 1040 l 564 1040 l 331 1278 l 451 1278 l 567 1158 l 675 1278 l 794 1278 z "},"Ņ":{"ha":1164,"x_min":144,"x_max":1019,"o":"m 1019 1004 l 1019 -33 l 1015 -33 l 278 715 l 281 0 l 144 0 l 144 1035 l 151 1035 l 888 278 l 885 1004 l 1019 1004 m 471 -253 q 513 -191 499 -231 q 528 -107 528 -151 q 525 -68 528 -93 l 640 -68 q 643 -99 643 -87 q 615 -212 643 -156 q 538 -299 588 -269 l 471 -253 z "},"Ŋ":{"ha":1119,"x_min":124,"x_max":997,"o":"m 997 1004 l 997 -4 q 861 -278 997 -192 l 785 -197 q 868 1 868 -125 l 868 94 l 256 718 l 258 0 l 124 0 l 124 1035 l 129 1035 l 865 276 l 863 1004 l 997 1004 z "},"Ɲ":{"ha":1142,"x_min":40,"x_max":997,"o":"m 997 1004 l 997 -3 l 993 -33 l 256 717 l 258 58 l 258 -4 q 124 -278 258 -192 l 40 -197 q 124 1 124 -125 l 124 1035 l 129 1035 l 865 278 l 863 1004 l 997 1004 z "},"ǋ":{"ha":1525,"x_min":144,"x_max":1435,"o":"m 1019 1004 l 1019 -33 l 1015 -33 l 278 715 l 281 0 l 144 0 l 144 1035 l 151 1035 l 888 278 l 885 1004 l 1019 1004 m 1207 -197 q 1290 1 1290 -126 l 1290 575 l 1421 575 l 1421 -4 q 1388 -169 1421 -103 q 1285 -278 1356 -236 l 1207 -197 m 1281 782 q 1304 833 1281 813 q 1358 854 1328 854 q 1412 833 1389 854 q 1435 782 1435 813 q 1412 731 1435 751 q 1358 710 1389 710 q 1304 731 1328 710 q 1281 782 1281 751 z "},"Ñ":{"ha":1164,"x_min":144,"x_max":1019,"o":"m 1019 1004 l 1019 -33 l 1015 -33 l 278 715 l 281 0 l 144 0 l 144 1035 l 151 1035 l 888 278 l 885 1004 l 1019 1004 m 675 1099 q 610 1114 635 1099 q 547 1161 585 1129 q 510 1192 525 1182 q 476 1201 494 1201 q 435 1174 450 1201 q 421 1099 419 1146 l 349 1099 q 381 1236 343 1181 q 483 1292 418 1292 q 541 1276 515 1292 q 596 1231 567 1260 q 638 1194 622 1206 q 672 1183 654 1183 q 722 1292 722 1183 l 794 1292 q 796 1261 796 1281 q 761 1143 796 1188 q 675 1099 726 1099 z "},"O":{"ha":1190,"x_min":82,"x_max":1108,"o":"m 82 501 q 151 757 82 639 q 338 945 221 875 q 594 1015 456 1015 q 850 945 732 1015 q 1038 757 968 875 q 1108 501 1108 639 q 1039 244 1108 363 q 851 58 969 126 q 594 -11 732 -11 q 338 57 456 -11 q 151 242 219 125 q 82 501 82 360 m 221 500 q 271 310 221 397 q 408 171 321 222 q 597 119 494 119 q 785 170 700 119 q 920 309 871 221 q 969 501 969 397 q 919 694 969 606 q 783 835 869 783 q 594 886 697 886 q 406 834 492 886 q 270 693 319 782 q 221 500 221 604 z "},"Ó":{"ha":1190,"x_min":82,"x_max":1108,"o":"m 82 501 q 151 757 82 639 q 338 945 221 875 q 594 1015 456 1015 q 850 945 732 1015 q 1038 757 968 875 q 1108 501 1108 639 q 1039 244 1108 363 q 851 58 969 126 q 594 -11 732 -11 q 338 57 456 -11 q 151 242 219 125 q 82 501 82 360 m 221 500 q 271 310 221 397 q 408 171 321 222 q 597 119 494 119 q 785 170 700 119 q 920 309 871 221 q 969 501 969 397 q 919 694 969 606 q 783 835 869 783 q 594 886 697 886 q 406 834 492 886 q 270 693 319 782 q 221 500 221 604 m 635 1058 l 551 1058 l 667 1244 l 811 1244 l 635 1058 z "},"Ŏ":{"ha":1190,"x_min":82,"x_max":1108,"o":"m 82 501 q 151 757 82 639 q 338 945 221 875 q 594 1015 456 1015 q 850 945 732 1015 q 1038 757 968 875 q 1108 501 1108 639 q 1039 244 1108 363 q 851 58 969 126 q 594 -11 732 -11 q 338 57 456 -11 q 151 242 219 125 q 82 501 82 360 m 221 500 q 271 310 221 397 q 408 171 321 222 q 597 119 494 119 q 785 170 700 119 q 920 309 871 221 q 969 501 969 397 q 919 694 969 606 q 783 835 869 783 q 594 886 697 886 q 406 834 492 886 q 270 693 319 782 q 221 500 221 604 m 599 1065 q 457 1128 511 1065 q 388 1310 403 1192 l 476 1310 q 516 1197 485 1239 q 599 1154 547 1154 q 680 1197 650 1154 q 718 1310 710 1239 l 807 1310 q 739 1128 793 1190 q 599 1065 685 1065 z "},"Ô":{"ha":1190,"x_min":82,"x_max":1108,"o":"m 82 501 q 151 757 82 639 q 338 945 221 875 q 594 1015 456 1015 q 850 945 732 1015 q 1038 757 968 875 q 1108 501 1108 639 q 1039 244 1108 363 q 851 58 969 126 q 594 -11 732 -11 q 338 57 456 -11 q 151 242 219 125 q 82 501 82 360 m 221 500 q 271 310 221 397 q 408 171 321 222 q 597 119 494 119 q 785 170 700 119 q 920 309 871 221 q 969 501 969 397 q 919 694 969 606 q 783 835 869 783 q 594 886 697 886 q 406 834 492 886 q 270 693 319 782 q 221 500 221 604 m 701 1082 l 588 1201 l 479 1082 l 358 1082 l 588 1319 l 589 1319 l 822 1082 l 701 1082 z "},"Ố":{"ha":1190,"x_min":82,"x_max":1108,"o":"m 82 501 q 151 757 82 639 q 338 945 221 875 q 594 1015 456 1015 q 850 945 732 1015 q 1038 757 968 875 q 1108 501 1108 639 q 1039 244 1108 363 q 851 58 969 126 q 594 -11 732 -11 q 338 57 456 -11 q 151 242 219 125 q 82 501 82 360 m 221 500 q 271 310 221 397 q 408 171 321 222 q 597 119 494 119 q 785 170 700 119 q 920 309 871 221 q 969 501 969 397 q 919 694 969 606 q 783 835 869 783 q 594 886 697 886 q 406 834 492 886 q 270 693 319 782 q 221 500 221 604 m 710 1106 l 596 1225 l 488 1106 l 367 1106 l 596 1343 l 597 1343 l 831 1106 l 710 1106 m 863 1242 l 779 1242 l 894 1428 l 1039 1428 l 863 1242 z "},"Ộ":{"ha":1190,"x_min":82,"x_max":1108,"o":"m 82 501 q 151 757 82 639 q 338 945 221 875 q 594 1015 456 1015 q 850 945 732 1015 q 1038 757 968 875 q 1108 501 1108 639 q 1039 244 1108 363 q 851 58 969 126 q 594 -11 732 -11 q 338 57 456 -11 q 151 242 219 125 q 82 501 82 360 m 221 500 q 271 310 221 397 q 408 171 321 222 q 597 119 494 119 q 785 170 700 119 q 920 309 871 221 q 969 501 969 397 q 919 694 969 606 q 783 835 869 783 q 594 886 697 886 q 406 834 492 886 q 270 693 319 782 q 221 500 221 604 m 517 -142 q 540 -90 517 -111 q 594 -69 564 -69 q 648 -90 625 -69 q 671 -142 671 -111 q 648 -193 671 -172 q 594 -214 625 -214 q 540 -193 564 -214 q 517 -142 517 -172 m 701 1082 l 588 1201 l 479 1082 l 358 1082 l 588 1319 l 589 1319 l 822 1082 l 701 1082 z "},"Ồ":{"ha":1190,"x_min":82,"x_max":1108,"o":"m 82 501 q 151 757 82 639 q 338 945 221 875 q 594 1015 456 1015 q 850 945 732 1015 q 1038 757 968 875 q 1108 501 1108 639 q 1039 244 1108 363 q 851 58 969 126 q 594 -11 732 -11 q 338 57 456 -11 q 151 242 219 125 q 82 501 82 360 m 221 500 q 271 310 221 397 q 408 171 321 222 q 597 119 494 119 q 785 170 700 119 q 920 309 871 221 q 969 501 969 397 q 919 694 969 606 q 783 835 869 783 q 594 886 697 886 q 406 834 492 886 q 270 693 319 782 q 221 500 221 604 m 701 1101 l 588 1221 l 479 1101 l 358 1101 l 588 1339 l 589 1339 l 822 1101 l 701 1101 m 317 1436 l 417 1250 l 335 1250 l 172 1436 l 317 1436 z "},"Ổ":{"ha":1190,"x_min":82,"x_max":1108,"o":"m 82 501 q 151 757 82 639 q 338 945 221 875 q 594 1015 456 1015 q 850 945 732 1015 q 1038 757 968 875 q 1108 501 1108 639 q 1039 244 1108 363 q 851 58 969 126 q 594 -11 732 -11 q 338 57 456 -11 q 151 242 219 125 q 82 501 82 360 m 221 500 q 271 310 221 397 q 408 171 321 222 q 597 119 494 119 q 785 170 700 119 q 920 309 871 221 q 969 501 969 397 q 919 694 969 606 q 783 835 869 783 q 594 886 697 886 q 406 834 492 886 q 270 693 319 782 q 221 500 221 604 m 704 1106 l 590 1225 l 482 1106 l 361 1106 l 590 1343 l 592 1343 l 825 1106 l 704 1106 m 808 1251 q 856 1294 842 1276 q 871 1335 871 1311 q 859 1370 871 1357 q 825 1383 847 1383 q 789 1373 804 1383 q 761 1340 774 1363 l 711 1372 q 768 1437 735 1415 q 842 1458 801 1458 q 919 1428 892 1458 q 947 1350 947 1397 q 919 1274 947 1306 q 842 1210 892 1242 l 808 1251 z "},"Ỗ":{"ha":1190,"x_min":82,"x_max":1108,"o":"m 82 501 q 151 757 82 639 q 338 945 221 875 q 594 1015 456 1015 q 850 945 732 1015 q 1038 757 968 875 q 1108 501 1108 639 q 1039 244 1108 363 q 851 58 969 126 q 594 -11 732 -11 q 338 57 456 -11 q 151 242 219 125 q 82 501 82 360 m 221 500 q 271 310 221 397 q 408 171 321 222 q 597 119 494 119 q 785 170 700 119 q 920 309 871 221 q 969 501 969 397 q 919 694 969 606 q 783 835 869 783 q 594 886 697 886 q 406 834 492 886 q 270 693 319 782 q 221 500 221 604 m 700 1096 l 586 1215 l 478 1096 l 357 1096 l 586 1333 l 588 1333 l 821 1096 l 700 1096 m 699 1397 q 633 1413 658 1397 q 571 1460 608 1428 q 533 1490 549 1481 q 500 1500 518 1500 q 458 1472 474 1500 q 444 1397 443 1444 l 372 1397 q 404 1535 367 1479 q 507 1590 442 1590 q 565 1574 539 1590 q 619 1529 590 1558 q 662 1493 646 1504 q 696 1482 678 1482 q 746 1590 746 1482 l 818 1590 q 819 1560 819 1579 q 785 1442 819 1486 q 699 1397 750 1397 z "},"Ȍ":{"ha":1190,"x_min":82,"x_max":1108,"o":"m 82 501 q 151 757 82 639 q 338 945 221 875 q 594 1015 456 1015 q 850 945 732 1015 q 1038 757 968 875 q 1108 501 1108 639 q 1039 244 1108 363 q 851 58 969 126 q 594 -11 732 -11 q 338 57 456 -11 q 151 242 219 125 q 82 501 82 360 m 221 500 q 271 310 221 397 q 408 171 321 222 q 597 119 494 119 q 785 170 700 119 q 920 309 871 221 q 969 501 969 397 q 919 694 969 606 q 783 835 869 783 q 594 886 697 886 q 406 834 492 886 q 270 693 319 782 q 221 500 221 604 m 463 1267 l 563 1081 l 481 1081 l 318 1267 l 463 1267 m 660 1267 l 760 1081 l 678 1081 l 515 1267 l 660 1267 z "},"Ö":{"ha":1190,"x_min":82,"x_max":1108,"o":"m 82 501 q 151 757 82 639 q 338 945 221 875 q 594 1015 456 1015 q 850 945 732 1015 q 1038 757 968 875 q 1108 501 1108 639 q 1039 244 1108 363 q 851 58 969 126 q 594 -11 732 -11 q 338 57 456 -11 q 151 242 219 125 q 82 501 82 360 m 221 500 q 271 310 221 397 q 408 171 321 222 q 597 119 494 119 q 785 170 700 119 q 920 309 871 221 q 969 501 969 397 q 919 694 969 606 q 783 835 869 783 q 594 886 697 886 q 406 834 492 886 q 270 693 319 782 q 221 500 221 604 m 388 1142 q 410 1194 388 1172 q 461 1215 432 1215 q 511 1194 489 1215 q 533 1142 533 1172 q 511 1090 533 1111 q 461 1068 489 1068 q 410 1089 432 1068 q 388 1142 388 1110 m 647 1142 q 669 1194 647 1172 q 721 1215 692 1215 q 771 1194 749 1215 q 793 1142 793 1172 q 771 1090 793 1111 q 721 1068 749 1068 q 669 1089 692 1068 q 647 1142 647 1110 z "},"Ȫ":{"ha":1190,"x_min":82,"x_max":1108,"o":"m 82 501 q 151 757 82 639 q 338 945 221 875 q 594 1015 456 1015 q 850 945 732 1015 q 1038 757 968 875 q 1108 501 1108 639 q 1039 244 1108 363 q 851 58 969 126 q 594 -11 732 -11 q 338 57 456 -11 q 151 242 219 125 q 82 501 82 360 m 221 500 q 271 310 221 397 q 408 171 321 222 q 597 119 494 119 q 785 170 700 119 q 920 309 871 221 q 969 501 969 397 q 919 694 969 606 q 783 835 869 783 q 594 886 697 886 q 406 834 492 886 q 270 693 319 782 q 221 500 221 604 m 388 1142 q 410 1194 388 1172 q 461 1215 432 1215 q 511 1194 489 1215 q 533 1142 533 1172 q 511 1090 533 1111 q 461 1068 489 1068 q 410 1089 432 1068 q 388 1142 388 1110 m 647 1142 q 669 1194 647 1172 q 721 1215 692 1215 q 771 1194 749 1215 q 793 1142 793 1172 q 771 1090 793 1111 q 721 1068 749 1068 q 669 1089 692 1068 q 647 1142 647 1110 m 764 1367 l 764 1274 l 422 1274 l 422 1367 l 764 1367 z "},"Ȱ":{"ha":1190,"x_min":82,"x_max":1108,"o":"m 82 501 q 151 757 82 639 q 338 945 221 875 q 594 1015 456 1015 q 850 945 732 1015 q 1038 757 968 875 q 1108 501 1108 639 q 1039 244 1108 363 q 851 58 969 126 q 594 -11 732 -11 q 338 57 456 -11 q 151 242 219 125 q 82 501 82 360 m 221 500 q 271 310 221 397 q 408 171 321 222 q 597 119 494 119 q 785 170 700 119 q 920 309 871 221 q 969 501 969 397 q 919 694 969 606 q 783 835 869 783 q 594 886 697 886 q 406 834 492 886 q 270 693 319 782 q 221 500 221 604 m 519 1139 q 543 1190 519 1169 q 597 1211 567 1211 q 651 1190 628 1211 q 674 1139 674 1169 q 651 1088 674 1108 q 597 1067 628 1067 q 543 1088 567 1067 q 519 1139 519 1108 m 764 1361 l 764 1268 l 422 1268 l 422 1361 l 764 1361 z "},"Ọ":{"ha":1190,"x_min":82,"x_max":1108,"o":"m 82 501 q 151 757 82 639 q 338 945 221 875 q 594 1015 456 1015 q 850 945 732 1015 q 1038 757 968 875 q 1108 501 1108 639 q 1039 244 1108 363 q 851 58 969 126 q 594 -11 732 -11 q 338 57 456 -11 q 151 242 219 125 q 82 501 82 360 m 221 500 q 271 310 221 397 q 408 171 321 222 q 597 119 494 119 q 785 170 700 119 q 920 309 871 221 q 969 501 969 397 q 919 694 969 606 q 783 835 869 783 q 594 886 697 886 q 406 834 492 886 q 270 693 319 782 q 221 500 221 604 m 517 -142 q 540 -90 517 -111 q 594 -69 564 -69 q 648 -90 625 -69 q 671 -142 671 -111 q 648 -193 671 -172 q 594 -214 625 -214 q 540 -193 564 -214 q 517 -142 517 -172 z "},"Ò":{"ha":1190,"x_min":82,"x_max":1108,"o":"m 82 501 q 151 757 82 639 q 338 945 221 875 q 594 1015 456 1015 q 850 945 732 1015 q 1038 757 968 875 q 1108 501 1108 639 q 1039 244 1108 363 q 851 58 969 126 q 594 -11 732 -11 q 338 57 456 -11 q 151 242 219 125 q 82 501 82 360 m 221 500 q 271 310 221 397 q 408 171 321 222 q 597 119 494 119 q 785 170 700 119 q 920 309 871 221 q 969 501 969 397 q 919 694 969 606 q 783 835 869 783 q 594 886 697 886 q 406 834 492 886 q 270 693 319 782 q 221 500 221 604 m 531 1254 l 631 1068 l 549 1068 l 386 1254 l 531 1254 z "},"Ỏ":{"ha":1190,"x_min":82,"x_max":1108,"o":"m 82 501 q 151 757 82 639 q 338 945 221 875 q 594 1015 456 1015 q 850 945 732 1015 q 1038 757 968 875 q 1108 501 1108 639 q 1039 244 1108 363 q 851 58 969 126 q 594 -11 732 -11 q 338 57 456 -11 q 151 242 219 125 q 82 501 82 360 m 221 500 q 271 310 221 397 q 408 171 321 222 q 597 119 494 119 q 785 170 700 119 q 920 309 871 221 q 969 501 969 397 q 919 694 969 606 q 783 835 869 783 q 594 886 697 886 q 406 834 492 886 q 270 693 319 782 q 221 500 221 604 m 588 1107 q 635 1149 621 1132 q 650 1190 650 1167 q 638 1226 650 1213 q 604 1239 626 1239 q 568 1228 583 1239 q 540 1196 553 1218 l 490 1228 q 547 1292 514 1271 q 621 1314 581 1314 q 699 1283 671 1314 q 726 1206 726 1253 q 699 1129 726 1161 q 621 1065 671 1097 l 588 1107 z "},"Ơ":{"ha":1190,"x_min":82,"x_max":1108,"o":"m 828 957 q 1031 769 954 892 q 1108 501 1108 646 q 1039 244 1108 363 q 851 58 969 126 q 594 -11 732 -11 q 338 57 456 -11 q 151 242 219 125 q 82 501 82 360 q 151 757 82 639 q 338 945 221 875 q 594 1015 456 1015 q 694 1006 639 1015 l 694 1007 q 777 1033 753 1007 q 808 1132 801 1060 l 906 1132 q 878 1021 897 1063 q 828 957 860 979 m 597 119 q 785 170 700 119 q 920 309 871 221 q 969 501 969 397 q 919 694 969 606 q 783 835 869 783 q 594 886 697 886 q 406 834 492 886 q 270 693 319 782 q 221 500 221 604 q 271 310 221 397 q 408 171 321 222 q 597 119 494 119 z "},"Ớ":{"ha":1190,"x_min":82,"x_max":1108,"o":"m 828 957 q 1031 769 954 892 q 1108 501 1108 646 q 1039 244 1108 363 q 851 58 969 126 q 594 -11 732 -11 q 338 57 456 -11 q 151 242 219 125 q 82 501 82 360 q 151 757 82 639 q 338 945 221 875 q 594 1015 456 1015 q 694 1006 639 1015 l 694 1007 q 777 1033 753 1007 q 808 1132 801 1060 l 906 1132 q 878 1021 897 1063 q 828 957 860 979 m 597 119 q 785 170 700 119 q 920 309 871 221 q 969 501 969 397 q 919 694 969 606 q 783 835 869 783 q 594 886 697 886 q 406 834 492 886 q 270 693 319 782 q 221 500 221 604 q 271 310 221 397 q 408 171 321 222 q 597 119 494 119 m 635 1058 l 551 1058 l 667 1244 l 811 1244 l 635 1058 z "},"Ợ":{"ha":1190,"x_min":82,"x_max":1108,"o":"m 828 957 q 1031 769 954 892 q 1108 501 1108 646 q 1039 244 1108 363 q 851 58 969 126 q 594 -11 732 -11 q 338 57 456 -11 q 151 242 219 125 q 82 501 82 360 q 151 757 82 639 q 338 945 221 875 q 594 1015 456 1015 q 694 1006 639 1015 l 694 1007 q 777 1033 753 1007 q 808 1132 801 1060 l 906 1132 q 878 1021 897 1063 q 828 957 860 979 m 597 119 q 785 170 700 119 q 920 309 871 221 q 969 501 969 397 q 919 694 969 606 q 783 835 869 783 q 594 886 697 886 q 406 834 492 886 q 270 693 319 782 q 221 500 221 604 q 271 310 221 397 q 408 171 321 222 q 597 119 494 119 m 517 -142 q 540 -90 517 -111 q 594 -69 564 -69 q 648 -90 625 -69 q 671 -142 671 -111 q 648 -193 671 -172 q 594 -214 625 -214 q 540 -193 564 -214 q 517 -142 517 -172 z "},"Ờ":{"ha":1190,"x_min":82,"x_max":1108,"o":"m 828 957 q 1031 769 954 892 q 1108 501 1108 646 q 1039 244 1108 363 q 851 58 969 126 q 594 -11 732 -11 q 338 57 456 -11 q 151 242 219 125 q 82 501 82 360 q 151 757 82 639 q 338 945 221 875 q 594 1015 456 1015 q 694 1006 639 1015 l 694 1007 q 777 1033 753 1007 q 808 1132 801 1060 l 906 1132 q 878 1021 897 1063 q 828 957 860 979 m 597 119 q 785 170 700 119 q 920 309 871 221 q 969 501 969 397 q 919 694 969 606 q 783 835 869 783 q 594 886 697 886 q 406 834 492 886 q 270 693 319 782 q 221 500 221 604 q 271 310 221 397 q 408 171 321 222 q 597 119 494 119 m 557 1254 l 657 1068 l 575 1068 l 413 1254 l 557 1254 z "},"Ở":{"ha":1190,"x_min":82,"x_max":1108,"o":"m 828 957 q 1031 769 954 892 q 1108 501 1108 646 q 1039 244 1108 363 q 851 58 969 126 q 594 -11 732 -11 q 338 57 456 -11 q 151 242 219 125 q 82 501 82 360 q 151 757 82 639 q 338 945 221 875 q 594 1015 456 1015 q 694 1006 639 1015 l 694 1007 q 777 1033 753 1007 q 808 1132 801 1060 l 906 1132 q 878 1021 897 1063 q 828 957 860 979 m 597 119 q 785 170 700 119 q 920 309 871 221 q 969 501 969 397 q 919 694 969 606 q 783 835 869 783 q 594 886 697 886 q 406 834 492 886 q 270 693 319 782 q 221 500 221 604 q 271 310 221 397 q 408 171 321 222 q 597 119 494 119 m 588 1107 q 635 1149 621 1132 q 650 1190 650 1167 q 638 1226 650 1213 q 604 1239 626 1239 q 568 1228 583 1239 q 540 1196 553 1218 l 490 1228 q 547 1292 514 1271 q 621 1314 581 1314 q 699 1283 671 1314 q 726 1206 726 1253 q 699 1129 726 1161 q 621 1065 671 1097 l 588 1107 z "},"Ỡ":{"ha":1190,"x_min":82,"x_max":1108,"o":"m 828 957 q 1031 769 954 892 q 1108 501 1108 646 q 1039 244 1108 363 q 851 58 969 126 q 594 -11 732 -11 q 338 57 456 -11 q 151 242 219 125 q 82 501 82 360 q 151 757 82 639 q 338 945 221 875 q 594 1015 456 1015 q 694 1006 639 1015 l 694 1007 q 777 1033 753 1007 q 808 1132 801 1060 l 906 1132 q 878 1021 897 1063 q 828 957 860 979 m 597 119 q 785 170 700 119 q 920 309 871 221 q 969 501 969 397 q 919 694 969 606 q 783 835 869 783 q 594 886 697 886 q 406 834 492 886 q 270 693 319 782 q 221 500 221 604 q 271 310 221 397 q 408 171 321 222 q 597 119 494 119 m 706 1107 q 640 1122 665 1107 q 578 1169 615 1138 q 540 1200 556 1190 q 507 1210 525 1210 q 465 1182 481 1210 q 451 1107 450 1154 l 379 1107 q 411 1244 374 1189 q 514 1300 449 1300 q 572 1284 546 1300 q 626 1239 597 1268 q 669 1203 653 1214 q 703 1192 685 1192 q 753 1300 753 1192 l 825 1300 q 826 1269 826 1289 q 792 1151 826 1196 q 706 1107 757 1107 z "},"Ő":{"ha":1190,"x_min":82,"x_max":1108,"o":"m 82 501 q 151 757 82 639 q 338 945 221 875 q 594 1015 456 1015 q 850 945 732 1015 q 1038 757 968 875 q 1108 501 1108 639 q 1039 244 1108 363 q 851 58 969 126 q 594 -11 732 -11 q 338 57 456 -11 q 151 242 219 125 q 82 501 82 360 m 221 500 q 271 310 221 397 q 408 171 321 222 q 597 119 494 119 q 785 170 700 119 q 920 309 871 221 q 969 501 969 397 q 919 694 969 606 q 783 835 869 783 q 594 886 697 886 q 406 834 492 886 q 270 693 319 782 q 221 500 221 604 m 500 1075 l 417 1075 l 532 1261 l 676 1261 l 500 1075 m 708 1072 l 625 1072 l 740 1258 l 885 1258 l 708 1072 z "},"Ȏ":{"ha":1190,"x_min":82,"x_max":1108,"o":"m 82 501 q 151 757 82 639 q 338 945 221 875 q 594 1015 456 1015 q 850 945 732 1015 q 1038 757 968 875 q 1108 501 1108 639 q 1039 244 1108 363 q 851 58 969 126 q 594 -11 732 -11 q 338 57 456 -11 q 151 242 219 125 q 82 501 82 360 m 221 500 q 271 310 221 397 q 408 171 321 222 q 597 119 494 119 q 785 170 700 119 q 920 309 871 221 q 969 501 969 397 q 919 694 969 606 q 783 835 869 783 q 594 886 697 886 q 406 834 492 886 q 270 693 319 782 q 221 500 221 604 m 590 1276 q 732 1213 678 1276 q 801 1032 786 1150 l 713 1032 q 673 1145 704 1103 q 590 1188 642 1188 q 509 1145 539 1188 q 471 1032 479 1103 l 382 1032 q 450 1214 396 1151 q 590 1276 504 1276 z "},"Ō":{"ha":1190,"x_min":82,"x_max":1108,"o":"m 82 501 q 151 757 82 639 q 338 945 221 875 q 594 1015 456 1015 q 850 945 732 1015 q 1038 757 968 875 q 1108 501 1108 639 q 1039 244 1108 363 q 851 58 969 126 q 594 -11 732 -11 q 338 57 456 -11 q 151 242 219 125 q 82 501 82 360 m 221 500 q 271 310 221 397 q 408 171 321 222 q 597 119 494 119 q 785 170 700 119 q 920 309 871 221 q 969 501 969 397 q 919 694 969 606 q 783 835 869 783 q 594 886 697 886 q 406 834 492 886 q 270 693 319 782 q 221 500 221 604 m 764 1164 l 764 1071 l 422 1071 l 422 1164 l 764 1164 z "},"Ǫ":{"ha":1190,"x_min":82,"x_max":1108,"o":"m 594 1015 q 850 945 732 1015 q 1038 757 968 875 q 1108 501 1108 639 q 1054 261 1108 360 q 913 90 1000 163 q 850 42 883 65 q 808 14 817 19 q 710 -63 740 -32 q 679 -136 679 -94 q 698 -188 679 -171 q 746 -206 717 -206 q 840 -140 799 -206 l 889 -206 q 822 -272 865 -246 q 733 -299 778 -299 q 617 -260 663 -299 q 571 -157 571 -222 q 599 -70 571 -110 q 675 -4 628 -31 q 594 -11 631 -11 q 338 57 456 -11 q 151 242 219 125 q 82 501 82 360 q 151 757 82 639 q 338 945 221 875 q 594 1015 456 1015 m 599 119 q 785 171 700 119 q 920 310 871 222 q 969 501 969 397 q 919 692 969 604 q 783 831 869 779 q 594 882 697 882 q 406 830 492 882 q 270 690 319 778 q 221 500 221 603 q 272 310 221 397 q 408 171 322 222 q 599 119 494 119 z "},"Ø":{"ha":1192,"x_min":82,"x_max":1108,"o":"m 963 857 q 1070 694 1032 786 q 1108 501 1108 601 q 1039 244 1108 363 q 851 58 969 126 q 594 -11 732 -11 q 300 81 431 -11 l 214 -21 l 129 57 l 214 156 q 117 314 151 225 q 82 501 82 403 q 151 757 82 639 q 338 945 221 875 q 594 1015 456 1015 q 875 929 747 1015 l 963 1032 l 1046 954 l 963 857 m 221 500 q 242 372 221 433 q 304 261 264 311 l 790 831 q 594 886 699 886 q 406 834 492 886 q 270 693 319 782 q 221 500 221 604 m 597 119 q 785 170 700 119 q 920 309 871 221 q 969 501 969 397 q 945 639 969 574 q 876 756 921 704 l 388 183 q 597 119 482 119 z "},"Ǿ":{"ha":1192,"x_min":82,"x_max":1108,"o":"m 963 857 q 1070 694 1032 786 q 1108 501 1108 601 q 1039 244 1108 363 q 851 58 969 126 q 594 -11 732 -11 q 300 81 431 -11 l 214 -21 l 129 57 l 214 156 q 117 314 151 225 q 82 501 82 403 q 151 757 82 639 q 338 945 221 875 q 594 1015 456 1015 q 875 929 747 1015 l 963 1032 l 1046 954 l 963 857 m 221 500 q 242 372 221 433 q 304 261 264 311 l 790 831 q 594 886 699 886 q 406 834 492 886 q 270 693 319 782 q 221 500 221 604 m 597 119 q 785 170 700 119 q 920 309 871 221 q 969 501 969 397 q 945 639 969 574 q 876 756 921 704 l 388 183 q 597 119 482 119 m 635 1050 l 551 1050 l 667 1236 l 811 1236 l 635 1050 z "},"Õ":{"ha":1190,"x_min":82,"x_max":1108,"o":"m 82 501 q 151 757 82 639 q 338 945 221 875 q 594 1015 456 1015 q 850 945 732 1015 q 1038 757 968 875 q 1108 501 1108 639 q 1039 244 1108 363 q 851 58 969 126 q 594 -11 732 -11 q 338 57 456 -11 q 151 242 219 125 q 82 501 82 360 m 221 500 q 271 310 221 397 q 408 171 321 222 q 597 119 494 119 q 785 170 700 119 q 920 309 871 221 q 969 501 969 397 q 919 694 969 606 q 783 835 869 783 q 594 886 697 886 q 406 834 492 886 q 270 693 319 782 q 221 500 221 604 m 706 1107 q 640 1122 665 1107 q 578 1169 615 1138 q 540 1200 556 1190 q 507 1210 525 1210 q 465 1182 481 1210 q 451 1107 450 1154 l 379 1107 q 411 1244 374 1189 q 514 1300 449 1300 q 572 1284 546 1300 q 626 1239 597 1268 q 669 1203 653 1214 q 703 1192 685 1192 q 753 1300 753 1192 l 825 1300 q 826 1269 826 1289 q 792 1151 826 1196 q 706 1107 757 1107 z "},"Ȭ":{"ha":1190,"x_min":82,"x_max":1108,"o":"m 82 501 q 151 757 82 639 q 338 945 221 875 q 594 1015 456 1015 q 850 945 732 1015 q 1038 757 968 875 q 1108 501 1108 639 q 1039 244 1108 363 q 851 58 969 126 q 594 -11 732 -11 q 338 57 456 -11 q 151 242 219 125 q 82 501 82 360 m 221 500 q 271 310 221 397 q 408 171 321 222 q 597 119 494 119 q 785 170 700 119 q 920 309 871 221 q 969 501 969 397 q 919 694 969 606 q 783 835 869 783 q 594 886 697 886 q 406 834 492 886 q 270 693 319 782 q 221 500 221 604 m 706 1107 q 640 1122 665 1107 q 578 1169 615 1138 q 540 1200 556 1190 q 507 1210 525 1210 q 465 1182 481 1210 q 451 1107 450 1154 l 379 1107 q 411 1244 374 1189 q 514 1300 449 1300 q 572 1284 546 1300 q 626 1239 597 1268 q 669 1203 653 1214 q 703 1192 685 1192 q 753 1300 753 1192 l 825 1300 q 826 1269 826 1289 q 792 1151 826 1196 q 706 1107 757 1107 m 764 1472 l 764 1379 l 422 1379 l 422 1472 l 764 1472 z "},"Œ":{"ha":1411,"x_min":93,"x_max":1308,"o":"m 1308 0 l 708 0 q 604 -11 656 -11 q 348 58 465 -11 q 162 244 231 126 q 93 501 93 363 q 162 757 93 639 q 348 945 231 875 q 604 1015 465 1015 q 706 1004 654 1015 l 1289 1004 l 1289 879 l 817 879 l 817 568 l 1233 568 l 1233 440 l 817 440 l 817 129 l 1308 129 l 1308 0 m 232 500 q 283 310 232 397 q 420 171 333 222 q 610 119 507 119 q 678 126 640 119 l 678 875 q 606 882 639 882 q 418 831 504 882 q 282 692 332 779 q 232 500 232 604 z "},"P":{"ha":826,"x_min":144,"x_max":763,"o":"m 414 1004 q 670 922 578 1004 q 763 693 763 840 q 728 535 763 608 q 619 415 694 461 q 428 369 543 369 l 279 369 l 279 0 l 144 0 l 144 1004 l 414 1004 m 428 500 q 545 531 500 500 q 610 605 590 561 q 629 690 629 649 q 582 819 629 763 q 435 875 535 875 l 279 875 l 279 500 l 428 500 z "},"Þ":{"ha":826,"x_min":144,"x_max":763,"o":"m 439 814 q 676 733 590 814 q 763 503 763 653 q 731 344 763 418 q 626 225 699 271 q 438 179 553 179 l 283 179 l 283 0 l 144 0 l 144 997 l 283 997 l 283 814 l 439 814 m 425 310 q 574 367 525 310 q 624 500 624 424 q 573 631 624 578 q 426 685 522 685 l 283 685 l 283 310 l 425 310 z "},"Q":{"ha":1233,"x_min":82,"x_max":1151,"o":"m 1151 0 l 700 0 q 594 -11 647 -11 q 338 57 456 -11 q 151 242 219 125 q 82 501 82 360 q 151 757 82 639 q 338 945 221 875 q 594 1015 456 1015 q 850 945 732 1015 q 1038 757 968 875 q 1108 501 1108 639 q 1067 299 1108 394 q 950 132 1025 203 l 1151 132 l 1151 0 m 221 500 q 271 310 221 397 q 408 171 321 222 q 597 119 494 119 q 785 170 700 119 q 920 309 871 221 q 969 501 969 397 q 919 692 969 604 q 783 831 869 779 q 594 882 697 882 q 406 830 492 882 q 270 690 319 778 q 221 500 221 603 z "},"R":{"ha":917,"x_min":144,"x_max":854,"o":"m 697 0 l 461 371 q 428 369 450 369 l 279 369 l 279 0 l 144 0 l 144 1004 l 413 1004 q 596 968 515 1004 q 722 862 676 932 q 768 693 768 792 q 727 522 768 600 q 601 404 686 444 l 854 0 l 697 0 m 425 500 q 581 557 533 500 q 629 688 629 614 q 609 775 629 732 q 545 847 589 818 q 435 875 501 875 l 279 875 l 279 500 l 425 500 z "},"Ŕ":{"ha":917,"x_min":144,"x_max":854,"o":"m 697 0 l 461 371 q 428 369 450 369 l 279 369 l 279 0 l 144 0 l 144 1004 l 413 1004 q 596 968 515 1004 q 722 862 676 932 q 768 693 768 792 q 727 522 768 600 q 601 404 686 444 l 854 0 l 697 0 m 425 500 q 581 557 533 500 q 629 688 629 614 q 609 775 629 732 q 545 847 589 818 q 435 875 501 875 l 279 875 l 279 500 l 425 500 m 454 1068 l 371 1068 l 486 1254 l 631 1254 l 454 1068 z "},"Ř":{"ha":917,"x_min":144,"x_max":854,"o":"m 697 0 l 461 371 q 428 369 450 369 l 279 369 l 279 0 l 144 0 l 144 1004 l 413 1004 q 596 968 515 1004 q 722 862 676 932 q 768 693 768 792 q 727 522 768 600 q 601 404 686 444 l 854 0 l 697 0 m 425 500 q 581 557 533 500 q 629 688 629 614 q 609 775 629 732 q 545 847 589 818 q 435 875 501 875 l 279 875 l 279 500 l 425 500 m 644 1296 l 415 1058 l 414 1058 l 181 1296 l 301 1296 l 417 1176 l 525 1296 l 644 1296 z "},"Ŗ":{"ha":917,"x_min":144,"x_max":854,"o":"m 697 0 l 461 371 q 428 369 450 369 l 279 369 l 279 0 l 144 0 l 144 1004 l 413 1004 q 596 968 515 1004 q 722 862 676 932 q 768 693 768 792 q 727 522 768 600 q 601 404 686 444 l 854 0 l 697 0 m 425 500 q 581 557 533 500 q 629 688 629 614 q 609 775 629 732 q 545 847 589 818 q 435 875 501 875 l 279 875 l 279 500 l 425 500 m 338 -253 q 380 -191 365 -231 q 394 -107 394 -151 q 392 -68 394 -93 l 507 -68 q 510 -99 510 -87 q 482 -212 510 -156 q 404 -299 454 -269 l 338 -253 z "},"Ȑ":{"ha":917,"x_min":138,"x_max":854,"o":"m 697 0 l 461 371 q 428 369 450 369 l 279 369 l 279 0 l 144 0 l 144 1004 l 413 1004 q 596 968 515 1004 q 722 862 676 932 q 768 693 768 792 q 727 522 768 600 q 601 404 686 444 l 854 0 l 697 0 m 425 500 q 581 557 533 500 q 629 688 629 614 q 609 775 629 732 q 545 847 589 818 q 435 875 501 875 l 279 875 l 279 500 l 425 500 m 282 1276 l 382 1090 l 300 1090 l 138 1276 l 282 1276 m 479 1276 l 579 1090 l 497 1090 l 335 1276 l 479 1276 z "},"Ȓ":{"ha":917,"x_min":144,"x_max":854,"o":"m 697 0 l 461 371 q 428 369 450 369 l 279 369 l 279 0 l 144 0 l 144 1004 l 413 1004 q 596 968 515 1004 q 722 862 676 932 q 768 693 768 792 q 727 522 768 600 q 601 404 686 444 l 854 0 l 697 0 m 425 500 q 581 557 533 500 q 629 688 629 614 q 609 775 629 732 q 545 847 589 818 q 435 875 501 875 l 279 875 l 279 500 l 425 500 m 410 1286 q 551 1223 497 1286 q 621 1042 606 1160 l 532 1042 q 492 1155 524 1113 q 410 1197 461 1197 q 328 1155 358 1197 q 290 1042 299 1113 l 201 1042 q 269 1224 215 1161 q 410 1286 324 1286 z "},"S":{"ha":808,"x_min":68,"x_max":728,"o":"m 664 825 q 549 872 610 854 q 433 890 488 890 q 303 853 351 890 q 256 753 256 817 q 312 651 256 690 q 472 572 368 611 q 603 512 550 544 q 692 422 657 479 q 728 275 728 364 q 688 129 728 194 q 573 26 647 64 q 399 -11 499 -11 q 219 19 306 -11 q 68 94 133 49 l 128 201 q 251 135 179 163 q 386 108 324 108 q 527 150 467 108 q 588 274 588 192 q 537 384 588 343 q 394 461 486 425 q 253 524 310 493 q 157 608 197 554 q 117 742 117 661 q 199 933 117 860 q 414 1010 282 1006 q 715 929 576 1010 l 664 825 z "},"Ś":{"ha":808,"x_min":68,"x_max":728,"o":"m 664 825 q 549 872 610 854 q 433 890 488 890 q 303 853 351 890 q 256 753 256 817 q 312 651 256 690 q 472 572 368 611 q 603 512 550 544 q 692 422 657 479 q 728 275 728 364 q 688 129 728 194 q 573 26 647 64 q 399 -11 499 -11 q 219 19 306 -11 q 68 94 133 49 l 128 201 q 251 135 179 163 q 386 108 324 108 q 527 150 467 108 q 588 274 588 192 q 537 384 588 343 q 394 461 486 425 q 253 524 310 493 q 157 608 197 554 q 117 742 117 661 q 199 933 117 860 q 414 1010 282 1006 q 715 929 576 1010 l 664 825 m 442 1060 l 358 1060 l 474 1246 l 618 1246 l 442 1060 z "},"Š":{"ha":808,"x_min":68,"x_max":728,"o":"m 664 825 q 549 872 610 854 q 433 890 488 890 q 303 853 351 890 q 256 753 256 817 q 312 651 256 690 q 472 572 368 611 q 603 512 550 544 q 692 422 657 479 q 728 275 728 364 q 688 129 728 194 q 573 26 647 64 q 399 -11 499 -11 q 219 19 306 -11 q 68 94 133 49 l 128 201 q 251 135 179 163 q 386 108 324 108 q 527 150 467 108 q 588 274 588 192 q 537 384 588 343 q 394 461 486 425 q 253 524 310 493 q 157 608 197 554 q 117 742 117 661 q 199 933 117 860 q 414 1010 282 1006 q 715 929 576 1010 l 664 825 m 632 1288 l 403 1050 l 401 1050 l 168 1288 l 289 1288 l 404 1168 l 513 1288 l 632 1288 z "},"Ş":{"ha":808,"x_min":68,"x_max":728,"o":"m 728 275 q 658 90 728 167 q 467 -6 588 13 l 408 -75 q 419 -74 413 -74 q 542 -104 496 -72 q 588 -194 588 -136 q 533 -296 588 -261 q 396 -331 478 -331 q 249 -278 304 -331 l 290 -224 q 330 -250 306 -240 q 383 -260 354 -260 q 449 -243 421 -260 q 478 -197 478 -226 q 456 -153 478 -171 q 388 -135 435 -135 q 297 -151 344 -135 l 274 -89 l 358 -10 q 201 25 276 -4 q 68 94 126 54 l 128 201 q 251 135 179 163 q 386 108 324 108 q 527 150 467 108 q 588 274 588 192 q 537 384 588 343 q 394 461 486 425 q 253 524 310 493 q 157 608 197 554 q 117 742 117 661 q 199 933 117 860 q 414 1010 282 1006 q 715 929 576 1010 l 664 825 q 549 872 610 854 q 433 890 488 890 q 303 853 351 890 q 256 753 256 817 q 312 651 256 690 q 472 572 368 611 q 603 512 550 544 q 692 422 657 479 q 728 275 728 364 z "},"Ŝ":{"ha":808,"x_min":68,"x_max":728,"o":"m 664 825 q 549 872 610 854 q 433 890 488 890 q 303 853 351 890 q 256 753 256 817 q 312 651 256 690 q 472 572 368 611 q 603 512 550 544 q 692 422 657 479 q 728 275 728 364 q 688 129 728 194 q 573 26 647 64 q 399 -11 499 -11 q 219 19 306 -11 q 68 94 133 49 l 128 201 q 251 135 179 163 q 386 108 324 108 q 527 150 467 108 q 588 274 588 192 q 537 384 588 343 q 394 461 486 425 q 253 524 310 493 q 157 608 197 554 q 117 742 117 661 q 199 933 117 860 q 414 1010 282 1006 q 715 929 576 1010 l 664 825 m 508 1083 l 394 1203 l 286 1083 l 165 1083 l 394 1321 l 396 1321 l 629 1083 l 508 1083 z "},"Ș":{"ha":808,"x_min":68,"x_max":728,"o":"m 664 825 q 549 872 610 854 q 433 890 488 890 q 303 853 351 890 q 256 753 256 817 q 312 651 256 690 q 472 572 368 611 q 603 512 550 544 q 692 422 657 479 q 728 275 728 364 q 688 129 728 194 q 573 26 647 64 q 399 -11 499 -11 q 219 19 306 -11 q 68 94 133 49 l 128 201 q 251 135 179 163 q 386 108 324 108 q 527 150 467 108 q 588 274 588 192 q 537 384 588 343 q 394 461 486 425 q 253 524 310 493 q 157 608 197 554 q 117 742 117 661 q 199 933 117 860 q 414 1010 282 1006 q 715 929 576 1010 l 664 825 m 290 -262 q 333 -201 318 -240 q 347 -117 347 -161 q 344 -78 347 -103 l 460 -78 q 463 -108 463 -97 q 435 -222 463 -165 q 357 -308 407 -279 l 290 -262 z "},"ẞ":{"ha":1165,"x_min":144,"x_max":1089,"o":"m 863 529 q 983 456 942 485 q 1057 376 1025 426 q 1089 253 1089 326 q 1053 122 1089 182 q 951 25 1018 61 q 794 -11 885 -11 q 629 13 708 -11 q 483 81 550 38 l 543 188 q 660 131 594 153 q 785 108 725 108 q 897 146 846 108 q 949 253 949 183 q 927 317 949 289 q 881 360 906 344 q 786 417 856 376 q 622 532 685 468 q 558 689 558 596 q 600 835 558 775 q 721 921 642 896 q 583 944 653 944 q 360 844 440 944 q 281 540 281 744 l 281 0 l 144 0 l 144 546 q 193 812 144 697 q 337 990 242 926 q 568 1053 432 1053 q 791 1009 681 1053 q 953 908 901 965 l 915 808 q 861 838 885 831 l 861 836 l 860 838 q 819 843 835 843 q 729 806 765 843 q 693 714 693 769 q 716 639 693 671 q 769 586 739 607 q 863 529 800 565 z "},"Ə":{"ha":1104,"x_min":67,"x_max":1022,"o":"m 522 1015 q 783 949 669 1015 q 960 769 897 883 q 1022 515 1022 656 q 954 252 1022 371 q 771 65 886 133 q 519 -4 656 -4 q 228 103 346 -4 q 67 401 110 211 l 842 678 q 710 827 797 771 q 519 883 622 883 q 362 849 442 883 q 233 760 282 814 l 165 868 q 330 972 226 929 q 522 1015 433 1015 m 529 117 q 704 169 624 117 q 833 311 785 221 q 881 508 881 401 q 875 578 881 533 l 233 343 q 349 178 274 239 q 529 117 425 117 z "},"T":{"ha":808,"x_min":71,"x_max":738,"o":"m 738 1004 l 738 875 l 468 875 l 468 0 l 333 0 l 333 875 l 71 875 l 71 1004 l 738 1004 z "},"Ŧ":{"ha":808,"x_min":71,"x_max":738,"o":"m 468 875 l 468 561 l 594 561 l 594 439 l 468 439 l 468 0 l 333 0 l 333 439 l 208 439 l 208 561 l 333 561 l 333 875 l 71 875 l 71 1004 l 738 1004 l 738 875 l 468 875 z "},"Ť":{"ha":808,"x_min":71,"x_max":738,"o":"m 738 1004 l 738 875 l 468 875 l 468 0 l 333 0 l 333 875 l 71 875 l 71 1004 l 738 1004 m 633 1278 l 404 1040 l 403 1040 l 169 1278 l 290 1278 l 406 1158 l 514 1278 l 633 1278 z "},"Ţ":{"ha":808,"x_min":71,"x_max":738,"o":"m 468 875 l 468 7 l 471 7 l 468 4 l 468 0 l 465 0 l 410 -65 q 421 -64 414 -64 q 543 -94 497 -62 q 589 -185 589 -126 q 534 -286 589 -251 q 397 -321 479 -321 q 250 -268 306 -321 l 292 -214 q 331 -240 307 -231 q 385 -250 356 -250 q 451 -233 422 -250 q 479 -187 479 -217 q 458 -143 479 -161 q 389 -125 436 -125 q 299 -142 346 -125 l 275 -79 l 360 0 l 333 0 l 333 875 l 71 875 l 71 1004 l 738 1004 l 738 875 l 468 875 z "},"Ț":{"ha":808,"x_min":71,"x_max":738,"o":"m 738 1004 l 738 875 l 468 875 l 468 0 l 333 0 l 333 875 l 71 875 l 71 1004 l 738 1004 m 292 -253 q 334 -191 319 -231 q 349 -107 349 -151 q 346 -68 349 -93 l 461 -68 q 464 -99 464 -87 q 436 -212 464 -156 q 358 -299 408 -269 l 292 -253 z "},"U":{"ha":1017,"x_min":132,"x_max":885,"o":"m 267 356 q 299 235 267 289 q 385 151 331 182 q 507 119 440 119 q 633 150 576 119 q 721 235 689 181 q 753 356 753 289 l 753 1004 l 885 1004 l 885 351 q 835 162 885 244 q 699 34 785 79 q 507 -11 613 -11 q 317 34 403 -11 q 181 162 231 79 q 132 351 132 244 l 132 1004 l 267 1004 l 267 356 z "},"Ú":{"ha":1017,"x_min":132,"x_max":885,"o":"m 267 356 q 299 235 267 289 q 385 151 331 182 q 507 119 440 119 q 633 150 576 119 q 721 235 689 181 q 753 356 753 289 l 753 1004 l 885 1004 l 885 351 q 835 162 885 244 q 699 34 785 79 q 507 -11 613 -11 q 317 34 403 -11 q 181 162 231 79 q 132 351 132 244 l 132 1004 l 267 1004 l 267 356 m 547 1068 l 464 1068 l 579 1254 l 724 1254 l 547 1068 z "},"Ŭ":{"ha":1017,"x_min":132,"x_max":885,"o":"m 267 356 q 299 235 267 289 q 385 151 331 182 q 507 119 440 119 q 633 150 576 119 q 721 235 689 181 q 753 356 753 289 l 753 1004 l 885 1004 l 885 351 q 835 162 885 244 q 699 34 785 79 q 507 -11 613 -11 q 317 34 403 -11 q 181 162 231 79 q 132 351 132 244 l 132 1004 l 267 1004 l 267 356 m 511 1075 q 369 1138 424 1075 q 300 1319 315 1201 l 389 1319 q 428 1206 397 1249 q 511 1164 460 1164 q 592 1206 563 1164 q 631 1319 622 1249 l 719 1319 q 651 1138 706 1200 q 511 1075 597 1075 z "},"Ǔ":{"ha":1017,"x_min":132,"x_max":885,"o":"m 267 356 q 299 235 267 289 q 385 151 331 182 q 507 119 440 119 q 633 150 576 119 q 721 235 689 181 q 753 356 753 289 l 753 1004 l 885 1004 l 885 351 q 835 162 885 244 q 699 34 785 79 q 507 -11 613 -11 q 317 34 403 -11 q 181 162 231 79 q 132 351 132 244 l 132 1004 l 267 1004 l 267 356 m 738 1296 l 508 1058 l 507 1058 l 274 1296 l 394 1296 l 510 1176 l 618 1296 l 738 1296 z "},"Û":{"ha":1017,"x_min":132,"x_max":885,"o":"m 267 356 q 299 235 267 289 q 385 151 331 182 q 507 119 440 119 q 633 150 576 119 q 721 235 689 181 q 753 356 753 289 l 753 1004 l 885 1004 l 885 351 q 835 162 885 244 q 699 34 785 79 q 507 -11 613 -11 q 317 34 403 -11 q 181 162 231 79 q 132 351 132 244 l 132 1004 l 267 1004 l 267 356 m 614 1092 l 500 1211 l 392 1092 l 271 1092 l 500 1329 l 501 1329 l 735 1092 l 614 1092 z "},"Ȕ":{"ha":1017,"x_min":132,"x_max":885,"o":"m 267 356 q 299 235 267 289 q 385 151 331 182 q 507 119 440 119 q 633 150 576 119 q 721 235 689 181 q 753 356 753 289 l 753 1004 l 885 1004 l 885 351 q 835 162 885 244 q 699 34 785 79 q 507 -11 613 -11 q 317 34 403 -11 q 181 162 231 79 q 132 351 132 244 l 132 1004 l 267 1004 l 267 356 m 375 1276 l 475 1090 l 393 1090 l 231 1276 l 375 1276 m 572 1276 l 672 1090 l 590 1090 l 428 1276 l 572 1276 z "},"Ü":{"ha":1017,"x_min":132,"x_max":885,"o":"m 267 356 q 299 235 267 289 q 385 151 331 182 q 507 119 440 119 q 633 150 576 119 q 721 235 689 181 q 753 356 753 289 l 753 1004 l 885 1004 l 885 351 q 835 162 885 244 q 699 34 785 79 q 507 -11 613 -11 q 317 34 403 -11 q 181 162 231 79 q 132 351 132 244 l 132 1004 l 267 1004 l 267 356 m 300 1151 q 322 1203 300 1182 q 374 1225 344 1225 q 424 1203 401 1225 q 446 1151 446 1182 q 424 1099 446 1121 q 374 1078 401 1078 q 322 1099 344 1078 q 300 1151 300 1119 m 560 1151 q 582 1203 560 1182 q 633 1225 604 1225 q 683 1203 661 1225 q 706 1151 706 1182 q 683 1099 706 1121 q 633 1078 661 1078 q 582 1099 604 1078 q 560 1151 560 1119 z "},"Ụ":{"ha":1017,"x_min":132,"x_max":885,"o":"m 267 356 q 299 235 267 289 q 385 151 331 182 q 507 119 440 119 q 633 150 576 119 q 721 235 689 181 q 753 356 753 289 l 753 1004 l 885 1004 l 885 351 q 835 162 885 244 q 699 34 785 79 q 507 -11 613 -11 q 317 34 403 -11 q 181 162 231 79 q 132 351 132 244 l 132 1004 l 267 1004 l 267 356 m 429 -142 q 453 -90 429 -111 q 507 -69 476 -69 q 560 -90 538 -69 q 583 -142 583 -111 q 560 -193 583 -172 q 507 -214 538 -214 q 453 -193 476 -214 q 429 -142 429 -172 z "},"Ù":{"ha":1017,"x_min":132,"x_max":885,"o":"m 267 356 q 299 235 267 289 q 385 151 331 182 q 507 119 440 119 q 633 150 576 119 q 721 235 689 181 q 753 356 753 289 l 753 1004 l 885 1004 l 885 351 q 835 162 885 244 q 699 34 785 79 q 507 -11 613 -11 q 317 34 403 -11 q 181 162 231 79 q 132 351 132 244 l 132 1004 l 267 1004 l 267 356 m 443 1264 l 543 1078 l 461 1078 l 299 1264 l 443 1264 z "},"Ủ":{"ha":1017,"x_min":132,"x_max":885,"o":"m 267 356 q 299 235 267 289 q 385 151 331 182 q 507 119 440 119 q 633 150 576 119 q 721 235 689 181 q 753 356 753 289 l 753 1004 l 885 1004 l 885 351 q 835 162 885 244 q 699 34 785 79 q 507 -11 613 -11 q 317 34 403 -11 q 181 162 231 79 q 132 351 132 244 l 132 1004 l 267 1004 l 267 356 m 500 1117 q 548 1159 533 1142 q 563 1200 563 1176 q 551 1235 563 1222 q 517 1249 539 1249 q 481 1238 496 1249 q 453 1206 465 1228 l 403 1238 q 460 1302 426 1281 q 533 1324 493 1324 q 611 1293 583 1324 q 639 1215 639 1263 q 611 1139 639 1171 q 533 1075 583 1107 l 500 1117 z "},"Ư":{"ha":1040,"x_min":132,"x_max":1071,"o":"m 1071 1068 q 1013 910 1058 954 q 885 863 968 867 l 885 351 q 835 162 885 244 q 699 34 785 79 q 507 -11 613 -11 q 317 34 403 -11 q 181 162 231 79 q 132 351 132 244 l 132 1004 l 267 1004 l 267 356 q 299 235 267 289 q 385 151 331 182 q 507 119 440 119 q 633 150 576 119 q 721 235 689 181 q 753 356 753 289 l 753 1004 l 885 1004 l 885 944 q 947 977 928 950 q 974 1068 967 1004 l 1071 1068 z "},"Ứ":{"ha":1040,"x_min":132,"x_max":1071,"o":"m 1071 1068 q 1013 910 1058 954 q 885 863 968 867 l 885 351 q 835 162 885 244 q 699 34 785 79 q 507 -11 613 -11 q 317 34 403 -11 q 181 162 231 79 q 132 351 132 244 l 132 1004 l 267 1004 l 267 356 q 299 235 267 289 q 385 151 331 182 q 507 119 440 119 q 633 150 576 119 q 721 235 689 181 q 753 356 753 289 l 753 1004 l 885 1004 l 885 944 q 947 977 928 950 q 974 1068 967 1004 l 1071 1068 m 547 1068 l 464 1068 l 579 1254 l 724 1254 l 547 1068 z "},"Ự":{"ha":1040,"x_min":132,"x_max":1071,"o":"m 1071 1068 q 1013 910 1058 954 q 885 863 968 867 l 885 351 q 835 162 885 244 q 699 34 785 79 q 507 -11 613 -11 q 317 34 403 -11 q 181 162 231 79 q 132 351 132 244 l 132 1004 l 267 1004 l 267 356 q 299 235 267 289 q 385 151 331 182 q 507 119 440 119 q 633 150 576 119 q 721 235 689 181 q 753 356 753 289 l 753 1004 l 885 1004 l 885 944 q 947 977 928 950 q 974 1068 967 1004 l 1071 1068 m 429 -142 q 453 -90 429 -111 q 507 -69 476 -69 q 560 -90 538 -69 q 583 -142 583 -111 q 560 -193 583 -172 q 507 -214 538 -214 q 453 -193 476 -214 q 429 -142 429 -172 z "},"Ừ":{"ha":1040,"x_min":132,"x_max":1071,"o":"m 1071 1068 q 1013 910 1058 954 q 885 863 968 867 l 885 351 q 835 162 885 244 q 699 34 785 79 q 507 -11 613 -11 q 317 34 403 -11 q 181 162 231 79 q 132 351 132 244 l 132 1004 l 267 1004 l 267 356 q 299 235 267 289 q 385 151 331 182 q 507 119 440 119 q 633 150 576 119 q 721 235 689 181 q 753 356 753 289 l 753 1004 l 885 1004 l 885 944 q 947 977 928 950 q 974 1068 967 1004 l 1071 1068 m 443 1264 l 543 1078 l 461 1078 l 299 1264 l 443 1264 z "},"Ử":{"ha":1040,"x_min":132,"x_max":1071,"o":"m 1071 1068 q 1013 910 1058 954 q 885 863 968 867 l 885 351 q 835 162 885 244 q 699 34 785 79 q 507 -11 613 -11 q 317 34 403 -11 q 181 162 231 79 q 132 351 132 244 l 132 1004 l 267 1004 l 267 356 q 299 235 267 289 q 385 151 331 182 q 507 119 440 119 q 633 150 576 119 q 721 235 689 181 q 753 356 753 289 l 753 1004 l 885 1004 l 885 944 q 947 977 928 950 q 974 1068 967 1004 l 1071 1068 m 500 1117 q 548 1159 533 1142 q 563 1200 563 1176 q 551 1235 563 1222 q 517 1249 539 1249 q 481 1238 496 1249 q 453 1206 465 1228 l 403 1238 q 460 1302 426 1281 q 533 1324 493 1324 q 611 1293 583 1324 q 639 1215 639 1263 q 611 1139 639 1171 q 533 1075 583 1107 l 500 1117 z "},"Ữ":{"ha":1040,"x_min":132,"x_max":1071,"o":"m 1071 1068 q 1013 910 1058 954 q 885 863 968 867 l 885 351 q 835 162 885 244 q 699 34 785 79 q 507 -11 613 -11 q 317 34 403 -11 q 181 162 231 79 q 132 351 132 244 l 132 1004 l 267 1004 l 267 356 q 299 235 267 289 q 385 151 331 182 q 507 119 440 119 q 633 150 576 119 q 721 235 689 181 q 753 356 753 289 l 753 1004 l 885 1004 l 885 944 q 947 977 928 950 q 974 1068 967 1004 l 1071 1068 m 618 1117 q 553 1132 578 1117 q 490 1179 528 1147 q 453 1210 468 1200 q 419 1219 438 1219 q 378 1192 393 1219 q 364 1117 363 1164 l 292 1117 q 324 1254 286 1199 q 426 1310 361 1310 q 484 1294 458 1310 q 539 1249 510 1278 q 581 1213 565 1224 q 615 1201 597 1201 q 665 1310 665 1201 l 738 1310 q 739 1279 739 1299 q 704 1161 739 1206 q 618 1117 669 1117 z "},"Ű":{"ha":1017,"x_min":132,"x_max":885,"o":"m 267 356 q 299 235 267 289 q 385 151 331 182 q 507 119 440 119 q 633 150 576 119 q 721 235 689 181 q 753 356 753 289 l 753 1004 l 885 1004 l 885 351 q 835 162 885 244 q 699 34 785 79 q 507 -11 613 -11 q 317 34 403 -11 q 181 162 231 79 q 132 351 132 244 l 132 1004 l 267 1004 l 267 356 m 413 1085 l 329 1085 l 444 1271 l 589 1271 l 413 1085 m 621 1082 l 538 1082 l 653 1268 l 797 1268 l 621 1082 z "},"Ȗ":{"ha":1017,"x_min":132,"x_max":885,"o":"m 267 356 q 299 235 267 289 q 385 151 331 182 q 507 119 440 119 q 633 150 576 119 q 721 235 689 181 q 753 356 753 289 l 753 1004 l 885 1004 l 885 351 q 835 162 885 244 q 699 34 785 79 q 507 -11 613 -11 q 317 34 403 -11 q 181 162 231 79 q 132 351 132 244 l 132 1004 l 267 1004 l 267 356 m 503 1286 q 644 1223 590 1286 q 714 1042 699 1160 l 625 1042 q 585 1155 617 1113 q 503 1197 554 1197 q 422 1155 451 1197 q 383 1042 392 1113 l 294 1042 q 363 1224 308 1161 q 503 1286 417 1286 z "},"Ū":{"ha":1017,"x_min":132,"x_max":885,"o":"m 267 356 q 299 235 267 289 q 385 151 331 182 q 507 119 440 119 q 633 150 576 119 q 721 235 689 181 q 753 356 753 289 l 753 1004 l 885 1004 l 885 351 q 835 162 885 244 q 699 34 785 79 q 507 -11 613 -11 q 317 34 403 -11 q 181 162 231 79 q 132 351 132 244 l 132 1004 l 267 1004 l 267 356 m 676 1174 l 676 1081 l 335 1081 l 335 1174 l 676 1174 z "},"Ų":{"ha":1017,"x_min":132,"x_max":885,"o":"m 717 38 q 626 -49 657 -8 q 596 -137 596 -90 q 615 -189 596 -172 q 663 -206 635 -206 q 757 -140 715 -206 l 807 -206 q 738 -272 782 -246 q 651 -299 694 -299 q 535 -256 582 -299 q 488 -147 488 -214 q 506 -73 488 -110 q 560 -8 525 -36 q 507 -11 526 -11 q 311 34 396 -11 q 179 161 226 79 q 132 351 132 243 l 132 1004 l 267 1004 l 267 356 q 299 235 267 289 q 385 151 331 182 q 507 119 440 119 q 633 150 576 119 q 721 235 689 181 q 753 356 753 289 l 753 1004 l 885 1004 l 885 344 q 839 169 885 240 q 717 38 793 97 z "},"Ů":{"ha":1017,"x_min":132,"x_max":885,"o":"m 267 356 q 299 235 267 289 q 385 151 331 182 q 507 119 440 119 q 633 150 576 119 q 721 235 689 181 q 753 356 753 289 l 753 1004 l 885 1004 l 885 351 q 835 162 885 244 q 699 34 785 79 q 507 -11 613 -11 q 317 34 403 -11 q 181 162 231 79 q 132 351 132 244 l 132 1004 l 267 1004 l 267 356 m 382 1201 q 419 1291 382 1257 q 513 1325 456 1325 q 605 1290 568 1325 q 642 1201 642 1256 q 605 1112 642 1147 q 513 1076 568 1076 q 419 1111 456 1076 q 382 1201 382 1146 m 453 1199 q 469 1155 453 1172 q 513 1138 486 1138 q 554 1155 538 1138 q 571 1199 571 1172 q 554 1244 571 1228 q 513 1261 538 1261 q 469 1244 486 1261 q 453 1199 453 1228 z "},"Ũ":{"ha":1017,"x_min":132,"x_max":885,"o":"m 267 356 q 299 235 267 289 q 385 151 331 182 q 507 119 440 119 q 633 150 576 119 q 721 235 689 181 q 753 356 753 289 l 753 1004 l 885 1004 l 885 351 q 835 162 885 244 q 699 34 785 79 q 507 -11 613 -11 q 317 34 403 -11 q 181 162 231 79 q 132 351 132 244 l 132 1004 l 267 1004 l 267 356 m 618 1117 q 553 1132 578 1117 q 490 1179 528 1147 q 453 1210 468 1200 q 419 1219 438 1219 q 378 1192 393 1219 q 364 1117 363 1164 l 292 1117 q 324 1254 286 1199 q 426 1310 361 1310 q 484 1294 458 1310 q 539 1249 510 1278 q 581 1213 565 1224 q 615 1201 597 1201 q 665 1310 665 1201 l 738 1310 q 739 1279 739 1299 q 704 1161 739 1206 q 618 1117 669 1117 z "},"V":{"ha":999,"x_min":57,"x_max":943,"o":"m 943 1004 l 500 -47 l 57 1004 l 217 1004 l 506 281 l 785 1004 l 943 1004 z "},"W":{"ha":1400,"x_min":57,"x_max":1344,"o":"m 949 -44 l 714 556 l 457 -47 l 57 1000 l 214 1000 l 474 269 l 647 725 l 540 1000 l 674 1000 l 953 285 l 1200 1000 l 1344 1000 l 949 -44 z "},"Ẃ":{"ha":1400,"x_min":57,"x_max":1344,"o":"m 949 -44 l 714 556 l 457 -47 l 57 1000 l 214 1000 l 474 269 l 647 725 l 540 1000 l 674 1000 l 953 285 l 1200 1000 l 1344 1000 l 949 -44 m 740 1058 l 657 1058 l 772 1244 l 917 1244 l 740 1058 z "},"Ŵ":{"ha":1400,"x_min":57,"x_max":1344,"o":"m 949 -44 l 714 556 l 457 -47 l 57 1000 l 214 1000 l 474 269 l 647 725 l 540 1000 l 674 1000 l 953 285 l 1200 1000 l 1344 1000 l 949 -44 m 807 1082 l 693 1201 l 585 1082 l 464 1082 l 693 1319 l 694 1319 l 928 1082 l 807 1082 z "},"Ẅ":{"ha":1400,"x_min":57,"x_max":1344,"o":"m 949 -44 l 714 556 l 457 -47 l 57 1000 l 214 1000 l 474 269 l 647 725 l 540 1000 l 674 1000 l 953 285 l 1200 1000 l 1344 1000 l 949 -44 m 493 1142 q 515 1194 493 1172 q 567 1215 538 1215 q 617 1194 594 1215 q 639 1142 639 1172 q 617 1090 639 1111 q 567 1068 594 1068 q 515 1089 538 1068 q 493 1142 493 1110 m 753 1142 q 775 1194 753 1172 q 826 1215 797 1215 q 876 1194 854 1215 q 899 1142 899 1172 q 876 1090 899 1111 q 826 1068 854 1068 q 775 1089 797 1068 q 753 1142 753 1110 z "},"Ẁ":{"ha":1400,"x_min":57,"x_max":1344,"o":"m 949 -44 l 714 556 l 457 -47 l 57 1000 l 214 1000 l 474 269 l 647 725 l 540 1000 l 674 1000 l 953 285 l 1200 1000 l 1344 1000 l 949 -44 m 636 1254 l 736 1068 l 654 1068 l 492 1254 l 636 1254 z "},"X":{"ha":935,"x_min":47,"x_max":886,"o":"m 714 0 l 453 401 l 214 0 l 47 0 l 378 518 l 61 1004 l 232 1004 l 482 621 l 710 1004 l 872 1004 l 554 508 l 886 0 l 714 0 z "},"Y":{"ha":961,"x_min":39,"x_max":922,"o":"m 922 1004 l 546 335 l 546 0 l 411 0 l 411 335 l 39 1004 l 206 1004 l 482 488 l 757 1004 l 922 1004 z "},"Ý":{"ha":961,"x_min":39,"x_max":922,"o":"m 922 1004 l 546 335 l 546 0 l 411 0 l 411 335 l 39 1004 l 206 1004 l 482 488 l 757 1004 l 922 1004 m 538 1064 l 454 1064 l 569 1250 l 714 1250 l 538 1064 z "},"Ŷ":{"ha":961,"x_min":39,"x_max":922,"o":"m 922 1004 l 546 335 l 546 0 l 411 0 l 411 335 l 39 1004 l 206 1004 l 482 488 l 757 1004 l 922 1004 m 604 1088 l 490 1207 l 382 1088 l 261 1088 l 490 1325 l 492 1325 l 725 1088 l 604 1088 z "},"Ÿ":{"ha":961,"x_min":39,"x_max":922,"o":"m 922 1004 l 546 335 l 546 0 l 411 0 l 411 335 l 39 1004 l 206 1004 l 482 488 l 757 1004 l 922 1004 m 290 1147 q 313 1199 290 1178 q 364 1221 335 1221 q 414 1199 392 1221 q 436 1147 436 1178 q 414 1095 436 1117 q 364 1074 392 1074 q 313 1094 335 1074 q 290 1147 290 1115 m 550 1147 q 572 1199 550 1178 q 624 1221 594 1221 q 674 1199 651 1221 q 696 1147 696 1178 q 674 1095 696 1117 q 624 1074 651 1074 q 572 1094 594 1074 q 550 1147 550 1115 z "},"Ỵ":{"ha":961,"x_min":39,"x_max":922,"o":"m 922 1004 l 546 335 l 546 0 l 411 0 l 411 335 l 39 1004 l 206 1004 l 482 488 l 757 1004 l 922 1004 m 401 -142 q 425 -90 401 -111 q 479 -69 449 -69 q 533 -90 510 -69 q 556 -142 556 -111 q 533 -193 556 -172 q 479 -214 510 -214 q 425 -193 449 -214 q 401 -142 401 -172 z "},"Ỳ":{"ha":961,"x_min":39,"x_max":922,"o":"m 922 1004 l 546 335 l 546 0 l 411 0 l 411 335 l 39 1004 l 206 1004 l 482 488 l 757 1004 l 922 1004 m 433 1260 l 533 1074 l 451 1074 l 289 1260 l 433 1260 z "},"Ỷ":{"ha":961,"x_min":39,"x_max":922,"o":"m 922 1004 l 546 335 l 546 0 l 411 0 l 411 335 l 39 1004 l 206 1004 l 482 488 l 757 1004 l 922 1004 m 490 1113 q 538 1155 524 1138 q 553 1196 553 1172 q 541 1231 553 1218 q 507 1244 529 1244 q 471 1234 486 1244 q 443 1201 456 1224 l 393 1233 q 450 1298 417 1276 q 524 1319 483 1319 q 601 1289 574 1319 q 629 1211 629 1258 q 601 1135 629 1167 q 524 1071 574 1103 l 490 1113 z "},"Ȳ":{"ha":961,"x_min":39,"x_max":922,"o":"m 922 1004 l 546 335 l 546 0 l 411 0 l 411 335 l 39 1004 l 206 1004 l 482 488 l 757 1004 l 922 1004 m 667 1169 l 667 1076 l 325 1076 l 325 1169 l 667 1169 z "},"Ỹ":{"ha":961,"x_min":39,"x_max":922,"o":"m 922 1004 l 546 335 l 546 0 l 411 0 l 411 335 l 39 1004 l 206 1004 l 482 488 l 757 1004 l 922 1004 m 608 1113 q 543 1128 568 1113 q 481 1175 518 1143 q 443 1206 458 1196 q 410 1215 428 1215 q 368 1188 383 1215 q 354 1113 353 1160 l 282 1113 q 314 1250 276 1194 q 417 1306 351 1306 q 474 1290 449 1306 q 529 1244 500 1274 q 572 1208 556 1219 q 606 1197 588 1197 q 656 1306 656 1197 l 728 1306 q 729 1275 729 1294 q 694 1157 729 1201 q 608 1113 660 1113 z "},"Z":{"ha":990,"x_min":71,"x_max":914,"o":"m 914 131 l 914 0 l 71 0 l 307 351 q 660 875 590 776 l 242 875 q 163 898 197 875 q 128 960 128 921 l 128 1054 l 253 1054 l 253 1036 q 261 1009 253 1014 q 297 1004 269 1004 l 899 1004 l 303 131 l 914 131 z "},"Ź":{"ha":990,"x_min":71,"x_max":914,"o":"m 914 131 l 914 0 l 71 0 l 307 351 q 660 875 590 776 l 242 875 q 163 898 197 875 q 128 960 128 921 l 128 1054 l 253 1054 l 253 1036 q 261 1009 253 1014 q 297 1004 269 1004 l 899 1004 l 303 131 l 914 131 m 533 1050 l 450 1050 l 565 1236 l 710 1236 l 533 1050 z "},"Ž":{"ha":990,"x_min":71,"x_max":914,"o":"m 914 131 l 914 0 l 71 0 l 307 351 q 660 875 590 776 l 242 875 q 163 898 197 875 q 128 960 128 921 l 128 1054 l 253 1054 l 253 1036 q 261 1009 253 1014 q 297 1004 269 1004 l 899 1004 l 303 131 l 914 131 m 724 1278 l 494 1040 l 493 1040 l 260 1278 l 381 1278 l 496 1158 l 604 1278 l 724 1278 z "},"Ż":{"ha":990,"x_min":71,"x_max":914,"o":"m 914 131 l 914 0 l 71 0 l 307 351 q 660 875 590 776 l 242 875 q 163 898 197 875 q 128 960 128 921 l 128 1054 l 253 1054 l 253 1036 q 261 1009 253 1014 q 297 1004 269 1004 l 899 1004 l 303 131 l 914 131 m 418 1131 q 442 1182 418 1161 q 496 1203 465 1203 q 549 1182 526 1203 q 572 1131 572 1161 q 549 1079 572 1100 q 496 1058 526 1058 q 442 1079 465 1058 q 418 1131 418 1100 z "},"a":{"ha":815,"x_min":63,"x_max":703,"o":"m 703 575 l 703 0 l 574 0 l 574 94 q 485 20 543 54 q 353 -14 426 -14 q 205 22 271 -14 q 101 125 139 57 q 63 288 63 193 q 102 452 63 382 q 209 560 142 522 q 358 599 276 599 q 486 567 432 599 q 574 483 540 535 l 583 575 l 703 575 m 388 93 q 509 133 458 93 q 574 240 560 172 l 574 354 q 504 453 557 415 q 383 492 451 492 q 288 467 332 492 q 219 397 244 442 q 193 294 193 351 q 219 193 193 239 q 290 120 246 147 q 388 93 335 93 z "},"á":{"ha":815,"x_min":63,"x_max":703,"o":"m 703 575 l 703 0 l 574 0 l 574 94 q 485 20 543 54 q 353 -14 426 -14 q 205 22 271 -14 q 101 125 139 57 q 63 288 63 193 q 102 452 63 382 q 209 560 142 522 q 358 599 276 599 q 486 567 432 599 q 574 483 540 535 l 583 575 l 703 575 m 388 93 q 509 133 458 93 q 574 240 560 172 l 574 354 q 504 453 557 415 q 383 492 451 492 q 288 467 332 492 q 219 397 244 442 q 193 294 193 351 q 219 193 193 239 q 290 120 246 147 q 388 93 335 93 m 469 683 l 386 683 l 501 869 l 646 869 l 469 683 z "},"ă":{"ha":815,"x_min":63,"x_max":703,"o":"m 703 575 l 703 0 l 574 0 l 574 94 q 485 20 543 54 q 353 -14 426 -14 q 205 22 271 -14 q 101 125 139 57 q 63 288 63 193 q 102 452 63 382 q 209 560 142 522 q 358 599 276 599 q 486 567 432 599 q 574 483 540 535 l 583 575 l 703 575 m 388 93 q 509 133 458 93 q 574 240 560 172 l 574 354 q 504 453 557 415 q 383 492 451 492 q 288 467 332 492 q 219 397 244 442 q 193 294 193 351 q 219 193 193 239 q 290 120 246 147 q 388 93 335 93 m 426 665 q 285 728 339 665 q 215 910 231 792 l 304 910 q 344 797 313 839 q 426 754 375 754 q 508 797 478 754 q 546 910 538 839 l 635 910 q 567 728 621 790 q 426 665 513 665 z "},"ắ":{"ha":815,"x_min":63,"x_max":703,"o":"m 703 575 l 703 0 l 574 0 l 574 94 q 485 20 543 54 q 353 -14 426 -14 q 205 22 271 -14 q 101 125 139 57 q 63 288 63 193 q 102 452 63 382 q 209 560 142 522 q 358 599 276 599 q 486 567 432 599 q 574 483 540 535 l 583 575 l 703 575 m 388 93 q 509 133 458 93 q 574 240 560 172 l 574 354 q 504 453 557 415 q 383 492 451 492 q 288 467 332 492 q 219 397 244 442 q 193 294 193 351 q 219 193 193 239 q 290 120 246 147 q 388 93 335 93 m 426 665 q 285 728 339 665 q 215 910 231 792 l 304 910 q 344 797 313 839 q 426 754 375 754 q 508 797 478 754 q 546 910 538 839 l 635 910 q 567 728 621 790 q 426 665 513 665 m 453 939 l 369 939 l 485 1125 l 629 1125 l 453 939 z "},"ặ":{"ha":815,"x_min":63,"x_max":703,"o":"m 703 575 l 703 0 l 574 0 l 574 94 q 485 20 543 54 q 353 -14 426 -14 q 205 22 271 -14 q 101 125 139 57 q 63 288 63 193 q 102 452 63 382 q 209 560 142 522 q 358 599 276 599 q 486 567 432 599 q 574 483 540 535 l 583 575 l 703 575 m 388 93 q 509 133 458 93 q 574 240 560 172 l 574 354 q 504 453 557 415 q 383 492 451 492 q 288 467 332 492 q 219 397 244 442 q 193 294 193 351 q 219 193 193 239 q 290 120 246 147 q 388 93 335 93 m 340 -140 q 362 -95 340 -114 q 410 -76 383 -76 q 457 -95 436 -76 q 478 -140 478 -114 q 458 -186 478 -168 q 410 -204 438 -204 q 361 -186 382 -204 q 340 -140 340 -168 m 426 665 q 285 728 339 665 q 215 910 231 792 l 304 910 q 344 797 313 839 q 426 754 375 754 q 508 797 478 754 q 546 910 538 839 l 635 910 q 567 728 621 790 q 426 665 513 665 z "},"ằ":{"ha":815,"x_min":63,"x_max":703,"o":"m 703 575 l 703 0 l 574 0 l 574 94 q 485 20 543 54 q 353 -14 426 -14 q 205 22 271 -14 q 101 125 139 57 q 63 288 63 193 q 102 452 63 382 q 209 560 142 522 q 358 599 276 599 q 486 567 432 599 q 574 483 540 535 l 583 575 l 703 575 m 388 93 q 509 133 458 93 q 574 240 560 172 l 574 354 q 504 453 557 415 q 383 492 451 492 q 288 467 332 492 q 219 397 244 442 q 193 294 193 351 q 219 193 193 239 q 290 120 246 147 q 388 93 335 93 m 426 665 q 285 728 339 665 q 215 910 231 792 l 304 910 q 344 797 313 839 q 426 754 375 754 q 508 797 478 754 q 546 910 538 839 l 635 910 q 567 728 621 790 q 426 665 513 665 m 369 1122 l 469 936 l 388 936 l 225 1122 l 369 1122 z "},"ẳ":{"ha":815,"x_min":63,"x_max":703,"o":"m 703 575 l 703 0 l 574 0 l 574 94 q 485 20 543 54 q 353 -14 426 -14 q 205 22 271 -14 q 101 125 139 57 q 63 288 63 193 q 102 452 63 382 q 209 560 142 522 q 358 599 276 599 q 486 567 432 599 q 574 483 540 535 l 583 575 l 703 575 m 388 93 q 509 133 458 93 q 574 240 560 172 l 574 354 q 504 453 557 415 q 383 492 451 492 q 288 467 332 492 q 219 397 244 442 q 193 294 193 351 q 219 193 193 239 q 290 120 246 147 q 388 93 335 93 m 426 665 q 285 728 339 665 q 215 910 231 792 l 304 910 q 344 797 313 839 q 426 754 375 754 q 508 797 478 754 q 546 910 538 839 l 635 910 q 567 728 621 790 q 426 665 513 665 m 417 956 q 465 998 450 981 q 479 1039 479 1015 q 467 1074 479 1061 q 433 1088 456 1088 q 397 1077 413 1088 q 369 1044 382 1067 l 319 1076 q 376 1141 343 1119 q 450 1163 410 1163 q 528 1132 500 1163 q 556 1054 556 1101 q 528 978 556 1010 q 450 914 500 946 l 417 956 z "},"ẵ":{"ha":815,"x_min":63,"x_max":703,"o":"m 703 575 l 703 0 l 574 0 l 574 94 q 485 20 543 54 q 353 -14 426 -14 q 205 22 271 -14 q 101 125 139 57 q 63 288 63 193 q 102 452 63 382 q 209 560 142 522 q 358 599 276 599 q 486 567 432 599 q 574 483 540 535 l 583 575 l 703 575 m 388 93 q 509 133 458 93 q 574 240 560 172 l 574 354 q 504 453 557 415 q 383 492 451 492 q 288 467 332 492 q 219 397 244 442 q 193 294 193 351 q 219 193 193 239 q 290 120 246 147 q 388 93 335 93 m 426 665 q 285 728 339 665 q 215 910 231 792 l 304 910 q 344 797 313 839 q 426 754 375 754 q 508 797 478 754 q 546 910 538 839 l 635 910 q 567 728 621 790 q 426 665 513 665 m 547 958 q 482 974 507 958 q 419 1021 457 989 q 382 1051 397 1042 q 349 1061 367 1061 q 307 1033 322 1061 q 293 958 292 1006 l 221 958 q 253 1096 215 1040 q 356 1151 290 1151 q 413 1135 388 1151 q 468 1090 439 1119 q 510 1054 494 1065 q 544 1043 526 1043 q 594 1151 594 1043 l 667 1151 q 668 1121 668 1140 q 633 1003 668 1047 q 547 958 599 958 z "},"â":{"ha":815,"x_min":63,"x_max":703,"o":"m 703 575 l 703 0 l 574 0 l 574 94 q 485 20 543 54 q 353 -14 426 -14 q 205 22 271 -14 q 101 125 139 57 q 63 288 63 193 q 102 452 63 382 q 209 560 142 522 q 358 599 276 599 q 486 567 432 599 q 574 483 540 535 l 583 575 l 703 575 m 388 93 q 509 133 458 93 q 574 240 560 172 l 574 354 q 504 453 557 415 q 383 492 451 492 q 288 467 332 492 q 219 397 244 442 q 193 294 193 351 q 219 193 193 239 q 290 120 246 147 q 388 93 335 93 m 536 693 l 422 813 l 314 693 l 193 693 l 422 931 l 424 931 l 657 693 l 536 693 z "},"ấ":{"ha":815,"x_min":63,"x_max":868,"o":"m 703 575 l 703 0 l 574 0 l 574 94 q 485 20 543 54 q 353 -14 426 -14 q 205 22 271 -14 q 101 125 139 57 q 63 288 63 193 q 102 452 63 382 q 209 560 142 522 q 358 599 276 599 q 486 567 432 599 q 574 483 540 535 l 583 575 l 703 575 m 388 93 q 509 133 458 93 q 574 240 560 172 l 574 354 q 504 453 557 415 q 383 492 451 492 q 288 467 332 492 q 219 397 244 442 q 193 294 193 351 q 219 193 193 239 q 290 120 246 147 q 388 93 335 93 m 539 686 l 425 806 l 317 686 l 196 686 l 425 924 l 426 924 l 660 686 l 539 686 m 692 822 l 608 822 l 724 1008 l 868 1008 l 692 822 z "},"ậ":{"ha":815,"x_min":63,"x_max":703,"o":"m 703 575 l 703 0 l 574 0 l 574 94 q 485 20 543 54 q 353 -14 426 -14 q 205 22 271 -14 q 101 125 139 57 q 63 288 63 193 q 102 452 63 382 q 209 560 142 522 q 358 599 276 599 q 486 567 432 599 q 574 483 540 535 l 583 575 l 703 575 m 388 93 q 509 133 458 93 q 574 240 560 172 l 574 354 q 504 453 557 415 q 383 492 451 492 q 288 467 332 492 q 219 397 244 442 q 193 294 193 351 q 219 193 193 239 q 290 120 246 147 q 388 93 335 93 m 340 -140 q 362 -95 340 -114 q 410 -76 383 -76 q 457 -95 436 -76 q 478 -140 478 -114 q 458 -186 478 -168 q 410 -204 438 -204 q 361 -186 382 -204 q 340 -140 340 -168 m 536 693 l 422 813 l 314 693 l 193 693 l 422 931 l 424 931 l 657 693 l 536 693 z "},"ầ":{"ha":815,"x_min":0,"x_max":703,"o":"m 703 575 l 703 0 l 574 0 l 574 94 q 485 20 543 54 q 353 -14 426 -14 q 205 22 271 -14 q 101 125 139 57 q 63 288 63 193 q 102 452 63 382 q 209 560 142 522 q 358 599 276 599 q 486 567 432 599 q 574 483 540 535 l 583 575 l 703 575 m 388 93 q 509 133 458 93 q 574 240 560 172 l 574 354 q 504 453 557 415 q 383 492 451 492 q 288 467 332 492 q 219 397 244 442 q 193 294 193 351 q 219 193 193 239 q 290 120 246 147 q 388 93 335 93 m 529 682 l 415 801 l 307 682 l 186 682 l 415 919 l 417 919 l 650 682 l 529 682 m 144 1017 l 244 831 l 163 831 l 0 1017 l 144 1017 z "},"ẩ":{"ha":815,"x_min":63,"x_max":776,"o":"m 703 575 l 703 0 l 574 0 l 574 94 q 485 20 543 54 q 353 -14 426 -14 q 205 22 271 -14 q 101 125 139 57 q 63 288 63 193 q 102 452 63 382 q 209 560 142 522 q 358 599 276 599 q 486 567 432 599 q 574 483 540 535 l 583 575 l 703 575 m 388 93 q 509 133 458 93 q 574 240 560 172 l 574 354 q 504 453 557 415 q 383 492 451 492 q 288 467 332 492 q 219 397 244 442 q 193 294 193 351 q 219 193 193 239 q 290 120 246 147 q 388 93 335 93 m 533 686 l 419 806 l 311 686 l 190 686 l 419 924 l 421 924 l 654 686 l 533 686 m 638 832 q 685 874 671 857 q 700 915 700 892 q 688 951 700 938 q 654 964 676 964 q 618 953 633 964 q 590 921 603 943 l 540 953 q 597 1017 564 996 q 671 1039 631 1039 q 749 1008 721 1039 q 776 931 776 978 q 749 854 776 886 q 671 790 721 822 l 638 832 z "},"ẫ":{"ha":815,"x_min":63,"x_max":703,"o":"m 703 575 l 703 0 l 574 0 l 574 94 q 485 20 543 54 q 353 -14 426 -14 q 205 22 271 -14 q 101 125 139 57 q 63 288 63 193 q 102 452 63 382 q 209 560 142 522 q 358 599 276 599 q 486 567 432 599 q 574 483 540 535 l 583 575 l 703 575 m 388 93 q 509 133 458 93 q 574 240 560 172 l 574 354 q 504 453 557 415 q 383 492 451 492 q 288 467 332 492 q 219 397 244 442 q 193 294 193 351 q 219 193 193 239 q 290 120 246 147 q 388 93 335 93 m 529 676 l 415 796 l 307 676 l 186 676 l 415 914 l 417 914 l 650 676 l 529 676 m 528 978 q 463 993 488 978 q 400 1040 438 1008 q 363 1071 378 1061 q 329 1081 347 1081 q 288 1053 303 1081 q 274 978 272 1025 l 201 978 q 233 1115 196 1060 q 336 1171 271 1171 q 394 1155 368 1171 q 449 1110 419 1139 q 491 1074 475 1085 q 525 1063 507 1063 q 575 1171 575 1063 l 647 1171 q 649 1140 649 1160 q 614 1022 649 1067 q 528 978 579 978 z "},"ȁ":{"ha":815,"x_min":63,"x_max":703,"o":"m 703 575 l 703 0 l 574 0 l 574 94 q 485 20 543 54 q 353 -14 426 -14 q 205 22 271 -14 q 101 125 139 57 q 63 288 63 193 q 102 452 63 382 q 209 560 142 522 q 358 599 276 599 q 486 567 432 599 q 574 483 540 535 l 583 575 l 703 575 m 388 93 q 509 133 458 93 q 574 240 560 172 l 574 354 q 504 453 557 415 q 383 492 451 492 q 288 467 332 492 q 219 397 244 442 q 193 294 193 351 q 219 193 193 239 q 290 120 246 147 q 388 93 335 93 m 279 879 l 379 693 l 297 693 l 135 879 l 279 879 m 476 879 l 576 693 l 494 693 l 332 879 l 476 879 z "},"ä":{"ha":815,"x_min":63,"x_max":703,"o":"m 703 575 l 703 0 l 574 0 l 574 94 q 485 20 543 54 q 353 -14 426 -14 q 205 22 271 -14 q 101 125 139 57 q 63 288 63 193 q 102 452 63 382 q 209 560 142 522 q 358 599 276 599 q 486 567 432 599 q 574 483 540 535 l 583 575 l 703 575 m 388 93 q 509 133 458 93 q 574 240 560 172 l 574 354 q 504 453 557 415 q 383 492 451 492 q 288 467 332 492 q 219 397 244 442 q 193 294 193 351 q 219 193 193 239 q 290 120 246 147 q 388 93 335 93 m 221 750 q 243 802 221 781 q 294 824 265 824 q 344 802 322 824 q 367 750 367 781 q 344 698 367 719 q 294 676 322 676 q 243 697 265 676 q 221 750 221 718 m 481 750 q 503 802 481 781 q 554 824 525 824 q 604 802 582 824 q 626 750 626 781 q 604 698 626 719 q 554 676 582 676 q 503 697 525 676 q 481 750 481 718 z "},"ạ":{"ha":815,"x_min":63,"x_max":703,"o":"m 703 575 l 703 0 l 574 0 l 574 94 q 485 20 543 54 q 353 -14 426 -14 q 205 22 271 -14 q 101 125 139 57 q 63 288 63 193 q 102 452 63 382 q 209 560 142 522 q 358 599 276 599 q 486 567 432 599 q 574 483 540 535 l 583 575 l 703 575 m 388 93 q 509 133 458 93 q 574 240 560 172 l 574 354 q 504 453 557 415 q 383 492 451 492 q 288 467 332 492 q 219 397 244 442 q 193 294 193 351 q 219 193 193 239 q 290 120 246 147 q 388 93 335 93 m 340 -140 q 362 -95 340 -114 q 410 -76 383 -76 q 457 -95 436 -76 q 478 -140 478 -114 q 458 -186 478 -168 q 410 -204 438 -204 q 361 -186 382 -204 q 340 -140 340 -168 z "},"à":{"ha":815,"x_min":63,"x_max":703,"o":"m 703 575 l 703 0 l 574 0 l 574 94 q 485 20 543 54 q 353 -14 426 -14 q 205 22 271 -14 q 101 125 139 57 q 63 288 63 193 q 102 452 63 382 q 209 560 142 522 q 358 599 276 599 q 486 567 432 599 q 574 483 540 535 l 583 575 l 703 575 m 388 93 q 509 133 458 93 q 574 240 560 172 l 574 354 q 504 453 557 415 q 383 492 451 492 q 288 467 332 492 q 219 397 244 442 q 193 294 193 351 q 219 193 193 239 q 290 120 246 147 q 388 93 335 93 m 368 879 l 468 693 l 386 693 l 224 879 l 368 879 z "},"ả":{"ha":815,"x_min":63,"x_max":703,"o":"m 703 575 l 703 0 l 574 0 l 574 94 q 485 20 543 54 q 353 -14 426 -14 q 205 22 271 -14 q 101 125 139 57 q 63 288 63 193 q 102 452 63 382 q 209 560 142 522 q 358 599 276 599 q 486 567 432 599 q 574 483 540 535 l 583 575 l 703 575 m 388 93 q 509 133 458 93 q 574 240 560 172 l 574 354 q 504 453 557 415 q 383 492 451 492 q 288 467 332 492 q 219 397 244 442 q 193 294 193 351 q 219 193 193 239 q 290 120 246 147 q 388 93 335 93 m 397 700 q 445 742 431 725 q 460 783 460 760 q 448 819 460 806 q 414 832 436 832 q 378 822 393 832 q 350 789 363 811 l 300 821 q 357 885 324 864 q 431 907 390 907 q 508 876 481 907 q 536 799 536 846 q 508 722 536 754 q 431 658 481 690 l 397 700 z "},"ȃ":{"ha":815,"x_min":63,"x_max":703,"o":"m 703 575 l 703 0 l 574 0 l 574 94 q 485 20 543 54 q 353 -14 426 -14 q 205 22 271 -14 q 101 125 139 57 q 63 288 63 193 q 102 452 63 382 q 209 560 142 522 q 358 599 276 599 q 486 567 432 599 q 574 483 540 535 l 583 575 l 703 575 m 388 93 q 509 133 458 93 q 574 240 560 172 l 574 354 q 504 453 557 415 q 383 492 451 492 q 288 467 332 492 q 219 397 244 442 q 193 294 193 351 q 219 193 193 239 q 290 120 246 147 q 388 93 335 93 m 431 900 q 572 837 518 900 q 642 656 626 774 l 553 656 q 513 769 544 726 q 431 811 482 811 q 349 769 379 811 q 311 656 319 726 l 222 656 q 290 838 236 775 q 431 900 344 900 z "},"ā":{"ha":815,"x_min":63,"x_max":703,"o":"m 703 575 l 703 0 l 574 0 l 574 94 q 485 20 543 54 q 353 -14 426 -14 q 205 22 271 -14 q 101 125 139 57 q 63 288 63 193 q 102 452 63 382 q 209 560 142 522 q 358 599 276 599 q 486 567 432 599 q 574 483 540 535 l 583 575 l 703 575 m 388 93 q 509 133 458 93 q 574 240 560 172 l 574 354 q 504 453 557 415 q 383 492 451 492 q 288 467 332 492 q 219 397 244 442 q 193 294 193 351 q 219 193 193 239 q 290 120 246 147 q 388 93 335 93 m 597 774 l 597 681 l 256 681 l 256 774 l 597 774 z "},"ą":{"ha":821,"x_min":65,"x_max":778,"o":"m 778 -206 q 710 -272 754 -246 q 622 -299 665 -299 q 506 -256 553 -299 q 458 -147 458 -214 q 491 -57 458 -100 q 576 11 524 -14 l 576 103 q 485 21 542 56 q 351 -14 428 -14 q 206 22 271 -14 q 103 125 140 57 q 65 288 65 193 q 105 451 65 381 q 210 560 144 522 q 351 599 275 599 q 578 475 504 599 l 588 575 l 707 575 l 707 1 q 603 -65 639 -32 q 568 -137 568 -97 q 587 -189 568 -172 q 635 -206 606 -206 q 729 -140 688 -206 l 778 -206 m 386 93 q 510 133 460 93 q 576 240 561 172 l 576 354 q 508 453 560 415 q 386 492 456 492 q 292 467 335 492 q 223 397 249 442 q 197 294 197 351 q 223 193 197 239 q 292 120 249 147 q 386 93 335 93 z "},"å":{"ha":815,"x_min":63,"x_max":703,"o":"m 703 575 l 703 0 l 574 0 l 574 94 q 485 20 543 54 q 353 -14 426 -14 q 205 22 271 -14 q 101 125 139 57 q 63 288 63 193 q 102 452 63 382 q 209 560 142 522 q 358 599 276 599 q 486 567 432 599 q 574 483 540 535 l 583 575 l 703 575 m 388 93 q 509 133 458 93 q 574 240 560 172 l 574 354 q 504 453 557 415 q 383 492 451 492 q 288 467 332 492 q 219 397 244 442 q 193 294 193 351 q 219 193 193 239 q 290 120 246 147 q 388 93 335 93 m 283 771 q 320 860 283 826 q 414 894 357 894 q 506 860 469 894 q 543 771 543 825 q 506 681 543 717 q 414 646 469 646 q 320 681 357 646 q 283 771 283 715 m 354 768 q 371 724 354 742 q 414 707 388 707 q 456 724 439 707 q 472 768 472 742 q 456 814 472 797 q 414 831 439 831 q 371 814 388 831 q 354 768 354 797 z "},"ǻ":{"ha":815,"x_min":63,"x_max":703,"o":"m 703 575 l 703 0 l 574 0 l 574 94 q 485 20 543 54 q 353 -14 426 -14 q 205 22 271 -14 q 101 125 139 57 q 63 288 63 193 q 102 452 63 382 q 209 560 142 522 q 358 599 276 599 q 486 567 432 599 q 574 483 540 535 l 583 575 l 703 575 m 388 93 q 509 133 458 93 q 574 240 560 172 l 574 354 q 504 453 557 415 q 383 492 451 492 q 288 467 332 492 q 219 397 244 442 q 193 294 193 351 q 219 193 193 239 q 290 120 246 147 q 388 93 335 93 m 283 771 q 320 860 283 826 q 414 894 357 894 q 506 860 469 894 q 543 771 543 825 q 506 681 543 717 q 414 646 469 646 q 320 681 357 646 q 283 771 283 715 m 354 768 q 371 724 354 742 q 414 707 388 707 q 456 724 439 707 q 472 768 472 742 q 456 814 472 797 q 414 831 439 831 q 371 814 388 831 q 354 768 354 797 m 469 983 l 386 983 l 501 1169 l 646 1169 l 469 983 z "},"ã":{"ha":815,"x_min":63,"x_max":703,"o":"m 703 575 l 703 0 l 574 0 l 574 94 q 485 20 543 54 q 353 -14 426 -14 q 205 22 271 -14 q 101 125 139 57 q 63 288 63 193 q 102 452 63 382 q 209 560 142 522 q 358 599 276 599 q 486 567 432 599 q 574 483 540 535 l 583 575 l 703 575 m 388 93 q 509 133 458 93 q 574 240 560 172 l 574 354 q 504 453 557 415 q 383 492 451 492 q 288 467 332 492 q 219 397 244 442 q 193 294 193 351 q 219 193 193 239 q 290 120 246 147 q 388 93 335 93 m 536 657 q 471 672 496 657 q 408 719 446 688 q 371 750 386 740 q 338 760 356 760 q 296 732 311 760 q 282 657 281 704 l 210 657 q 242 794 204 739 q 344 850 279 850 q 402 834 376 850 q 457 789 428 818 q 499 753 483 764 q 533 742 515 742 q 583 850 583 742 l 656 850 q 657 819 657 839 q 622 701 657 746 q 536 657 588 657 z "},"æ":{"ha":1132,"x_min":63,"x_max":1083,"o":"m 792 97 q 932 147 864 97 l 992 51 q 892 3 946 21 q 789 -14 839 -14 q 642 15 707 -14 q 536 96 578 43 l 536 89 q 428 10 496 36 q 288 -15 360 -15 q 119 34 175 -15 q 63 163 63 83 q 131 293 63 244 q 296 342 200 342 q 389 330 343 342 q 471 297 435 318 l 471 365 q 431 462 471 433 q 342 490 390 490 q 165 400 240 490 l 99 483 q 358 597 207 597 q 483 575 429 597 q 567 510 536 553 q 668 575 610 551 q 792 599 726 599 q 980 533 904 599 q 1083 349 1056 467 l 628 189 q 695 122 653 146 q 792 97 738 97 m 782 496 q 651 440 703 496 q 600 299 600 385 q 601 267 600 278 l 936 390 q 877 467 915 438 q 782 496 839 496 m 324 76 q 408 97 363 76 q 479 146 454 117 l 479 201 q 407 242 443 229 q 326 254 371 254 q 240 233 274 254 q 206 167 206 211 q 236 101 206 125 q 324 76 267 76 z "},"ǽ":{"ha":1132,"x_min":63,"x_max":1083,"o":"m 792 97 q 932 147 864 97 l 992 51 q 892 3 946 21 q 789 -14 839 -14 q 642 15 707 -14 q 536 96 578 43 l 536 89 q 428 10 496 36 q 288 -15 360 -15 q 119 34 175 -15 q 63 163 63 83 q 131 293 63 244 q 296 342 200 342 q 389 330 343 342 q 471 297 435 318 l 471 365 q 431 462 471 433 q 342 490 390 490 q 165 400 240 490 l 99 483 q 358 597 207 597 q 483 575 429 597 q 567 510 536 553 q 668 575 610 551 q 792 599 726 599 q 980 533 904 599 q 1083 349 1056 467 l 628 189 q 695 122 653 146 q 792 97 738 97 m 782 496 q 651 440 703 496 q 600 299 600 385 q 601 267 600 278 l 936 390 q 877 467 915 438 q 782 496 839 496 m 324 76 q 408 97 363 76 q 479 146 454 117 l 479 201 q 407 242 443 229 q 326 254 371 254 q 240 233 274 254 q 206 167 206 211 q 236 101 206 125 q 324 76 267 76 m 608 664 l 525 664 l 640 850 l 785 850 l 608 664 z "},"b":{"ha":824,"x_min":113,"x_max":763,"o":"m 481 599 q 623 561 558 599 q 725 456 688 524 q 763 297 763 388 q 722 132 763 203 q 613 24 682 61 q 464 -14 544 -14 q 335 14 393 -14 q 242 89 278 42 l 242 0 l 113 0 l 113 1076 l 242 1076 l 242 499 q 341 572 278 544 q 481 599 404 599 m 436 97 q 576 154 521 97 q 631 297 631 211 q 605 398 631 353 q 535 469 579 443 q 436 496 490 496 q 312 458 365 496 q 242 357 258 419 l 242 240 q 311 138 258 178 q 436 97 364 97 z "},"c":{"ha":633,"x_min":63,"x_max":583,"o":"m 579 54 q 487 4 540 22 q 378 -14 433 -14 q 213 24 285 -14 q 102 130 142 61 q 63 289 63 199 q 104 447 63 378 q 215 553 146 515 q 365 590 285 590 q 583 518 497 590 l 518 433 q 454 469 490 454 q 376 483 418 483 q 283 458 325 483 q 216 388 240 432 q 192 289 192 343 q 217 190 192 235 q 288 119 243 146 q 389 93 332 93 q 513 135 460 93 l 579 54 z "},"ć":{"ha":633,"x_min":63,"x_max":583,"o":"m 579 54 q 487 4 540 22 q 378 -14 433 -14 q 213 24 285 -14 q 102 130 142 61 q 63 289 63 199 q 104 447 63 378 q 215 553 146 515 q 365 590 285 590 q 583 518 497 590 l 518 433 q 454 469 490 454 q 376 483 418 483 q 283 458 325 483 q 216 388 240 432 q 192 289 192 343 q 217 190 192 235 q 288 119 243 146 q 389 93 332 93 q 513 135 460 93 l 579 54 m 397 674 l 314 674 l 429 860 l 574 860 l 397 674 z "},"č":{"ha":633,"x_min":63,"x_max":593,"o":"m 579 54 q 487 4 540 22 q 378 -14 433 -14 q 213 24 285 -14 q 102 130 142 61 q 63 289 63 199 q 104 447 63 378 q 215 553 146 515 q 365 590 285 590 q 583 518 497 590 l 518 433 q 454 469 490 454 q 376 483 418 483 q 283 458 325 483 q 216 388 240 432 q 192 289 192 343 q 217 190 192 235 q 288 119 243 146 q 389 93 332 93 q 513 135 460 93 l 579 54 m 593 894 l 364 657 l 363 657 l 129 894 l 250 894 l 365 775 l 474 894 l 593 894 z "},"ç":{"ha":633,"x_min":63,"x_max":583,"o":"m 365 -14 l 324 -62 q 335 -61 328 -61 q 457 -92 411 -60 q 503 -182 503 -124 q 448 -283 503 -249 q 311 -318 393 -318 q 164 -265 219 -318 l 206 -211 q 245 -237 221 -228 q 299 -247 269 -247 q 365 -231 336 -247 q 393 -185 393 -214 q 372 -140 393 -158 q 303 -122 350 -122 q 213 -139 260 -122 l 189 -76 l 272 0 q 119 104 175 28 q 63 289 63 181 q 104 447 63 378 q 215 553 146 515 q 365 590 285 590 q 583 518 497 590 l 518 433 q 454 469 490 454 q 376 483 418 483 q 283 458 325 483 q 216 388 240 432 q 192 289 192 343 q 217 190 192 235 q 288 119 243 146 q 389 93 332 93 q 513 135 460 93 l 579 54 q 487 4 540 22 q 378 -14 433 -14 l 365 -14 z "},"ĉ":{"ha":633,"x_min":63,"x_max":585,"o":"m 579 54 q 487 4 540 22 q 378 -14 433 -14 q 213 24 285 -14 q 102 130 142 61 q 63 289 63 199 q 104 447 63 378 q 215 553 146 515 q 365 590 285 590 q 583 518 497 590 l 518 433 q 454 469 490 454 q 376 483 418 483 q 283 458 325 483 q 216 388 240 432 q 192 289 192 343 q 217 190 192 235 q 288 119 243 146 q 389 93 332 93 q 513 135 460 93 l 579 54 m 464 685 l 350 804 l 242 685 l 121 685 l 350 922 l 351 922 l 585 685 l 464 685 z "},"ċ":{"ha":633,"x_min":63,"x_max":583,"o":"m 579 54 q 487 4 540 22 q 378 -14 433 -14 q 213 24 285 -14 q 102 130 142 61 q 63 289 63 199 q 104 447 63 378 q 215 553 146 515 q 365 590 285 590 q 583 518 497 590 l 518 433 q 454 469 490 454 q 376 483 418 483 q 283 458 325 483 q 216 388 240 432 q 192 289 192 343 q 217 190 192 235 q 288 119 243 146 q 389 93 332 93 q 513 135 460 93 l 579 54 m 278 792 q 301 843 278 822 q 356 864 325 864 q 409 843 386 864 q 432 792 432 822 q 409 740 432 761 q 356 719 386 719 q 301 740 325 719 q 278 792 278 761 z "},"d":{"ha":824,"x_min":63,"x_max":713,"o":"m 713 1076 l 713 0 l 582 0 l 582 90 q 480 14 540 42 q 347 -14 419 -14 q 201 25 267 -14 q 99 134 136 64 q 63 296 63 204 q 101 458 63 389 q 208 563 140 526 q 363 599 276 599 q 488 572 428 599 q 583 497 549 544 l 583 1076 l 713 1076 m 388 97 q 515 138 463 97 q 582 246 567 178 l 582 354 q 511 456 565 417 q 388 496 457 496 q 290 470 335 496 q 219 399 246 444 q 193 297 193 354 q 219 196 193 242 q 290 124 246 150 q 388 97 335 97 z "},"ð":{"ha":757,"x_min":63,"x_max":696,"o":"m 493 876 q 641 617 586 757 q 696 343 696 476 q 656 168 696 250 q 541 36 615 86 q 367 -14 467 -14 q 213 24 282 -14 q 103 133 143 63 q 63 293 63 203 q 101 448 63 378 q 204 558 139 518 q 349 599 269 599 q 458 572 408 599 q 543 500 508 546 q 385 808 504 665 l 263 732 l 219 818 l 318 879 q 204 979 271 926 l 299 1064 q 431 950 372 1013 l 547 1022 l 590 938 l 493 876 m 378 93 q 511 150 458 93 q 564 292 564 207 q 511 434 564 376 q 378 492 458 492 q 283 465 325 492 q 217 392 242 438 q 193 292 193 346 q 217 192 193 238 q 284 119 242 146 q 378 93 326 93 z "},"ď":{"ha":961,"x_min":63,"x_max":969,"o":"m 713 1076 l 713 0 l 582 0 l 582 90 q 480 14 540 42 q 347 -14 419 -14 q 201 25 267 -14 q 99 134 136 64 q 63 296 63 204 q 101 458 63 389 q 208 563 140 526 q 363 599 276 599 q 488 572 428 599 q 583 497 549 544 l 583 1076 l 713 1076 m 388 97 q 515 138 463 97 q 582 246 567 178 l 582 354 q 511 456 565 417 q 388 496 457 496 q 290 470 335 496 q 219 399 246 444 q 193 297 193 354 q 219 196 193 242 q 290 124 246 150 q 388 97 335 97 m 808 879 q 849 942 833 904 q 865 1021 865 981 q 863 1053 865 1031 l 967 1063 q 969 1032 969 1043 q 942 926 969 979 q 874 846 914 874 l 808 879 z "},"đ":{"ha":824,"x_min":63,"x_max":833,"o":"m 833 819 l 713 819 l 713 0 l 582 0 l 582 90 q 480 14 540 42 q 347 -14 419 -14 q 201 25 267 -14 q 99 134 136 64 q 63 296 63 204 q 101 458 63 389 q 208 563 140 526 q 363 599 276 599 q 488 572 428 599 q 583 497 549 544 l 583 819 l 447 819 l 447 942 l 583 942 l 583 1076 l 713 1076 l 713 942 l 833 942 l 833 819 m 388 97 q 515 138 463 97 q 582 246 567 178 l 582 354 q 511 456 565 417 q 388 496 457 496 q 290 470 335 496 q 219 399 246 444 q 193 297 193 354 q 219 196 193 242 q 290 124 246 150 q 388 97 335 97 z "},"ǳ":{"ha":1467,"x_min":63,"x_max":1400,"o":"m 713 1076 l 713 0 l 582 0 l 582 90 q 480 14 540 42 q 347 -14 419 -14 q 201 25 267 -14 q 99 134 136 64 q 63 296 63 204 q 101 458 63 389 q 208 563 140 526 q 363 599 276 599 q 488 572 428 599 q 583 497 549 544 l 583 1076 l 713 1076 m 388 97 q 515 138 463 97 q 582 246 567 178 l 582 354 q 511 456 565 417 q 388 496 457 496 q 290 470 335 496 q 219 399 246 444 q 193 297 193 354 q 219 196 193 242 q 290 124 246 150 q 388 97 335 97 m 1074 107 l 1394 107 l 1394 0 l 863 0 l 1189 469 l 990 469 q 915 497 944 469 q 886 575 886 524 l 886 631 l 985 631 l 985 613 q 995 583 985 590 q 1032 575 1006 575 l 1400 575 l 1074 107 z "},"ǆ":{"ha":1467,"x_min":63,"x_max":1400,"o":"m 713 1076 l 713 0 l 582 0 l 582 90 q 480 14 540 42 q 347 -14 419 -14 q 201 25 267 -14 q 99 134 136 64 q 63 296 63 204 q 101 458 63 389 q 208 563 140 526 q 363 599 276 599 q 488 572 428 599 q 583 497 549 544 l 583 1076 l 713 1076 m 388 97 q 515 138 463 97 q 582 246 567 178 l 582 354 q 511 456 565 417 q 388 496 457 496 q 290 470 335 496 q 219 399 246 444 q 193 297 193 354 q 219 196 193 242 q 290 124 246 150 q 388 97 335 97 m 1074 107 l 1394 107 l 1394 0 l 863 0 l 1189 469 l 990 469 q 915 497 944 469 q 886 575 886 524 l 886 631 l 985 631 l 985 613 q 995 583 985 590 q 1032 575 1006 575 l 1400 575 l 1074 107 m 1390 885 l 1161 647 l 1160 647 l 926 885 l 1047 885 l 1163 765 l 1271 885 l 1390 885 z "},"e":{"ha":722,"x_min":63,"x_max":674,"o":"m 382 97 q 522 147 454 97 l 582 51 q 483 3 536 21 q 379 -14 429 -14 q 212 26 283 -14 q 101 135 140 65 q 63 292 63 204 q 105 447 63 376 q 221 558 147 517 q 382 599 294 599 q 570 533 494 599 q 674 349 646 467 l 218 189 q 285 122 243 146 q 382 97 328 97 m 372 496 q 242 440 293 496 q 190 299 190 385 q 192 267 190 278 l 526 390 q 467 467 506 438 q 372 496 429 496 z "},"é":{"ha":722,"x_min":63,"x_max":674,"o":"m 382 97 q 522 147 454 97 l 582 51 q 483 3 536 21 q 379 -14 429 -14 q 212 26 283 -14 q 101 135 140 65 q 63 292 63 204 q 105 447 63 376 q 221 558 147 517 q 382 599 294 599 q 570 533 494 599 q 674 349 646 467 l 218 189 q 285 122 243 146 q 382 97 328 97 m 372 496 q 242 440 293 496 q 190 299 190 385 q 192 267 190 278 l 526 390 q 467 467 506 438 q 372 496 429 496 m 418 685 l 335 685 l 450 871 l 594 871 l 418 685 z "},"ĕ":{"ha":722,"x_min":63,"x_max":674,"o":"m 382 97 q 522 147 454 97 l 582 51 q 483 3 536 21 q 379 -14 429 -14 q 212 26 283 -14 q 101 135 140 65 q 63 292 63 204 q 105 447 63 376 q 221 558 147 517 q 382 599 294 599 q 570 533 494 599 q 674 349 646 467 l 218 189 q 285 122 243 146 q 382 97 328 97 m 372 496 q 242 440 293 496 q 190 299 190 385 q 192 267 190 278 l 526 390 q 467 467 506 438 q 372 496 429 496 m 375 667 q 233 730 288 667 q 164 911 179 793 l 253 911 q 292 798 261 840 q 375 756 324 756 q 456 798 426 756 q 494 911 486 840 l 583 911 q 515 729 569 792 q 375 667 461 667 z "},"ě":{"ha":722,"x_min":63,"x_max":674,"o":"m 382 97 q 522 147 454 97 l 582 51 q 483 3 536 21 q 379 -14 429 -14 q 212 26 283 -14 q 101 135 140 65 q 63 292 63 204 q 105 447 63 376 q 221 558 147 517 q 382 599 294 599 q 570 533 494 599 q 674 349 646 467 l 218 189 q 285 122 243 146 q 382 97 328 97 m 372 496 q 242 440 293 496 q 190 299 190 385 q 192 267 190 278 l 526 390 q 467 467 506 438 q 372 496 429 496 m 614 904 l 385 667 l 383 667 l 150 904 l 271 904 l 386 785 l 494 904 l 614 904 z "},"ê":{"ha":722,"x_min":63,"x_max":674,"o":"m 382 97 q 522 147 454 97 l 582 51 q 483 3 536 21 q 379 -14 429 -14 q 212 26 283 -14 q 101 135 140 65 q 63 292 63 204 q 105 447 63 376 q 221 558 147 517 q 382 599 294 599 q 570 533 494 599 q 674 349 646 467 l 218 189 q 285 122 243 146 q 382 97 328 97 m 372 496 q 242 440 293 496 q 190 299 190 385 q 192 267 190 278 l 526 390 q 467 467 506 438 q 372 496 429 496 m 485 694 l 371 814 l 263 694 l 142 694 l 371 932 l 372 932 l 606 694 l 485 694 z "},"ế":{"ha":722,"x_min":63,"x_max":817,"o":"m 382 97 q 522 147 454 97 l 582 51 q 483 3 536 21 q 379 -14 429 -14 q 212 26 283 -14 q 101 135 140 65 q 63 292 63 204 q 105 447 63 376 q 221 558 147 517 q 382 599 294 599 q 570 533 494 599 q 674 349 646 467 l 218 189 q 285 122 243 146 q 382 97 328 97 m 372 496 q 242 440 293 496 q 190 299 190 385 q 192 267 190 278 l 526 390 q 467 467 506 438 q 372 496 429 496 m 488 688 l 374 807 l 265 688 l 144 688 l 374 925 l 375 925 l 608 688 l 488 688 m 640 824 l 557 824 l 672 1010 l 817 1010 l 640 824 z "},"ệ":{"ha":722,"x_min":63,"x_max":674,"o":"m 382 97 q 522 147 454 97 l 582 51 q 483 3 536 21 q 379 -14 429 -14 q 212 26 283 -14 q 101 135 140 65 q 63 292 63 204 q 105 447 63 376 q 221 558 147 517 q 382 599 294 599 q 570 533 494 599 q 674 349 646 467 l 218 189 q 285 122 243 146 q 382 97 328 97 m 372 496 q 242 440 293 496 q 190 299 190 385 q 192 267 190 278 l 526 390 q 467 467 506 438 q 372 496 429 496 m 294 -140 q 316 -95 294 -114 q 364 -76 338 -76 q 411 -95 390 -76 q 432 -140 432 -114 q 412 -186 432 -168 q 364 -204 392 -204 q 315 -186 336 -204 q 294 -140 294 -168 m 485 694 l 371 814 l 263 694 l 142 694 l 371 932 l 372 932 l 606 694 l 485 694 z "},"ề":{"ha":722,"x_min":-51,"x_max":674,"o":"m 382 97 q 522 147 454 97 l 582 51 q 483 3 536 21 q 379 -14 429 -14 q 212 26 283 -14 q 101 135 140 65 q 63 292 63 204 q 105 447 63 376 q 221 558 147 517 q 382 599 294 599 q 570 533 494 599 q 674 349 646 467 l 218 189 q 285 122 243 146 q 382 97 328 97 m 372 496 q 242 440 293 496 q 190 299 190 385 q 192 267 190 278 l 526 390 q 467 467 506 438 q 372 496 429 496 m 478 683 l 364 803 l 256 683 l 135 683 l 364 921 l 365 921 l 599 683 l 478 683 m 93 1018 l 193 832 l 111 832 l -51 1018 l 93 1018 z "},"ể":{"ha":722,"x_min":63,"x_max":725,"o":"m 382 97 q 522 147 454 97 l 582 51 q 483 3 536 21 q 379 -14 429 -14 q 212 26 283 -14 q 101 135 140 65 q 63 292 63 204 q 105 447 63 376 q 221 558 147 517 q 382 599 294 599 q 570 533 494 599 q 674 349 646 467 l 218 189 q 285 122 243 146 q 382 97 328 97 m 372 496 q 242 440 293 496 q 190 299 190 385 q 192 267 190 278 l 526 390 q 467 467 506 438 q 372 496 429 496 m 482 688 l 368 807 l 260 688 l 139 688 l 368 925 l 369 925 l 603 688 l 482 688 m 586 833 q 634 876 619 858 q 649 917 649 893 q 637 952 649 939 q 603 965 625 965 q 567 955 582 965 q 539 922 551 944 l 489 954 q 546 1019 513 997 q 619 1040 579 1040 q 697 1010 669 1040 q 725 932 725 979 q 697 856 725 888 q 619 792 669 824 l 586 833 z "},"ễ":{"ha":722,"x_min":63,"x_max":674,"o":"m 382 97 q 522 147 454 97 l 582 51 q 483 3 536 21 q 379 -14 429 -14 q 212 26 283 -14 q 101 135 140 65 q 63 292 63 204 q 105 447 63 376 q 221 558 147 517 q 382 599 294 599 q 570 533 494 599 q 674 349 646 467 l 218 189 q 285 122 243 146 q 382 97 328 97 m 372 496 q 242 440 293 496 q 190 299 190 385 q 192 267 190 278 l 526 390 q 467 467 506 438 q 372 496 429 496 m 478 678 l 364 797 l 256 678 l 135 678 l 364 915 l 365 915 l 599 678 l 478 678 m 476 979 q 411 994 436 979 q 349 1042 386 1010 q 311 1072 326 1063 q 278 1082 296 1082 q 236 1054 251 1082 q 222 979 221 1026 l 150 979 q 182 1117 144 1061 q 285 1172 219 1172 q 342 1156 317 1172 q 397 1111 368 1140 q 440 1075 424 1086 q 474 1064 456 1064 q 524 1172 524 1064 l 596 1172 q 597 1142 597 1161 q 563 1024 597 1068 q 476 979 528 979 z "},"ȅ":{"ha":722,"x_min":63,"x_max":674,"o":"m 382 97 q 522 147 454 97 l 582 51 q 483 3 536 21 q 379 -14 429 -14 q 212 26 283 -14 q 101 135 140 65 q 63 292 63 204 q 105 447 63 376 q 221 558 147 517 q 382 599 294 599 q 570 533 494 599 q 674 349 646 467 l 218 189 q 285 122 243 146 q 382 97 328 97 m 372 496 q 242 440 293 496 q 190 299 190 385 q 192 267 190 278 l 526 390 q 467 467 506 438 q 372 496 429 496 m 228 881 l 328 694 l 246 694 l 83 881 l 228 881 m 425 881 l 525 694 l 443 694 l 281 881 l 425 881 z "},"ë":{"ha":722,"x_min":63,"x_max":674,"o":"m 382 97 q 522 147 454 97 l 582 51 q 483 3 536 21 q 379 -14 429 -14 q 212 26 283 -14 q 101 135 140 65 q 63 292 63 204 q 105 447 63 376 q 221 558 147 517 q 382 599 294 599 q 570 533 494 599 q 674 349 646 467 l 218 189 q 285 122 243 146 q 382 97 328 97 m 372 496 q 242 440 293 496 q 190 299 190 385 q 192 267 190 278 l 526 390 q 467 467 506 438 q 372 496 429 496 m 169 751 q 192 803 169 782 q 243 825 214 825 q 293 803 271 825 q 315 751 315 782 q 293 699 315 721 q 243 678 271 678 q 192 699 214 678 q 169 751 169 719 m 429 751 q 451 803 429 782 q 503 825 474 825 q 553 803 531 825 q 575 751 575 782 q 553 699 575 721 q 503 678 531 678 q 451 699 474 678 q 429 751 429 719 z "},"ė":{"ha":722,"x_min":63,"x_max":674,"o":"m 382 97 q 522 147 454 97 l 582 51 q 483 3 536 21 q 379 -14 429 -14 q 212 26 283 -14 q 101 135 140 65 q 63 292 63 204 q 105 447 63 376 q 221 558 147 517 q 382 599 294 599 q 570 533 494 599 q 674 349 646 467 l 218 189 q 285 122 243 146 q 382 97 328 97 m 372 496 q 242 440 293 496 q 190 299 190 385 q 192 267 190 278 l 526 390 q 467 467 506 438 q 372 496 429 496 m 299 803 q 322 854 299 833 q 376 875 346 875 q 430 854 407 875 q 453 803 453 833 q 430 751 453 772 q 376 731 407 731 q 322 751 346 731 q 299 803 299 772 z "},"ẹ":{"ha":722,"x_min":63,"x_max":674,"o":"m 382 97 q 522 147 454 97 l 582 51 q 483 3 536 21 q 379 -14 429 -14 q 212 26 283 -14 q 101 135 140 65 q 63 292 63 204 q 105 447 63 376 q 221 558 147 517 q 382 599 294 599 q 570 533 494 599 q 674 349 646 467 l 218 189 q 285 122 243 146 q 382 97 328 97 m 372 496 q 242 440 293 496 q 190 299 190 385 q 192 267 190 278 l 526 390 q 467 467 506 438 q 372 496 429 496 m 294 -140 q 316 -95 294 -114 q 364 -76 338 -76 q 411 -95 390 -76 q 432 -140 432 -114 q 412 -186 432 -168 q 364 -204 392 -204 q 315 -186 336 -204 q 294 -140 294 -168 z "},"è":{"ha":722,"x_min":63,"x_max":674,"o":"m 382 97 q 522 147 454 97 l 582 51 q 483 3 536 21 q 379 -14 429 -14 q 212 26 283 -14 q 101 135 140 65 q 63 292 63 204 q 105 447 63 376 q 221 558 147 517 q 382 599 294 599 q 570 533 494 599 q 674 349 646 467 l 218 189 q 285 122 243 146 q 382 97 328 97 m 372 496 q 242 440 293 496 q 190 299 190 385 q 192 267 190 278 l 526 390 q 467 467 506 438 q 372 496 429 496 m 317 881 l 417 694 l 335 694 l 172 881 l 317 881 z "},"ẻ":{"ha":722,"x_min":63,"x_max":674,"o":"m 382 97 q 522 147 454 97 l 582 51 q 483 3 536 21 q 379 -14 429 -14 q 212 26 283 -14 q 101 135 140 65 q 63 292 63 204 q 105 447 63 376 q 221 558 147 517 q 382 599 294 599 q 570 533 494 599 q 674 349 646 467 l 218 189 q 285 122 243 146 q 382 97 328 97 m 372 496 q 242 440 293 496 q 190 299 190 385 q 192 267 190 278 l 526 390 q 467 467 506 438 q 372 496 429 496 m 346 701 q 394 744 379 726 q 408 785 408 761 q 397 820 408 807 q 363 833 385 833 q 326 823 342 833 q 299 790 311 813 l 249 822 q 306 887 272 865 q 379 908 339 908 q 457 878 429 908 q 485 800 485 847 q 457 724 485 756 q 379 660 429 692 l 346 701 z "},"ȇ":{"ha":722,"x_min":63,"x_max":674,"o":"m 382 97 q 522 147 454 97 l 582 51 q 483 3 536 21 q 379 -14 429 -14 q 212 26 283 -14 q 101 135 140 65 q 63 292 63 204 q 105 447 63 376 q 221 558 147 517 q 382 599 294 599 q 570 533 494 599 q 674 349 646 467 l 218 189 q 285 122 243 146 q 382 97 328 97 m 372 496 q 242 440 293 496 q 190 299 190 385 q 192 267 190 278 l 526 390 q 467 467 506 438 q 372 496 429 496 m 379 901 q 521 838 467 901 q 590 657 575 775 l 501 657 q 462 770 493 728 q 379 813 431 813 q 298 770 328 813 q 260 657 268 728 l 171 657 q 239 839 185 776 q 379 901 293 901 z "},"ē":{"ha":722,"x_min":63,"x_max":674,"o":"m 382 97 q 522 147 454 97 l 582 51 q 483 3 536 21 q 379 -14 429 -14 q 212 26 283 -14 q 101 135 140 65 q 63 292 63 204 q 105 447 63 376 q 221 558 147 517 q 382 599 294 599 q 570 533 494 599 q 674 349 646 467 l 218 189 q 285 122 243 146 q 382 97 328 97 m 372 496 q 242 440 293 496 q 190 299 190 385 q 192 267 190 278 l 526 390 q 467 467 506 438 q 372 496 429 496 m 546 775 l 546 682 l 204 682 l 204 775 l 546 775 z "},"ę":{"ha":726,"x_min":65,"x_max":676,"o":"m 468 -206 q 557 -149 517 -206 l 606 -218 q 539 -276 581 -253 q 457 -299 497 -299 q 331 -256 379 -299 q 283 -143 283 -214 q 300 -73 283 -107 q 347 -12 317 -39 q 142 83 218 -1 q 65 292 65 167 q 108 447 65 376 q 225 558 151 517 q 386 599 299 599 q 574 533 499 599 q 676 349 649 468 l 221 189 q 290 122 247 146 q 386 97 333 97 q 525 147 460 97 l 585 51 q 518 15 563 38 q 424 -46 454 -18 q 393 -124 393 -74 q 416 -183 393 -160 q 468 -206 439 -206 m 376 496 q 244 440 296 496 q 193 299 193 385 q 196 264 193 286 l 531 388 q 376 496 483 496 z "},"ẽ":{"ha":722,"x_min":63,"x_max":674,"o":"m 382 97 q 522 147 454 97 l 582 51 q 483 3 536 21 q 379 -14 429 -14 q 212 26 283 -14 q 101 135 140 65 q 63 292 63 204 q 105 447 63 376 q 221 558 147 517 q 382 599 294 599 q 570 533 494 599 q 674 349 646 467 l 218 189 q 285 122 243 146 q 382 97 328 97 m 372 496 q 242 440 293 496 q 190 299 190 385 q 192 267 190 278 l 526 390 q 467 467 506 438 q 372 496 429 496 m 485 658 q 419 674 444 658 q 357 721 394 689 q 319 751 335 742 q 286 761 304 761 q 244 733 260 761 q 231 658 229 706 l 158 658 q 190 796 153 740 q 293 851 228 851 q 351 835 325 851 q 406 790 376 819 q 448 754 432 765 q 482 743 464 743 q 532 851 532 743 l 604 851 q 606 821 606 840 q 571 703 606 747 q 485 658 536 658 z "},"ə":{"ha":722,"x_min":49,"x_max":660,"o":"m 343 589 q 510 549 439 589 q 621 440 582 510 q 660 283 660 371 q 617 128 660 199 q 501 17 575 58 q 340 -24 428 -24 q 152 42 228 -24 q 49 226 76 108 l 504 386 q 437 453 479 429 q 340 478 394 478 q 200 428 268 478 l 140 524 q 240 572 186 554 q 343 589 293 589 m 350 79 q 481 135 429 79 q 532 276 532 190 q 531 308 532 297 l 196 185 q 255 108 217 138 q 350 79 293 79 z "},"f":{"ha":528,"x_min":61,"x_max":510,"o":"m 160 460 l 61 460 l 61 576 l 160 576 l 160 818 q 217 1010 160 943 q 383 1076 274 1076 q 449 1067 414 1076 q 510 1042 483 1058 l 454 947 q 396 969 433 969 q 316 933 343 969 q 289 817 289 897 l 289 576 l 472 576 l 472 460 l 289 460 l 289 0 l 160 0 l 160 460 z "},"g":{"ha":832,"x_min":63,"x_max":719,"o":"m 719 575 l 719 -4 q 679 -147 719 -83 q 565 -249 639 -211 q 390 -286 490 -286 q 240 -257 303 -286 q 113 -171 176 -228 l 189 -82 q 283 -149 236 -126 q 388 -172 331 -172 q 535 -126 483 -172 q 589 -3 588 -81 l 590 106 q 497 19 558 51 q 354 -14 435 -14 q 208 26 275 -14 q 102 136 142 67 q 63 290 63 206 q 103 448 63 378 q 214 558 144 518 q 363 599 283 599 q 499 569 436 599 q 592 494 561 540 l 601 575 l 719 575 m 392 93 q 519 133 465 93 q 590 239 574 174 l 590 353 q 517 453 571 415 q 392 492 463 492 q 250 436 307 492 q 193 294 193 381 q 219 193 193 239 q 292 120 246 147 q 392 93 338 93 z "},"ğ":{"ha":832,"x_min":63,"x_max":719,"o":"m 719 575 l 719 -4 q 679 -147 719 -83 q 565 -249 639 -211 q 390 -286 490 -286 q 240 -257 303 -286 q 113 -171 176 -228 l 189 -82 q 283 -149 236 -126 q 388 -172 331 -172 q 535 -126 483 -172 q 589 -3 588 -81 l 590 106 q 497 19 558 51 q 354 -14 435 -14 q 208 26 275 -14 q 102 136 142 67 q 63 290 63 206 q 103 448 63 378 q 214 558 144 518 q 363 599 283 599 q 499 569 436 599 q 592 494 561 540 l 601 575 l 719 575 m 392 93 q 519 133 465 93 q 590 239 574 174 l 590 353 q 517 453 571 415 q 392 492 463 492 q 250 436 307 492 q 193 294 193 381 q 219 193 193 239 q 292 120 246 147 q 392 93 338 93 m 417 665 q 275 728 329 665 q 206 910 221 792 l 294 910 q 334 797 303 839 q 417 754 365 754 q 498 797 468 754 q 536 910 528 839 l 625 910 q 557 728 611 790 q 417 665 503 665 z "},"ǧ":{"ha":832,"x_min":63,"x_max":719,"o":"m 719 575 l 719 -4 q 679 -147 719 -83 q 565 -249 639 -211 q 390 -286 490 -286 q 240 -257 303 -286 q 113 -171 176 -228 l 189 -82 q 283 -149 236 -126 q 388 -172 331 -172 q 535 -126 483 -172 q 589 -3 588 -81 l 590 106 q 497 19 558 51 q 354 -14 435 -14 q 208 26 275 -14 q 102 136 142 67 q 63 290 63 206 q 103 448 63 378 q 214 558 144 518 q 363 599 283 599 q 499 569 436 599 q 592 494 561 540 l 601 575 l 719 575 m 392 93 q 519 133 465 93 q 590 239 574 174 l 590 353 q 517 453 571 415 q 392 492 463 492 q 250 436 307 492 q 193 294 193 381 q 219 193 193 239 q 292 120 246 147 q 392 93 338 93 m 656 903 l 426 665 l 425 665 l 192 903 l 313 903 l 428 783 l 536 903 l 656 903 z "},"ĝ":{"ha":832,"x_min":63,"x_max":719,"o":"m 719 575 l 719 -4 q 679 -147 719 -83 q 565 -249 639 -211 q 390 -286 490 -286 q 240 -257 303 -286 q 113 -171 176 -228 l 189 -82 q 283 -149 236 -126 q 388 -172 331 -172 q 535 -126 483 -172 q 589 -3 588 -81 l 590 106 q 497 19 558 51 q 354 -14 435 -14 q 208 26 275 -14 q 102 136 142 67 q 63 290 63 206 q 103 448 63 378 q 214 558 144 518 q 363 599 283 599 q 499 569 436 599 q 592 494 561 540 l 601 575 l 719 575 m 392 93 q 519 133 465 93 q 590 239 574 174 l 590 353 q 517 453 571 415 q 392 492 463 492 q 250 436 307 492 q 193 294 193 381 q 219 193 193 239 q 292 120 246 147 q 392 93 338 93 m 526 693 l 413 813 l 304 693 l 183 693 l 413 931 l 414 931 l 647 693 l 526 693 z "},"ģ":{"ha":789,"x_min":63,"x_max":719,"o":"m 510 899 q 438 704 447 731 l 319 704 l 400 899 l 440 996 l 546 996 l 510 899 m 719 575 l 719 -4 q 679 -147 719 -83 q 565 -249 639 -211 q 390 -286 490 -286 q 240 -257 303 -286 q 113 -171 176 -228 l 189 -82 q 283 -149 236 -126 q 388 -172 331 -172 q 535 -126 483 -172 q 589 -3 588 -81 l 590 106 q 497 19 558 51 q 354 -14 435 -14 q 208 26 275 -14 q 102 136 142 67 q 63 290 63 206 q 103 448 63 378 q 214 558 144 518 q 363 599 283 599 q 499 569 436 599 q 592 494 561 540 l 601 575 l 719 575 m 392 93 q 519 133 465 93 q 590 239 574 174 l 590 353 q 517 453 571 415 q 392 492 463 492 q 250 436 307 492 q 193 294 193 381 q 219 193 193 239 q 292 120 246 147 q 392 93 338 93 z "},"ġ":{"ha":832,"x_min":63,"x_max":719,"o":"m 719 575 l 719 -4 q 679 -147 719 -83 q 565 -249 639 -211 q 390 -286 490 -286 q 240 -257 303 -286 q 113 -171 176 -228 l 189 -82 q 283 -149 236 -126 q 388 -172 331 -172 q 535 -126 483 -172 q 589 -3 588 -81 l 590 106 q 497 19 558 51 q 354 -14 435 -14 q 208 26 275 -14 q 102 136 142 67 q 63 290 63 206 q 103 448 63 378 q 214 558 144 518 q 363 599 283 599 q 499 569 436 599 q 592 494 561 540 l 601 575 l 719 575 m 392 93 q 519 133 465 93 q 590 239 574 174 l 590 353 q 517 453 571 415 q 392 492 463 492 q 250 436 307 492 q 193 294 193 381 q 219 193 193 239 q 292 120 246 147 q 392 93 338 93 m 340 801 q 364 853 340 832 q 418 874 388 874 q 472 853 449 874 q 494 801 494 832 q 472 750 494 771 q 418 729 449 729 q 364 750 388 729 q 340 801 340 771 z "},"h":{"ha":768,"x_min":113,"x_max":657,"o":"m 469 597 q 603 549 550 597 q 657 425 656 501 l 657 0 l 526 0 l 526 381 q 497 457 524 429 q 418 486 471 485 q 328 458 368 486 q 265 381 288 431 q 242 269 242 331 l 242 0 l 113 0 l 113 1076 l 239 1076 l 239 471 q 331 563 271 528 q 469 597 392 597 z "},"ħ":{"ha":768,"x_min":-8,"x_max":657,"o":"m 469 597 q 603 549 550 597 q 657 425 656 501 l 657 0 l 526 0 l 526 381 q 497 457 524 429 q 418 486 471 485 q 328 458 368 486 q 265 381 288 431 q 242 269 242 331 l 242 0 l 113 0 l 113 772 l -8 772 l -8 894 l 113 894 l 113 1076 l 239 1076 l 239 894 l 378 894 l 378 772 l 239 772 l 239 471 q 331 563 271 528 q 469 597 392 597 z "},"ĥ":{"ha":768,"x_min":-67,"x_max":657,"o":"m 469 597 q 603 549 550 597 q 657 425 656 501 l 657 0 l 526 0 l 526 381 q 497 457 524 429 q 418 486 471 485 q 328 458 368 486 q 265 381 288 431 q 242 269 242 331 l 242 0 l 113 0 l 113 1076 l 239 1076 l 239 471 q 331 563 271 528 q 469 597 392 597 m 276 1138 l 163 1257 l 54 1138 l -67 1138 l 163 1375 l 164 1375 l 397 1138 l 276 1138 z "},"i":{"ha":354,"x_min":103,"x_max":257,"o":"m 242 575 l 242 0 l 113 0 l 113 575 l 242 575 m 103 782 q 126 833 103 813 q 181 854 150 854 q 234 833 211 854 q 257 782 257 813 q 234 731 257 751 q 181 710 211 710 q 126 731 150 710 q 103 782 103 751 z "},"ı":{"ha":354,"x_min":113,"x_max":242,"o":"m 242 575 l 242 0 l 113 0 l 113 575 l 242 575 z "},"í":{"ha":354,"x_min":113,"x_max":400,"o":"m 242 575 l 242 0 l 113 0 l 113 575 l 242 575 m 224 664 l 140 664 l 256 850 l 400 850 l 224 664 z "},"ĭ":{"ha":354,"x_min":-31,"x_max":389,"o":"m 242 575 l 242 0 l 113 0 l 113 575 l 242 575 m 181 647 q 39 710 93 647 q -31 892 -15 774 l 58 892 q 98 778 67 821 q 181 736 129 736 q 262 778 232 736 q 300 892 292 821 l 389 892 q 321 710 375 772 q 181 647 267 647 z "},"î":{"ha":354,"x_min":-53,"x_max":411,"o":"m 242 575 l 242 0 l 113 0 l 113 575 l 242 575 m 290 675 l 176 794 l 68 675 l -53 675 l 176 913 l 178 913 l 411 675 l 290 675 z "},"ȉ":{"ha":354,"x_min":-111,"x_max":331,"o":"m 242 575 l 242 0 l 113 0 l 113 575 l 242 575 m 33 861 l 133 675 l 51 675 l -111 861 l 33 861 m 231 861 l 331 675 l 249 675 l 86 861 l 231 861 z "},"ï":{"ha":354,"x_min":-25,"x_max":381,"o":"m 242 575 l 242 0 l 113 0 l 113 575 l 242 575 m -25 732 q -3 784 -25 763 q 49 806 19 806 q 99 784 76 806 q 121 732 121 763 q 99 680 121 701 q 49 658 76 658 q -3 679 19 658 q -25 732 -25 700 m 235 732 q 257 784 235 763 q 308 806 279 806 q 358 784 336 806 q 381 732 381 763 q 358 680 381 701 q 308 658 336 658 q 257 679 279 658 q 235 732 235 700 z "},"ị":{"ha":354,"x_min":103,"x_max":257,"o":"m 242 575 l 242 0 l 113 0 l 113 575 l 242 575 m 103 782 q 126 833 103 813 q 181 854 150 854 q 234 833 211 854 q 257 782 257 813 q 234 731 257 751 q 181 710 211 710 q 126 731 150 710 q 103 782 103 751 m 108 -140 q 130 -95 108 -114 q 178 -76 151 -76 q 225 -95 204 -76 q 246 -140 246 -114 q 226 -186 246 -168 q 178 -204 206 -204 q 129 -186 150 -204 q 108 -140 108 -168 z "},"ì":{"ha":354,"x_min":-24,"x_max":242,"o":"m 242 575 l 242 0 l 113 0 l 113 575 l 242 575 m 121 861 l 221 675 l 139 675 l -24 861 l 121 861 z "},"ỉ":{"ha":354,"x_min":53,"x_max":289,"o":"m 242 575 l 242 0 l 113 0 l 113 575 l 242 575 m 150 682 q 198 724 183 707 q 213 765 213 742 q 201 801 213 788 q 167 814 189 814 q 131 803 146 814 q 103 771 115 793 l 53 803 q 110 867 76 846 q 183 889 143 889 q 261 858 233 889 q 289 781 289 828 q 261 704 289 736 q 183 640 233 672 l 150 682 z "},"ȋ":{"ha":354,"x_min":-25,"x_max":394,"o":"m 242 575 l 242 0 l 113 0 l 113 575 l 242 575 m 183 882 q 325 819 271 882 q 394 638 379 756 l 306 638 q 266 751 297 708 q 183 793 235 793 q 102 751 132 793 q 64 638 72 708 l -25 638 q 43 819 -11 757 q 183 882 97 882 z "},"ĳ":{"ha":701,"x_min":103,"x_max":604,"o":"m 242 575 l 242 0 l 113 0 l 113 575 l 242 575 m 103 782 q 126 833 103 813 q 181 854 150 854 q 234 833 211 854 q 257 782 257 813 q 234 731 257 751 q 181 710 211 710 q 126 731 150 710 q 103 782 103 751 m 376 -197 q 460 1 460 -126 l 460 575 l 590 575 l 590 -4 q 558 -169 590 -103 q 454 -278 525 -236 l 376 -197 m 450 782 q 474 833 450 813 q 528 854 497 854 q 581 833 558 854 q 604 782 604 813 q 581 731 604 751 q 528 710 558 710 q 474 731 497 710 q 450 782 450 751 z "},"ī":{"ha":354,"x_min":8,"x_max":350,"o":"m 242 575 l 242 0 l 113 0 l 113 575 l 242 575 m 350 756 l 350 663 l 8 663 l 8 756 l 350 756 z "},"į":{"ha":360,"x_min":-3,"x_max":317,"o":"m 179 692 q 125 713 149 692 q 101 764 101 733 q 125 815 101 794 q 179 836 149 836 q 233 815 210 836 q 256 764 256 794 q 233 713 256 733 q 179 692 210 692 m 317 -206 q 248 -272 292 -246 q 161 -299 204 -299 q 44 -256 92 -299 q -3 -147 -3 -214 q 28 -58 -3 -101 q 113 11 60 -15 l 113 575 l 242 575 l 242 1 l 244 0 q 140 -65 175 -33 q 106 -137 106 -96 q 125 -189 106 -172 q 172 -206 144 -206 q 267 -140 225 -206 l 317 -206 z "},"ĩ":{"ha":354,"x_min":-37,"x_max":410,"o":"m 242 575 l 242 0 l 113 0 l 113 575 l 242 575 m 289 639 q 224 654 249 639 q 161 701 199 669 q 124 732 139 722 q 90 742 108 742 q 49 714 64 742 q 35 639 33 686 l -37 639 q -6 776 -43 721 q 97 832 32 832 q 155 816 129 832 q 210 771 181 800 q 252 735 236 746 q 286 724 268 724 q 336 832 336 724 l 408 832 q 410 801 410 821 q 375 683 410 728 q 289 639 340 639 z "},"j":{"ha":361,"x_min":43,"x_max":271,"o":"m 43 -197 q 126 1 126 -126 l 126 575 l 257 575 l 257 -4 q 224 -169 257 -103 q 121 -278 192 -236 l 43 -197 m 117 782 q 140 833 117 813 q 194 854 164 854 q 248 833 225 854 q 271 782 271 813 q 248 731 271 751 q 194 710 225 710 q 140 731 164 710 q 117 782 117 751 z "},"ȷ":{"ha":361,"x_min":43,"x_max":257,"o":"m 43 -197 q 126 1 126 -126 l 126 575 l 257 575 l 257 -4 q 224 -169 257 -103 q 121 -278 192 -236 l 43 -197 z "},"ĵ":{"ha":361,"x_min":-40,"x_max":424,"o":"m 43 -197 q 126 1 126 -126 l 126 575 l 257 575 l 257 -4 q 224 -169 257 -103 q 121 -278 192 -236 l 43 -197 m 303 675 l 189 794 l 81 675 l -40 675 l 189 913 l 190 913 l 424 675 l 303 675 z "},"k":{"ha":693,"x_min":113,"x_max":646,"o":"m 317 276 l 242 215 l 242 0 l 113 0 l 113 1076 l 242 1076 l 242 350 l 539 589 l 618 519 l 406 349 l 646 0 l 494 0 l 317 276 z "},"ķ":{"ha":693,"x_min":113,"x_max":646,"o":"m 317 276 l 242 215 l 242 0 l 113 0 l 113 1076 l 242 1076 l 242 350 l 539 589 l 618 519 l 406 349 l 646 0 l 494 0 l 317 276 m 235 -235 q 277 -173 263 -212 q 292 -89 292 -133 q 289 -50 292 -75 l 404 -50 q 407 -81 407 -69 q 379 -194 407 -137 q 301 -281 351 -251 l 235 -235 z "},"ĸ":{"ha":704,"x_min":113,"x_max":643,"o":"m 297 239 l 242 185 l 242 0 l 113 0 l 113 575 l 242 575 l 242 322 l 485 575 l 642 575 l 379 319 l 643 0 l 490 0 l 297 239 z "},"l":{"ha":354,"x_min":113,"x_max":242,"o":"m 242 1076 l 242 0 l 113 0 l 113 1076 l 242 1076 z "},"ĺ":{"ha":354,"x_min":113,"x_max":396,"o":"m 242 1076 l 242 0 l 113 0 l 113 1076 l 242 1076 m 219 1138 l 136 1138 l 251 1324 l 396 1324 l 219 1138 z "},"ľ":{"ha":526,"x_min":113,"x_max":513,"o":"m 242 1076 l 242 0 l 113 0 l 113 1076 l 242 1076 m 351 869 q 392 933 376 894 q 408 1011 408 971 q 406 1043 408 1021 l 510 1053 q 513 1022 513 1033 q 485 917 513 969 q 417 836 457 864 l 351 869 z "},"ļ":{"ha":354,"x_min":65,"x_max":242,"o":"m 242 1076 l 242 0 l 113 0 l 113 1076 l 242 1076 m 65 -235 q 108 -173 93 -212 q 122 -89 122 -133 q 119 -50 122 -75 l 235 -50 q 238 -81 238 -69 q 210 -194 238 -137 q 132 -281 182 -251 l 65 -235 z "},"ŀ":{"ha":481,"x_min":113,"x_max":492,"o":"m 242 1076 l 242 0 l 113 0 l 113 1076 l 242 1076 m 346 442 q 368 494 346 472 q 419 517 390 517 q 469 494 446 517 q 492 442 492 472 q 469 389 492 410 q 419 368 447 368 q 368 389 390 368 q 346 442 346 410 z "},"ǉ":{"ha":715,"x_min":113,"x_max":625,"o":"m 242 1076 l 242 0 l 113 0 l 113 1076 l 242 1076 m 397 -197 q 481 1 481 -126 l 481 575 l 611 575 l 611 -4 q 578 -169 611 -103 q 475 -278 546 -236 l 397 -197 m 471 782 q 494 833 471 813 q 549 854 518 854 q 602 833 579 854 q 625 782 625 813 q 602 731 625 751 q 549 710 579 710 q 494 731 518 710 q 471 782 471 751 z "},"ł":{"ha":371,"x_min":28,"x_max":356,"o":"m 356 428 l 251 400 l 251 0 l 122 0 l 122 365 l 28 340 l 28 454 l 122 479 l 122 1076 l 251 1076 l 251 514 l 356 542 l 356 428 z "},"m":{"ha":1146,"x_min":113,"x_max":1035,"o":"m 850 599 q 983 551 933 599 q 1035 426 1032 504 l 1035 0 l 906 0 l 906 379 q 814 486 901 481 q 724 456 764 486 q 663 378 685 426 q 639 274 640 329 l 639 0 l 508 0 l 508 379 q 414 486 504 481 q 326 456 365 486 q 264 377 286 426 q 242 272 242 328 l 242 0 l 113 0 l 113 575 l 229 575 l 239 467 q 330 564 272 529 q 461 599 388 599 q 578 566 531 599 q 639 476 625 533 q 731 566 675 533 q 850 599 786 599 z "},"n":{"ha":768,"x_min":113,"x_max":657,"o":"m 469 597 q 603 549 550 597 q 657 425 656 501 l 657 0 l 526 0 l 526 381 q 497 457 524 429 q 418 486 471 485 q 292 425 342 486 q 242 269 242 364 l 242 0 l 113 0 l 113 575 l 229 575 l 238 464 q 329 562 268 526 q 469 597 390 597 z "},"ń":{"ha":768,"x_min":113,"x_max":657,"o":"m 469 597 q 603 549 550 597 q 657 425 656 501 l 657 0 l 526 0 l 526 381 q 497 457 524 429 q 418 486 471 485 q 292 425 342 486 q 242 269 242 364 l 242 0 l 113 0 l 113 575 l 229 575 l 238 464 q 329 562 268 526 q 469 597 390 597 m 429 674 l 346 674 l 461 860 l 606 860 l 429 674 z "},"ŉ":{"ha":786,"x_min":-72,"x_max":675,"o":"m -72 615 q -30 677 -44 638 q -15 761 -15 717 q -18 800 -15 775 l 97 800 q 100 769 100 781 q 72 656 100 713 q -6 569 44 599 l -72 615 m 488 597 q 621 549 568 597 q 675 425 674 501 l 675 0 l 544 0 l 544 381 q 515 457 542 429 q 436 486 489 485 q 310 425 360 486 q 260 269 260 364 l 260 0 l 131 0 l 131 575 l 247 575 l 256 464 q 347 562 286 526 q 488 597 408 597 z "},"ň":{"ha":768,"x_min":113,"x_max":657,"o":"m 469 597 q 603 549 550 597 q 657 425 656 501 l 657 0 l 526 0 l 526 381 q 497 457 524 429 q 418 486 471 485 q 292 425 342 486 q 242 269 242 364 l 242 0 l 113 0 l 113 575 l 229 575 l 238 464 q 329 562 268 526 q 469 597 390 597 m 625 894 l 396 657 l 394 657 l 161 894 l 282 894 l 397 775 l 506 894 l 625 894 z "},"ņ":{"ha":768,"x_min":113,"x_max":657,"o":"m 469 597 q 603 549 550 597 q 657 425 656 501 l 657 0 l 526 0 l 526 381 q 497 457 524 429 q 418 486 471 485 q 292 425 342 486 q 242 269 242 364 l 242 0 l 113 0 l 113 575 l 229 575 l 238 464 q 329 562 268 526 q 469 597 390 597 m 274 -235 q 316 -173 301 -212 q 331 -89 331 -133 q 328 -50 331 -75 l 443 -50 q 446 -81 446 -69 q 418 -194 446 -137 q 340 -281 390 -251 l 274 -235 z "},"ŋ":{"ha":768,"x_min":113,"x_max":657,"o":"m 657 3 q 623 -163 657 -92 q 521 -278 589 -235 l 444 -197 q 526 1 526 -126 l 526 381 q 497 457 524 429 q 418 486 471 485 q 292 425 342 486 q 242 269 242 364 l 242 0 l 113 0 l 113 575 l 229 575 l 239 457 q 328 560 268 522 q 469 597 388 597 q 603 549 550 597 q 657 425 656 501 l 657 3 z "},"ɲ":{"ha":768,"x_min":32,"x_max":657,"o":"m 469 597 q 603 549 550 597 q 657 425 656 501 l 657 0 l 526 0 l 526 381 q 497 457 524 429 q 418 486 471 485 q 292 425 342 486 q 242 269 242 364 l 242 63 l 244 63 l 244 -4 q 108 -278 244 -181 l 32 -197 q 115 0 115 -126 l 113 0 l 113 575 l 229 575 l 238 464 q 329 562 268 526 q 469 597 390 597 z "},"ǌ":{"ha":1118,"x_min":113,"x_max":1021,"o":"m 469 597 q 603 549 550 597 q 657 425 656 501 l 657 0 l 526 0 l 526 381 q 497 457 524 429 q 418 486 471 485 q 292 425 342 486 q 242 269 242 364 l 242 0 l 113 0 l 113 575 l 229 575 l 238 464 q 329 562 268 526 q 469 597 390 597 m 793 -197 q 876 1 876 -126 l 876 575 l 1007 575 l 1007 -4 q 974 -169 1007 -103 q 871 -278 942 -236 l 793 -197 m 867 782 q 890 833 867 813 q 944 854 914 854 q 998 833 975 854 q 1021 782 1021 813 q 998 731 1021 751 q 944 710 975 710 q 890 731 914 710 q 867 782 867 751 z "},"ñ":{"ha":768,"x_min":113,"x_max":657,"o":"m 469 597 q 603 549 550 597 q 657 425 656 501 l 657 0 l 526 0 l 526 381 q 497 457 524 429 q 418 486 471 485 q 292 425 342 486 q 242 269 242 364 l 242 0 l 113 0 l 113 575 l 229 575 l 238 464 q 329 562 268 526 q 469 597 390 597 m 496 649 q 431 664 456 649 q 368 711 406 679 q 331 742 346 732 q 297 751 315 751 q 256 724 271 751 q 242 649 240 696 l 169 649 q 201 786 164 731 q 304 842 239 842 q 362 826 336 842 q 417 781 388 810 q 459 744 443 756 q 493 733 475 733 q 543 842 543 733 l 615 842 q 617 811 617 831 q 582 693 617 738 q 496 649 547 649 z "},"o":{"ha":757,"x_min":63,"x_max":696,"o":"m 63 293 q 103 448 63 378 q 217 558 144 518 q 382 599 290 599 q 545 558 474 599 q 656 449 617 518 q 696 293 696 379 q 656 137 696 207 q 544 26 617 67 q 379 -14 472 -14 q 217 24 289 -14 q 103 132 144 63 q 63 293 63 201 m 193 292 q 217 192 193 238 q 284 119 242 146 q 378 93 326 93 q 511 150 458 93 q 564 292 564 207 q 511 434 564 376 q 378 492 458 492 q 283 465 325 492 q 217 392 242 438 q 193 292 193 346 z "},"ó":{"ha":757,"x_min":63,"x_max":696,"o":"m 63 293 q 103 448 63 378 q 217 558 144 518 q 382 599 290 599 q 545 558 474 599 q 656 449 617 518 q 696 293 696 379 q 656 137 696 207 q 544 26 617 67 q 379 -14 472 -14 q 217 24 289 -14 q 103 132 144 63 q 63 293 63 201 m 193 292 q 217 192 193 238 q 284 119 242 146 q 378 93 326 93 q 511 150 458 93 q 564 292 564 207 q 511 434 564 376 q 378 492 458 492 q 283 465 325 492 q 217 392 242 438 q 193 292 193 346 m 424 683 l 340 683 l 456 869 l 600 869 l 424 683 z "},"ŏ":{"ha":757,"x_min":63,"x_max":696,"o":"m 63 293 q 103 448 63 378 q 217 558 144 518 q 382 599 290 599 q 545 558 474 599 q 656 449 617 518 q 696 293 696 379 q 656 137 696 207 q 544 26 617 67 q 379 -14 472 -14 q 217 24 289 -14 q 103 132 144 63 q 63 293 63 201 m 193 292 q 217 192 193 238 q 284 119 242 146 q 378 93 326 93 q 511 150 458 93 q 564 292 564 207 q 511 434 564 376 q 378 492 458 492 q 283 465 325 492 q 217 392 242 438 q 193 292 193 346 m 381 665 q 239 728 293 665 q 169 910 185 792 l 258 910 q 298 797 267 839 q 381 754 329 754 q 462 797 432 754 q 500 910 492 839 l 589 910 q 521 728 575 790 q 381 665 467 665 z "},"ô":{"ha":757,"x_min":63,"x_max":696,"o":"m 63 293 q 103 448 63 378 q 217 558 144 518 q 382 599 290 599 q 545 558 474 599 q 656 449 617 518 q 696 293 696 379 q 656 137 696 207 q 544 26 617 67 q 379 -14 472 -14 q 217 24 289 -14 q 103 132 144 63 q 63 293 63 201 m 193 292 q 217 192 193 238 q 284 119 242 146 q 378 93 326 93 q 511 150 458 93 q 564 292 564 207 q 511 434 564 376 q 378 492 458 492 q 283 465 325 492 q 217 392 242 438 q 193 292 193 346 m 490 693 l 376 813 l 268 693 l 147 693 l 376 931 l 378 931 l 611 693 l 490 693 z "},"ố":{"ha":757,"x_min":63,"x_max":822,"o":"m 63 293 q 103 448 63 378 q 217 558 144 518 q 382 599 290 599 q 545 558 474 599 q 656 449 617 518 q 696 293 696 379 q 656 137 696 207 q 544 26 617 67 q 379 -14 472 -14 q 217 24 289 -14 q 103 132 144 63 q 63 293 63 201 m 193 292 q 217 192 193 238 q 284 119 242 146 q 378 93 326 93 q 511 150 458 93 q 564 292 564 207 q 511 434 564 376 q 378 492 458 492 q 283 465 325 492 q 217 392 242 438 q 193 292 193 346 m 493 686 l 379 806 l 271 686 l 150 686 l 379 924 l 381 924 l 614 686 l 493 686 m 646 822 l 563 822 l 678 1008 l 822 1008 l 646 822 z "},"ộ":{"ha":757,"x_min":63,"x_max":696,"o":"m 63 293 q 103 448 63 378 q 217 558 144 518 q 382 599 290 599 q 545 558 474 599 q 656 449 617 518 q 696 293 696 379 q 656 137 696 207 q 544 26 617 67 q 379 -14 472 -14 q 217 24 289 -14 q 103 132 144 63 q 63 293 63 201 m 193 292 q 217 192 193 238 q 284 119 242 146 q 378 93 326 93 q 511 150 458 93 q 564 292 564 207 q 511 434 564 376 q 378 492 458 492 q 283 465 325 492 q 217 392 242 438 q 193 292 193 346 m 311 -140 q 333 -95 311 -114 q 381 -76 354 -76 q 428 -95 407 -76 q 449 -140 449 -114 q 428 -186 449 -168 q 381 -204 408 -204 q 332 -186 353 -204 q 311 -140 311 -168 m 490 693 l 376 813 l 268 693 l 147 693 l 376 931 l 378 931 l 611 693 l 490 693 z "},"ồ":{"ha":757,"x_min":-46,"x_max":696,"o":"m 63 293 q 103 448 63 378 q 217 558 144 518 q 382 599 290 599 q 545 558 474 599 q 656 449 617 518 q 696 293 696 379 q 656 137 696 207 q 544 26 617 67 q 379 -14 472 -14 q 217 24 289 -14 q 103 132 144 63 q 63 293 63 201 m 193 292 q 217 192 193 238 q 284 119 242 146 q 378 93 326 93 q 511 150 458 93 q 564 292 564 207 q 511 434 564 376 q 378 492 458 492 q 283 465 325 492 q 217 392 242 438 q 193 292 193 346 m 483 682 l 369 801 l 261 682 l 140 682 l 369 919 l 371 919 l 604 682 l 483 682 m 99 1017 l 199 831 l 117 831 l -46 1017 l 99 1017 z "},"ổ":{"ha":757,"x_min":63,"x_max":731,"o":"m 63 293 q 103 448 63 378 q 217 558 144 518 q 382 599 290 599 q 545 558 474 599 q 656 449 617 518 q 696 293 696 379 q 656 137 696 207 q 544 26 617 67 q 379 -14 472 -14 q 217 24 289 -14 q 103 132 144 63 q 63 293 63 201 m 193 292 q 217 192 193 238 q 284 119 242 146 q 378 93 326 93 q 511 150 458 93 q 564 292 564 207 q 511 434 564 376 q 378 492 458 492 q 283 465 325 492 q 217 392 242 438 q 193 292 193 346 m 488 686 l 374 806 l 265 686 l 144 686 l 374 924 l 375 924 l 608 686 l 488 686 m 592 832 q 640 874 625 857 q 654 915 654 892 q 642 951 654 938 q 608 964 631 964 q 572 953 588 964 q 544 921 557 943 l 494 953 q 551 1017 518 996 q 625 1039 585 1039 q 703 1008 675 1039 q 731 931 731 978 q 703 854 731 886 q 625 790 675 822 l 592 832 z "},"ỗ":{"ha":757,"x_min":63,"x_max":696,"o":"m 63 293 q 103 448 63 378 q 217 558 144 518 q 382 599 290 599 q 545 558 474 599 q 656 449 617 518 q 696 293 696 379 q 656 137 696 207 q 544 26 617 67 q 379 -14 472 -14 q 217 24 289 -14 q 103 132 144 63 q 63 293 63 201 m 193 292 q 217 192 193 238 q 284 119 242 146 q 378 93 326 93 q 511 150 458 93 q 564 292 564 207 q 511 434 564 376 q 378 492 458 492 q 283 465 325 492 q 217 392 242 438 q 193 292 193 346 m 483 676 l 369 796 l 261 676 l 140 676 l 369 914 l 371 914 l 604 676 l 483 676 m 482 978 q 417 993 442 978 q 354 1040 392 1008 q 317 1071 332 1061 q 283 1081 301 1081 q 242 1053 257 1081 q 228 978 226 1025 l 156 978 q 188 1115 150 1060 q 290 1171 225 1171 q 348 1155 322 1171 q 403 1110 374 1139 q 445 1074 429 1085 q 479 1063 461 1063 q 529 1171 529 1063 l 601 1171 q 603 1140 603 1160 q 568 1022 603 1067 q 482 978 533 978 z "},"ȍ":{"ha":757,"x_min":63,"x_max":696,"o":"m 63 293 q 103 448 63 378 q 217 558 144 518 q 382 599 290 599 q 545 558 474 599 q 656 449 617 518 q 696 293 696 379 q 656 137 696 207 q 544 26 617 67 q 379 -14 472 -14 q 217 24 289 -14 q 103 132 144 63 q 63 293 63 201 m 193 292 q 217 192 193 238 q 284 119 242 146 q 378 93 326 93 q 511 150 458 93 q 564 292 564 207 q 511 434 564 376 q 378 492 458 492 q 283 465 325 492 q 217 392 242 438 q 193 292 193 346 m 233 879 l 333 693 l 251 693 l 89 879 l 233 879 m 431 879 l 531 693 l 449 693 l 286 879 l 431 879 z "},"ö":{"ha":757,"x_min":63,"x_max":696,"o":"m 63 293 q 103 448 63 378 q 217 558 144 518 q 382 599 290 599 q 545 558 474 599 q 656 449 617 518 q 696 293 696 379 q 656 137 696 207 q 544 26 617 67 q 379 -14 472 -14 q 217 24 289 -14 q 103 132 144 63 q 63 293 63 201 m 193 292 q 217 192 193 238 q 284 119 242 146 q 378 93 326 93 q 511 150 458 93 q 564 292 564 207 q 511 434 564 376 q 378 492 458 492 q 283 465 325 492 q 217 392 242 438 q 193 292 193 346 m 175 750 q 197 802 175 781 q 249 824 219 824 q 299 802 276 824 q 321 750 321 781 q 299 698 321 719 q 249 676 276 676 q 197 697 219 676 q 175 750 175 718 m 435 750 q 457 802 435 781 q 508 824 479 824 q 558 802 536 824 q 581 750 581 781 q 558 698 581 719 q 508 676 536 676 q 457 697 479 676 q 435 750 435 718 z "},"ȫ":{"ha":757,"x_min":63,"x_max":696,"o":"m 63 293 q 103 448 63 378 q 217 558 144 518 q 382 599 290 599 q 545 558 474 599 q 656 449 617 518 q 696 293 696 379 q 656 137 696 207 q 544 26 617 67 q 379 -14 472 -14 q 217 24 289 -14 q 103 132 144 63 q 63 293 63 201 m 193 292 q 217 192 193 238 q 284 119 242 146 q 378 93 326 93 q 511 150 458 93 q 564 292 564 207 q 511 434 564 376 q 378 492 458 492 q 283 465 325 492 q 217 392 242 438 q 193 292 193 346 m 175 750 q 197 802 175 781 q 249 824 219 824 q 299 802 276 824 q 321 750 321 781 q 299 698 321 719 q 249 676 276 676 q 197 697 219 676 q 175 750 175 718 m 435 750 q 457 802 435 781 q 508 824 479 824 q 558 802 536 824 q 581 750 581 781 q 558 698 581 719 q 508 676 536 676 q 457 697 479 676 q 435 750 435 718 m 551 1004 l 551 911 l 210 911 l 210 1004 l 551 1004 z "},"ȱ":{"ha":757,"x_min":63,"x_max":696,"o":"m 63 293 q 103 448 63 378 q 217 558 144 518 q 382 599 290 599 q 545 558 474 599 q 656 449 617 518 q 696 293 696 379 q 656 137 696 207 q 544 26 617 67 q 379 -14 472 -14 q 217 24 289 -14 q 103 132 144 63 q 63 293 63 201 m 193 292 q 217 192 193 238 q 284 119 242 146 q 378 93 326 93 q 511 150 458 93 q 564 292 564 207 q 511 434 564 376 q 378 492 458 492 q 283 465 325 492 q 217 392 242 438 q 193 292 193 346 m 304 801 q 328 853 304 832 q 382 874 351 874 q 435 853 413 874 q 458 801 458 832 q 435 750 458 771 q 382 729 413 729 q 328 750 351 729 q 304 801 304 771 m 551 1054 l 551 961 l 210 961 l 210 1054 l 551 1054 z "},"ọ":{"ha":757,"x_min":63,"x_max":696,"o":"m 63 293 q 103 448 63 378 q 217 558 144 518 q 382 599 290 599 q 545 558 474 599 q 656 449 617 518 q 696 293 696 379 q 656 137 696 207 q 544 26 617 67 q 379 -14 472 -14 q 217 24 289 -14 q 103 132 144 63 q 63 293 63 201 m 193 292 q 217 192 193 238 q 284 119 242 146 q 378 93 326 93 q 511 150 458 93 q 564 292 564 207 q 511 434 564 376 q 378 492 458 492 q 283 465 325 492 q 217 392 242 438 q 193 292 193 346 m 311 -140 q 333 -95 311 -114 q 381 -76 354 -76 q 428 -95 407 -76 q 449 -140 449 -114 q 428 -186 449 -168 q 381 -204 408 -204 q 332 -186 353 -204 q 311 -140 311 -168 z "},"ò":{"ha":757,"x_min":63,"x_max":696,"o":"m 63 293 q 103 448 63 378 q 217 558 144 518 q 382 599 290 599 q 545 558 474 599 q 656 449 617 518 q 696 293 696 379 q 656 137 696 207 q 544 26 617 67 q 379 -14 472 -14 q 217 24 289 -14 q 103 132 144 63 q 63 293 63 201 m 193 292 q 217 192 193 238 q 284 119 242 146 q 378 93 326 93 q 511 150 458 93 q 564 292 564 207 q 511 434 564 376 q 378 492 458 492 q 283 465 325 492 q 217 392 242 438 q 193 292 193 346 m 322 879 l 422 693 l 340 693 l 178 879 l 322 879 z "},"ỏ":{"ha":757,"x_min":63,"x_max":696,"o":"m 63 293 q 103 448 63 378 q 217 558 144 518 q 382 599 290 599 q 545 558 474 599 q 656 449 617 518 q 696 293 696 379 q 656 137 696 207 q 544 26 617 67 q 379 -14 472 -14 q 217 24 289 -14 q 103 132 144 63 q 63 293 63 201 m 193 292 q 217 192 193 238 q 284 119 242 146 q 378 93 326 93 q 511 150 458 93 q 564 292 564 207 q 511 434 564 376 q 378 492 458 492 q 283 465 325 492 q 217 392 242 438 q 193 292 193 346 m 351 700 q 399 742 385 725 q 414 783 414 760 q 402 819 414 806 q 368 832 390 832 q 332 822 347 832 q 304 789 317 811 l 254 821 q 311 885 278 864 q 385 907 344 907 q 463 876 435 907 q 490 799 490 846 q 463 722 490 754 q 385 658 435 690 l 351 700 z "},"ơ":{"ha":757,"x_min":63,"x_max":714,"o":"m 603 515 q 672 417 647 474 q 696 293 696 360 q 656 137 696 207 q 544 26 617 67 q 379 -14 472 -14 q 217 24 289 -14 q 103 132 144 63 q 63 293 63 201 q 103 448 63 378 q 217 558 144 518 q 382 599 290 599 q 508 576 446 599 q 583 611 557 581 q 617 704 610 642 l 714 704 q 603 515 697 558 m 378 93 q 511 150 458 93 q 564 292 564 207 q 511 434 564 376 q 378 492 458 492 q 283 465 325 492 q 217 392 242 438 q 193 292 193 346 q 217 192 193 238 q 284 119 242 146 q 378 93 326 93 z "},"ớ":{"ha":757,"x_min":63,"x_max":714,"o":"m 603 515 q 672 417 647 474 q 696 293 696 360 q 656 137 696 207 q 544 26 617 67 q 379 -14 472 -14 q 217 24 289 -14 q 103 132 144 63 q 63 293 63 201 q 103 448 63 378 q 217 558 144 518 q 382 599 290 599 q 508 576 446 599 q 583 611 557 581 q 617 704 610 642 l 714 704 q 603 515 697 558 m 378 93 q 511 150 458 93 q 564 292 564 207 q 511 434 564 376 q 378 492 458 492 q 283 465 325 492 q 217 392 242 438 q 193 292 193 346 q 217 192 193 238 q 284 119 242 146 q 378 93 326 93 m 424 683 l 340 683 l 456 869 l 600 869 l 424 683 z "},"ợ":{"ha":757,"x_min":63,"x_max":714,"o":"m 603 515 q 672 417 647 474 q 696 293 696 360 q 656 137 696 207 q 544 26 617 67 q 379 -14 472 -14 q 217 24 289 -14 q 103 132 144 63 q 63 293 63 201 q 103 448 63 378 q 217 558 144 518 q 382 599 290 599 q 508 576 446 599 q 583 611 557 581 q 617 704 610 642 l 714 704 q 603 515 697 558 m 378 93 q 511 150 458 93 q 564 292 564 207 q 511 434 564 376 q 378 492 458 492 q 283 465 325 492 q 217 392 242 438 q 193 292 193 346 q 217 192 193 238 q 284 119 242 146 q 378 93 326 93 m 311 -140 q 333 -95 311 -114 q 381 -76 354 -76 q 428 -95 407 -76 q 449 -140 449 -114 q 428 -186 449 -168 q 381 -204 408 -204 q 332 -186 353 -204 q 311 -140 311 -168 z "},"ờ":{"ha":757,"x_min":63,"x_max":714,"o":"m 603 515 q 672 417 647 474 q 696 293 696 360 q 656 137 696 207 q 544 26 617 67 q 379 -14 472 -14 q 217 24 289 -14 q 103 132 144 63 q 63 293 63 201 q 103 448 63 378 q 217 558 144 518 q 382 599 290 599 q 508 576 446 599 q 583 611 557 581 q 617 704 610 642 l 714 704 q 603 515 697 558 m 378 93 q 511 150 458 93 q 564 292 564 207 q 511 434 564 376 q 378 492 458 492 q 283 465 325 492 q 217 392 242 438 q 193 292 193 346 q 217 192 193 238 q 284 119 242 146 q 378 93 326 93 m 322 879 l 422 693 l 340 693 l 178 879 l 322 879 z "},"ở":{"ha":757,"x_min":63,"x_max":714,"o":"m 603 515 q 672 417 647 474 q 696 293 696 360 q 656 137 696 207 q 544 26 617 67 q 379 -14 472 -14 q 217 24 289 -14 q 103 132 144 63 q 63 293 63 201 q 103 448 63 378 q 217 558 144 518 q 382 599 290 599 q 508 576 446 599 q 583 611 557 581 q 617 704 610 642 l 714 704 q 603 515 697 558 m 378 93 q 511 150 458 93 q 564 292 564 207 q 511 434 564 376 q 378 492 458 492 q 283 465 325 492 q 217 392 242 438 q 193 292 193 346 q 217 192 193 238 q 284 119 242 146 q 378 93 326 93 m 351 700 q 399 742 385 725 q 414 783 414 760 q 402 819 414 806 q 368 832 390 832 q 332 822 347 832 q 304 789 317 811 l 254 821 q 311 885 278 864 q 385 907 344 907 q 463 876 435 907 q 490 799 490 846 q 463 722 490 754 q 385 658 435 690 l 351 700 z "},"ỡ":{"ha":757,"x_min":63,"x_max":714,"o":"m 169 663 q 198 785 164 735 q 289 835 232 835 q 340 821 318 835 q 389 781 361 807 q 427 747 414 757 q 457 738 440 738 q 501 835 501 738 l 565 835 q 567 807 567 825 q 536 702 567 742 q 460 663 506 663 q 400 676 424 663 q 346 718 376 690 q 313 745 326 736 q 282 754 299 754 q 245 729 258 754 q 233 663 232 704 l 169 663 m 603 515 q 672 417 647 474 q 696 293 696 360 q 656 137 696 207 q 544 26 617 67 q 379 -14 472 -14 q 217 24 289 -14 q 103 132 144 63 q 63 293 63 201 q 103 448 63 378 q 217 558 144 518 q 382 599 290 599 q 508 576 446 599 q 583 611 557 581 q 617 704 610 642 l 714 704 q 603 515 697 558 m 378 93 q 511 150 458 93 q 564 292 564 207 q 511 434 564 376 q 378 492 458 492 q 283 465 325 492 q 217 392 242 438 q 193 292 193 346 q 217 192 193 238 q 284 119 242 146 q 378 93 326 93 z "},"ő":{"ha":757,"x_min":63,"x_max":696,"o":"m 63 293 q 103 448 63 378 q 217 558 144 518 q 382 599 290 599 q 545 558 474 599 q 656 449 617 518 q 696 293 696 379 q 656 137 696 207 q 544 26 617 67 q 379 -14 472 -14 q 217 24 289 -14 q 103 132 144 63 q 63 293 63 201 m 193 292 q 217 192 193 238 q 284 119 242 146 q 378 93 326 93 q 511 150 458 93 q 564 292 564 207 q 511 434 564 376 q 378 492 458 492 q 283 465 325 492 q 217 392 242 438 q 193 292 193 346 m 296 693 l 213 693 l 328 879 l 472 879 l 296 693 m 504 690 l 421 690 l 536 876 l 681 876 l 504 690 z "},"ȏ":{"ha":757,"x_min":63,"x_max":696,"o":"m 63 293 q 103 448 63 378 q 217 558 144 518 q 382 599 290 599 q 545 558 474 599 q 656 449 617 518 q 696 293 696 379 q 656 137 696 207 q 544 26 617 67 q 379 -14 472 -14 q 217 24 289 -14 q 103 132 144 63 q 63 293 63 201 m 193 292 q 217 192 193 238 q 284 119 242 146 q 378 93 326 93 q 511 150 458 93 q 564 292 564 207 q 511 434 564 376 q 378 492 458 492 q 283 465 325 492 q 217 392 242 438 q 193 292 193 346 m 385 900 q 526 837 472 900 q 596 656 581 774 l 507 656 q 467 769 499 726 q 385 811 436 811 q 303 769 333 811 q 265 656 274 726 l 176 656 q 244 838 190 775 q 385 900 299 900 z "},"ō":{"ha":757,"x_min":63,"x_max":696,"o":"m 63 293 q 103 448 63 378 q 217 558 144 518 q 382 599 290 599 q 545 558 474 599 q 656 449 617 518 q 696 293 696 379 q 656 137 696 207 q 544 26 617 67 q 379 -14 472 -14 q 217 24 289 -14 q 103 132 144 63 q 63 293 63 201 m 193 292 q 217 192 193 238 q 284 119 242 146 q 378 93 326 93 q 511 150 458 93 q 564 292 564 207 q 511 434 564 376 q 378 492 458 492 q 283 465 325 492 q 217 392 242 438 q 193 292 193 346 m 551 774 l 551 681 l 210 681 l 210 774 l 551 774 z "},"ǫ":{"ha":763,"x_min":0,"x_max":0,"o":""},"ø":{"ha":724,"x_min":63,"x_max":696,"o":"m 611 507 q 674 411 651 467 q 696 293 696 356 q 656 137 696 207 q 544 26 617 67 q 379 -14 472 -14 q 200 33 279 -14 l 143 -33 l 79 26 l 133 89 q 63 293 63 174 q 103 448 63 378 q 217 558 144 518 q 382 599 290 599 q 543 560 472 599 l 593 617 l 658 561 l 611 507 m 193 292 q 219 188 193 236 l 465 469 q 378 492 425 492 q 283 465 325 492 q 217 392 242 438 q 193 292 193 346 m 378 93 q 511 150 458 93 q 564 292 564 207 q 529 411 564 361 l 279 124 q 378 93 322 93 z "},"ǿ":{"ha":724,"x_min":63,"x_max":696,"o":"m 611 507 q 674 411 651 467 q 696 293 696 356 q 656 137 696 207 q 544 26 617 67 q 379 -14 472 -14 q 200 33 279 -14 l 143 -33 l 79 26 l 133 89 q 63 293 63 174 q 103 448 63 378 q 217 558 144 518 q 382 599 290 599 q 543 560 472 599 l 593 617 l 658 561 l 611 507 m 193 292 q 219 188 193 236 l 465 469 q 378 492 425 492 q 283 465 325 492 q 217 392 242 438 q 193 292 193 346 m 378 93 q 511 150 458 93 q 564 292 564 207 q 529 411 564 361 l 279 124 q 378 93 322 93 m 407 664 l 324 664 l 439 850 l 583 850 l 407 664 z "},"õ":{"ha":757,"x_min":63,"x_max":696,"o":"m 63 293 q 103 448 63 378 q 217 558 144 518 q 382 599 290 599 q 545 558 474 599 q 656 449 617 518 q 696 293 696 379 q 656 137 696 207 q 544 26 617 67 q 379 -14 472 -14 q 217 24 289 -14 q 103 132 144 63 q 63 293 63 201 m 193 292 q 217 192 193 238 q 284 119 242 146 q 378 93 326 93 q 511 150 458 93 q 564 292 564 207 q 511 434 564 376 q 378 492 458 492 q 283 465 325 492 q 217 392 242 438 q 193 292 193 346 m 490 657 q 425 672 450 657 q 363 719 400 688 q 325 750 340 740 q 292 760 310 760 q 250 732 265 760 q 236 657 235 704 l 164 657 q 196 794 158 739 q 299 850 233 850 q 356 834 331 850 q 411 789 382 818 q 453 753 438 764 q 488 742 469 742 q 538 850 538 742 l 610 850 q 611 819 611 839 q 576 701 611 746 q 490 657 542 657 z "},"ȭ":{"ha":757,"x_min":63,"x_max":696,"o":"m 63 293 q 103 448 63 378 q 217 558 144 518 q 382 599 290 599 q 545 558 474 599 q 656 449 617 518 q 696 293 696 379 q 656 137 696 207 q 544 26 617 67 q 379 -14 472 -14 q 217 24 289 -14 q 103 132 144 63 q 63 293 63 201 m 193 292 q 217 192 193 238 q 284 119 242 146 q 378 93 326 93 q 511 150 458 93 q 564 292 564 207 q 511 434 564 376 q 378 492 458 492 q 283 465 325 492 q 217 392 242 438 q 193 292 193 346 m 490 657 q 425 672 450 657 q 363 719 400 688 q 325 750 340 740 q 292 760 310 760 q 250 732 265 760 q 236 657 235 704 l 164 657 q 196 794 158 739 q 299 850 233 850 q 356 834 331 850 q 411 789 382 818 q 453 753 438 764 q 488 742 469 742 q 538 850 538 742 l 610 850 q 611 819 611 839 q 576 701 611 746 q 490 657 542 657 m 563 1033 l 563 940 l 221 940 l 221 1033 l 563 1033 z "},"œ":{"ha":1110,"x_min":63,"x_max":1061,"o":"m 769 97 q 910 147 842 97 l 969 51 q 870 3 924 21 q 767 -14 817 -14 q 568 46 650 -14 q 479 2 529 18 q 378 -14 429 -14 q 213 24 285 -14 q 102 130 142 61 q 63 289 63 199 q 104 447 63 378 q 215 553 146 515 q 365 590 285 590 q 568 531 486 590 q 661 581 610 563 q 769 599 713 599 q 958 533 882 599 q 1061 349 1033 467 l 606 189 q 673 122 631 146 q 769 97 715 97 m 760 496 q 629 440 681 496 q 578 299 578 385 q 579 267 578 278 l 914 390 q 855 467 893 438 q 760 496 817 496 m 192 289 q 217 190 192 235 q 288 119 243 146 q 389 93 332 93 q 496 122 446 93 q 450 292 450 196 q 494 450 450 375 q 376 483 438 483 q 283 458 325 483 q 216 388 240 432 q 192 289 192 343 z "},"p":{"ha":824,"x_min":113,"x_max":763,"o":"m 476 599 q 622 560 557 599 q 725 451 688 521 q 763 289 763 381 q 722 130 763 199 q 611 24 682 61 q 453 -14 540 -14 q 333 13 390 -14 q 242 86 276 40 l 242 -276 l 113 -276 l 113 585 l 225 585 l 236 488 q 342 568 281 538 q 476 599 404 599 m 428 90 q 528 116 482 90 q 603 187 575 142 q 631 288 631 232 q 605 390 631 344 q 535 463 579 436 q 436 489 490 489 q 310 448 363 489 q 242 338 258 407 l 242 242 q 305 133 253 175 q 428 90 357 90 z "},"þ":{"ha":813,"x_min":110,"x_max":760,"o":"m 475 599 q 620 560 556 599 q 722 451 685 521 q 760 289 760 381 q 719 128 760 197 q 609 23 679 60 q 450 -14 539 -14 q 327 15 385 -14 q 239 93 269 44 l 239 -276 l 110 -276 l 110 1076 l 240 1076 l 240 493 q 342 570 281 542 q 475 599 404 599 m 425 90 q 526 116 479 90 q 600 187 572 142 q 628 288 628 232 q 601 390 628 343 q 531 463 575 436 q 435 489 486 489 q 308 448 360 489 q 240 338 256 407 l 240 238 q 303 131 251 172 q 425 90 356 90 z "},"q":{"ha":824,"x_min":63,"x_max":713,"o":"m 713 585 l 713 -276 l 583 -276 l 583 86 q 483 14 547 42 q 343 -14 419 -14 q 201 24 265 -14 q 100 130 138 61 q 63 289 63 199 q 103 450 63 379 q 213 560 144 521 q 365 599 282 599 q 489 572 433 599 q 582 497 544 544 l 582 585 l 713 585 m 582 338 q 514 447 567 406 q 388 489 461 489 q 290 463 335 489 q 219 390 246 436 q 193 288 193 343 q 219 187 193 232 q 290 116 246 142 q 388 90 335 90 q 515 133 461 90 q 582 240 569 175 l 582 338 z "},"r":{"ha":522,"x_min":113,"x_max":468,"o":"m 238 439 q 301 522 260 486 q 388 578 342 558 q 468 599 433 597 l 463 469 q 349 444 400 472 q 270 367 299 417 q 242 263 242 318 l 242 0 l 113 0 l 113 575 l 228 575 l 238 439 z "},"ŕ":{"ha":522,"x_min":113,"x_max":472,"o":"m 238 439 q 301 522 260 486 q 388 578 342 558 q 468 599 433 597 l 463 469 q 349 444 400 472 q 270 367 299 417 q 242 263 242 318 l 242 0 l 113 0 l 113 575 l 228 575 l 238 439 m 296 664 l 213 664 l 328 850 l 472 850 l 296 664 z "},"ř":{"ha":522,"x_min":28,"x_max":492,"o":"m 238 439 q 301 522 260 486 q 388 578 342 558 q 468 599 433 597 l 463 469 q 349 444 400 472 q 270 367 299 417 q 242 263 242 318 l 242 0 l 113 0 l 113 575 l 228 575 l 238 439 m 492 885 l 263 647 l 261 647 l 28 885 l 149 885 l 264 765 l 372 885 l 492 885 z "},"ŗ":{"ha":522,"x_min":82,"x_max":468,"o":"m 238 439 q 301 522 260 486 q 388 578 342 558 q 468 599 433 597 l 463 469 q 349 444 400 472 q 270 367 299 417 q 242 263 242 318 l 242 0 l 113 0 l 113 575 l 228 575 l 238 439 m 82 -235 q 124 -173 110 -212 q 139 -89 139 -133 q 136 -50 139 -75 l 251 -50 q 254 -81 254 -69 q 226 -194 254 -137 q 149 -281 199 -251 l 82 -235 z "},"ȑ":{"ha":522,"x_min":-39,"x_max":468,"o":"m 238 439 q 301 522 260 486 q 388 578 342 558 q 468 599 433 597 l 463 469 q 349 444 400 472 q 270 367 299 417 q 242 263 242 318 l 242 0 l 113 0 l 113 575 l 228 575 l 238 439 m 106 861 l 206 675 l 124 675 l -39 861 l 106 861 m 303 861 l 403 675 l 321 675 l 158 861 l 303 861 z "},"ȓ":{"ha":522,"x_min":47,"x_max":468,"o":"m 238 439 q 301 522 260 486 q 388 578 342 558 q 468 599 433 597 l 463 469 q 349 444 400 472 q 270 367 299 417 q 242 263 242 318 l 242 0 l 113 0 l 113 575 l 228 575 l 238 439 m 256 882 q 397 819 343 882 q 467 638 451 756 l 378 638 q 338 751 369 708 q 256 793 307 793 q 174 751 204 793 q 136 638 144 708 l 47 638 q 115 819 61 757 q 256 882 169 882 z "},"s":{"ha":567,"x_min":60,"x_max":499,"o":"m 275 -12 q 153 10 211 -12 q 60 75 96 32 l 115 150 q 188 99 150 117 q 264 81 226 81 q 339 99 310 81 q 368 154 368 117 q 350 201 368 183 q 309 228 332 219 q 232 253 286 236 q 85 421 85 300 q 138 544 85 493 q 288 596 192 596 q 396 581 349 596 q 483 532 443 565 l 432 453 q 376 490 410 476 q 311 506 342 504 q 244 487 272 506 q 217 436 217 468 q 235 392 217 410 q 272 367 253 375 q 349 342 292 360 q 459 281 419 318 q 499 179 499 243 q 440 42 499 96 q 275 -12 382 -12 z "},"ś":{"ha":567,"x_min":60,"x_max":506,"o":"m 275 -12 q 153 10 211 -12 q 60 75 96 32 l 115 150 q 188 99 150 117 q 264 81 226 81 q 339 99 310 81 q 368 154 368 117 q 350 201 368 183 q 309 228 332 219 q 232 253 286 236 q 85 421 85 300 q 138 544 85 493 q 288 596 192 596 q 396 581 349 596 q 483 532 443 565 l 432 453 q 376 490 410 476 q 311 506 342 504 q 244 487 272 506 q 217 436 217 468 q 235 392 217 410 q 272 367 253 375 q 349 342 292 360 q 459 281 419 318 q 499 179 499 243 q 440 42 499 96 q 275 -12 382 -12 m 329 674 l 246 674 l 361 860 l 506 860 l 329 674 z "},"š":{"ha":567,"x_min":60,"x_max":525,"o":"m 275 -12 q 153 10 211 -12 q 60 75 96 32 l 115 150 q 188 99 150 117 q 264 81 226 81 q 339 99 310 81 q 368 154 368 117 q 350 201 368 183 q 309 228 332 219 q 232 253 286 236 q 85 421 85 300 q 138 544 85 493 q 288 596 192 596 q 396 581 349 596 q 483 532 443 565 l 432 453 q 376 490 410 476 q 311 506 342 504 q 244 487 272 506 q 217 436 217 468 q 235 392 217 410 q 272 367 253 375 q 349 342 292 360 q 459 281 419 318 q 499 179 499 243 q 440 42 499 96 q 275 -12 382 -12 m 525 894 l 296 657 l 294 657 l 61 894 l 182 894 l 297 775 l 406 894 l 525 894 z "},"ş":{"ha":567,"x_min":60,"x_max":499,"o":"m 297 -71 q 419 -101 374 -69 q 465 -192 465 -133 q 410 -293 465 -258 q 274 -328 356 -328 q 126 -275 182 -328 l 168 -221 q 208 -247 183 -237 q 261 -257 232 -257 q 327 -240 299 -257 q 356 -194 356 -224 q 334 -150 356 -168 q 265 -132 313 -132 q 175 -149 222 -132 l 151 -86 l 233 -10 q 135 19 181 -3 q 60 75 90 40 l 115 150 q 188 99 150 117 q 264 81 226 81 q 339 99 310 81 q 368 154 368 117 q 350 201 368 183 q 309 228 332 219 q 232 253 286 236 q 85 421 85 300 q 138 544 85 493 q 288 596 192 596 q 396 581 349 596 q 483 532 443 565 l 432 453 q 376 490 410 476 q 311 506 342 504 q 244 487 272 506 q 217 436 217 468 q 235 392 217 410 q 272 367 253 375 q 349 342 292 360 q 459 281 419 318 q 499 179 499 243 q 458 61 499 111 q 342 -6 418 11 l 286 -72 q 297 -71 290 -71 z "},"ŝ":{"ha":567,"x_min":53,"x_max":517,"o":"m 275 -12 q 153 10 211 -12 q 60 75 96 32 l 115 150 q 188 99 150 117 q 264 81 226 81 q 339 99 310 81 q 368 154 368 117 q 350 201 368 183 q 309 228 332 219 q 232 253 286 236 q 85 421 85 300 q 138 544 85 493 q 288 596 192 596 q 396 581 349 596 q 483 532 443 565 l 432 453 q 376 490 410 476 q 311 506 342 504 q 244 487 272 506 q 217 436 217 468 q 235 392 217 410 q 272 367 253 375 q 349 342 292 360 q 459 281 419 318 q 499 179 499 243 q 440 42 499 96 q 275 -12 382 -12 m 396 685 l 282 804 l 174 685 l 53 685 l 282 922 l 283 922 l 517 685 l 396 685 z "},"ș":{"ha":567,"x_min":60,"x_max":499,"o":"m 275 -12 q 153 10 211 -12 q 60 75 96 32 l 115 150 q 188 99 150 117 q 264 81 226 81 q 339 99 310 81 q 368 154 368 117 q 350 201 368 183 q 309 228 332 219 q 232 253 286 236 q 85 421 85 300 q 138 544 85 493 q 288 596 192 596 q 396 581 349 596 q 483 532 443 565 l 432 453 q 376 490 410 476 q 311 506 342 504 q 244 487 272 506 q 217 436 217 468 q 235 392 217 410 q 272 367 253 375 q 349 342 292 360 q 459 281 419 318 q 499 179 499 243 q 440 42 499 96 q 275 -12 382 -12 m 168 -244 q 210 -183 196 -222 q 225 -99 225 -143 q 222 -60 225 -85 l 338 -60 q 340 -90 340 -79 q 313 -204 340 -147 q 235 -290 285 -261 l 168 -244 z "},"ß":{"ha":836,"x_min":61,"x_max":768,"o":"m 151 629 q 189 787 151 719 q 291 890 226 854 q 436 925 356 925 q 579 898 519 925 q 669 826 639 871 q 700 729 700 782 q 674 620 700 668 q 597 549 647 572 q 722 451 676 518 q 768 274 768 383 q 691 63 768 139 q 492 -14 614 -14 q 399 1 439 -14 q 335 38 358 17 l 385 117 q 479 86 424 86 q 595 142 553 86 q 638 281 638 197 q 590 428 638 374 q 465 481 543 483 l 457 481 l 457 596 q 538 624 507 596 q 569 699 569 653 q 535 785 569 751 q 439 818 500 818 q 319 759 357 818 q 282 588 282 700 l 282 0 l 151 0 l 151 476 l 61 476 l 61 583 l 151 583 l 151 629 z "},"t":{"ha":500,"x_min":63,"x_max":456,"o":"m 299 828 l 299 574 l 456 574 l 456 471 l 299 471 l 299 0 l 168 0 l 168 471 l 63 471 l 63 574 l 168 574 l 168 828 l 299 828 z "},"ŧ":{"ha":500,"x_min":46,"x_max":456,"o":"m 299 471 l 299 329 l 432 329 l 432 207 l 299 207 l 299 0 l 168 0 l 168 207 l 46 207 l 46 329 l 168 329 l 168 471 l 63 471 l 63 574 l 168 574 l 168 828 l 299 828 l 299 574 l 456 574 l 456 471 l 299 471 z "},"ť":{"ha":500,"x_min":63,"x_max":522,"o":"m 299 828 l 299 574 l 456 574 l 456 471 l 299 471 l 299 0 l 168 0 l 168 471 l 63 471 l 63 574 l 168 574 l 168 828 l 299 828 m 350 722 q 392 784 378 744 q 407 868 407 824 q 404 907 407 882 l 519 907 q 522 876 522 888 q 494 763 522 819 q 417 676 467 706 l 350 722 z "},"ţ":{"ha":500,"x_min":63,"x_max":456,"o":"m 286 0 l 233 -62 q 244 -61 238 -61 q 367 -92 321 -60 q 413 -182 413 -124 q 358 -283 413 -249 q 221 -318 303 -318 q 74 -265 129 -318 l 115 -211 q 155 -237 131 -228 q 208 -247 179 -247 q 274 -231 246 -247 q 303 -185 303 -214 q 281 -140 303 -158 q 213 -122 260 -122 q 122 -139 169 -122 l 99 -76 l 181 0 l 168 0 l 168 471 l 63 471 l 63 574 l 168 574 l 168 828 l 299 828 l 299 574 l 456 574 l 456 471 l 299 471 l 299 0 l 286 0 z "},"ț":{"ha":500,"x_min":63,"x_max":456,"o":"m 299 828 l 299 574 l 456 574 l 456 471 l 299 471 l 299 0 l 168 0 l 168 471 l 63 471 l 63 574 l 168 574 l 168 828 l 299 828 m 115 -235 q 158 -173 143 -212 q 172 -89 172 -133 q 169 -50 172 -75 l 285 -50 q 288 -81 288 -69 q 260 -194 288 -137 q 182 -281 232 -251 l 115 -235 z "},"u":{"ha":760,"x_min":113,"x_max":647,"o":"m 647 575 l 647 0 l 531 0 l 522 110 q 432 15 493 51 q 296 -22 371 -22 q 166 26 217 -22 q 113 150 115 74 l 113 575 l 242 575 l 242 196 q 270 119 244 147 q 347 89 296 90 q 433 117 394 89 q 495 196 472 146 q 518 307 518 246 l 518 575 l 647 575 z "},"ú":{"ha":760,"x_min":113,"x_max":647,"o":"m 647 575 l 647 0 l 531 0 l 522 110 q 432 15 493 51 q 296 -22 371 -22 q 166 26 217 -22 q 113 150 115 74 l 113 575 l 242 575 l 242 196 q 270 119 244 147 q 347 89 296 90 q 433 117 394 89 q 495 196 472 146 q 518 307 518 246 l 518 575 l 647 575 m 426 683 l 343 683 l 458 869 l 603 869 l 426 683 z "},"ŭ":{"ha":760,"x_min":113,"x_max":647,"o":"m 647 575 l 647 0 l 531 0 l 522 110 q 432 15 493 51 q 296 -22 371 -22 q 166 26 217 -22 q 113 150 115 74 l 113 575 l 242 575 l 242 196 q 270 119 244 147 q 347 89 296 90 q 433 117 394 89 q 495 196 472 146 q 518 307 518 246 l 518 575 l 647 575 m 383 665 q 242 728 296 665 q 172 910 188 792 l 261 910 q 301 797 269 839 q 383 754 332 754 q 465 797 435 754 q 503 910 494 839 l 592 910 q 524 728 578 790 q 383 665 469 665 z "},"û":{"ha":760,"x_min":113,"x_max":647,"o":"m 647 575 l 647 0 l 531 0 l 522 110 q 432 15 493 51 q 296 -22 371 -22 q 166 26 217 -22 q 113 150 115 74 l 113 575 l 242 575 l 242 196 q 270 119 244 147 q 347 89 296 90 q 433 117 394 89 q 495 196 472 146 q 518 307 518 246 l 518 575 l 647 575 m 493 693 l 379 813 l 271 693 l 150 693 l 379 931 l 381 931 l 614 693 l 493 693 z "},"ȕ":{"ha":760,"x_min":92,"x_max":647,"o":"m 647 575 l 647 0 l 531 0 l 522 110 q 432 15 493 51 q 296 -22 371 -22 q 166 26 217 -22 q 113 150 115 74 l 113 575 l 242 575 l 242 196 q 270 119 244 147 q 347 89 296 90 q 433 117 394 89 q 495 196 472 146 q 518 307 518 246 l 518 575 l 647 575 m 236 879 l 336 693 l 254 693 l 92 879 l 236 879 m 433 879 l 533 693 l 451 693 l 289 879 l 433 879 z "},"ü":{"ha":760,"x_min":113,"x_max":647,"o":"m 647 575 l 647 0 l 531 0 l 522 110 q 432 15 493 51 q 296 -22 371 -22 q 166 26 217 -22 q 113 150 115 74 l 113 575 l 242 575 l 242 196 q 270 119 244 147 q 347 89 296 90 q 433 117 394 89 q 495 196 472 146 q 518 307 518 246 l 518 575 l 647 575 m 178 750 q 200 802 178 781 q 251 824 222 824 q 301 802 279 824 q 324 750 324 781 q 301 698 324 719 q 251 676 279 676 q 200 697 222 676 q 178 750 178 718 m 438 750 q 460 802 438 781 q 511 824 482 824 q 561 802 539 824 q 583 750 583 781 q 561 698 583 719 q 511 676 539 676 q 460 697 482 676 q 438 750 438 718 z "},"ụ":{"ha":760,"x_min":113,"x_max":647,"o":"m 647 575 l 647 0 l 531 0 l 522 110 q 432 15 493 51 q 296 -22 371 -22 q 166 26 217 -22 q 113 150 115 74 l 113 575 l 242 575 l 242 196 q 270 119 244 147 q 347 89 296 90 q 433 117 394 89 q 495 196 472 146 q 518 307 518 246 l 518 575 l 647 575 m 313 -140 q 334 -95 313 -114 q 382 -76 356 -76 q 429 -95 408 -76 q 450 -140 450 -114 q 430 -186 450 -168 q 382 -204 410 -204 q 333 -186 354 -204 q 313 -140 313 -168 z "},"ù":{"ha":760,"x_min":113,"x_max":647,"o":"m 647 575 l 647 0 l 531 0 l 522 110 q 432 15 493 51 q 296 -22 371 -22 q 166 26 217 -22 q 113 150 115 74 l 113 575 l 242 575 l 242 196 q 270 119 244 147 q 347 89 296 90 q 433 117 394 89 q 495 196 472 146 q 518 307 518 246 l 518 575 l 647 575 m 325 879 l 425 693 l 343 693 l 181 879 l 325 879 z "},"ủ":{"ha":760,"x_min":113,"x_max":647,"o":"m 647 575 l 647 0 l 531 0 l 522 110 q 432 15 493 51 q 296 -22 371 -22 q 166 26 217 -22 q 113 150 115 74 l 113 575 l 242 575 l 242 196 q 270 119 244 147 q 347 89 296 90 q 433 117 394 89 q 495 196 472 146 q 518 307 518 246 l 518 575 l 647 575 m 354 700 q 402 742 388 725 q 417 783 417 760 q 405 819 417 806 q 371 832 393 832 q 335 822 350 832 q 307 789 319 811 l 257 821 q 314 885 281 864 q 388 907 347 907 q 465 876 438 907 q 493 799 493 846 q 465 722 493 754 q 388 658 438 690 l 354 700 z "},"ư":{"ha":760,"x_min":113,"x_max":799,"o":"m 799 704 q 749 564 788 611 q 647 503 711 517 l 647 0 l 531 0 l 522 110 q 432 15 493 51 q 296 -22 371 -22 q 166 26 217 -22 q 113 150 115 74 l 113 575 l 242 575 l 242 196 q 270 119 244 147 q 347 89 296 90 q 433 117 394 89 q 495 196 472 146 q 518 307 518 246 l 518 575 l 574 575 q 663 606 632 575 q 701 704 693 636 l 799 704 z "},"ứ":{"ha":760,"x_min":113,"x_max":799,"o":"m 799 704 q 749 564 788 611 q 647 503 711 517 l 647 0 l 531 0 l 522 110 q 432 15 493 51 q 296 -22 371 -22 q 166 26 217 -22 q 113 150 115 74 l 113 575 l 242 575 l 242 196 q 270 119 244 147 q 347 89 296 90 q 433 117 394 89 q 495 196 472 146 q 518 307 518 246 l 518 575 l 574 575 q 663 606 632 575 q 701 704 693 636 l 799 704 m 426 683 l 343 683 l 458 869 l 603 869 l 426 683 z "},"ự":{"ha":760,"x_min":113,"x_max":799,"o":"m 799 704 q 749 564 788 611 q 647 503 711 517 l 647 0 l 531 0 l 522 110 q 432 15 493 51 q 296 -22 371 -22 q 166 26 217 -22 q 113 150 115 74 l 113 575 l 242 575 l 242 196 q 270 119 244 147 q 347 89 296 90 q 433 117 394 89 q 495 196 472 146 q 518 307 518 246 l 518 575 l 574 575 q 663 606 632 575 q 701 704 693 636 l 799 704 m 313 -140 q 334 -95 313 -114 q 382 -76 356 -76 q 429 -95 408 -76 q 450 -140 450 -114 q 430 -186 450 -168 q 382 -204 410 -204 q 333 -186 354 -204 q 313 -140 313 -168 z "},"ừ":{"ha":760,"x_min":113,"x_max":799,"o":"m 799 704 q 749 564 788 611 q 647 503 711 517 l 647 0 l 531 0 l 522 110 q 432 15 493 51 q 296 -22 371 -22 q 166 26 217 -22 q 113 150 115 74 l 113 575 l 242 575 l 242 196 q 270 119 244 147 q 347 89 296 90 q 433 117 394 89 q 495 196 472 146 q 518 307 518 246 l 518 575 l 574 575 q 663 606 632 575 q 701 704 693 636 l 799 704 m 325 879 l 425 693 l 343 693 l 181 879 l 325 879 z "},"ử":{"ha":760,"x_min":113,"x_max":799,"o":"m 799 704 q 749 564 788 611 q 647 503 711 517 l 647 0 l 531 0 l 522 110 q 432 15 493 51 q 296 -22 371 -22 q 166 26 217 -22 q 113 150 115 74 l 113 575 l 242 575 l 242 196 q 270 119 244 147 q 347 89 296 90 q 433 117 394 89 q 495 196 472 146 q 518 307 518 246 l 518 575 l 574 575 q 663 606 632 575 q 701 704 693 636 l 799 704 m 354 700 q 402 742 388 725 q 417 783 417 760 q 405 819 417 806 q 371 832 393 832 q 335 822 350 832 q 307 789 319 811 l 257 821 q 314 885 281 864 q 388 907 347 907 q 465 876 438 907 q 493 799 493 846 q 465 722 493 754 q 388 658 438 690 l 354 700 z "},"ữ":{"ha":760,"x_min":113,"x_max":799,"o":"m 799 704 q 749 564 788 611 q 647 503 711 517 l 647 0 l 531 0 l 522 110 q 432 15 493 51 q 296 -22 371 -22 q 166 26 217 -22 q 113 150 115 74 l 113 575 l 242 575 l 242 196 q 270 119 244 147 q 347 89 296 90 q 433 117 394 89 q 495 196 472 146 q 518 307 518 246 l 518 575 l 574 575 q 663 606 632 575 q 701 704 693 636 l 799 704 m 493 657 q 428 672 453 657 q 365 719 403 688 q 328 750 343 740 q 294 760 313 760 q 253 732 268 760 q 239 657 238 704 l 167 657 q 199 794 161 739 q 301 850 236 850 q 359 834 333 850 q 414 789 385 818 q 456 753 440 764 q 490 742 472 742 q 540 850 540 742 l 613 850 q 614 819 614 839 q 579 701 614 746 q 493 657 544 657 z "},"ű":{"ha":760,"x_min":113,"x_max":683,"o":"m 647 575 l 647 0 l 531 0 l 522 110 q 432 15 493 51 q 296 -22 371 -22 q 166 26 217 -22 q 113 150 115 74 l 113 575 l 242 575 l 242 196 q 270 119 244 147 q 347 89 296 90 q 433 117 394 89 q 495 196 472 146 q 518 307 518 246 l 518 575 l 647 575 m 299 693 l 215 693 l 331 879 l 475 879 l 299 693 m 507 690 l 424 690 l 539 876 l 683 876 l 507 690 z "},"ȗ":{"ha":760,"x_min":113,"x_max":647,"o":"m 647 575 l 647 0 l 531 0 l 522 110 q 432 15 493 51 q 296 -22 371 -22 q 166 26 217 -22 q 113 150 115 74 l 113 575 l 242 575 l 242 196 q 270 119 244 147 q 347 89 296 90 q 433 117 394 89 q 495 196 472 146 q 518 307 518 246 l 518 575 l 647 575 m 388 900 q 529 837 475 900 q 599 656 583 774 l 510 656 q 470 769 501 726 q 388 811 439 811 q 306 769 336 811 q 268 656 276 726 l 179 656 q 247 838 193 775 q 388 900 301 900 z "},"ū":{"ha":760,"x_min":113,"x_max":647,"o":"m 647 575 l 647 0 l 531 0 l 522 110 q 432 15 493 51 q 296 -22 371 -22 q 166 26 217 -22 q 113 150 115 74 l 113 575 l 242 575 l 242 196 q 270 119 244 147 q 347 89 296 90 q 433 117 394 89 q 495 196 472 146 q 518 307 518 246 l 518 575 l 647 575 m 554 774 l 554 681 l 213 681 l 213 774 l 554 774 z "},"ų":{"ha":765,"x_min":113,"x_max":733,"o":"m 733 -206 q 664 -272 708 -246 q 576 -299 619 -299 q 460 -257 507 -299 q 414 -147 414 -215 q 446 -58 414 -101 q 529 13 478 -14 l 522 110 q 432 15 493 51 q 296 -22 371 -22 q 166 26 217 -22 q 113 150 115 74 l 113 575 l 242 575 l 242 196 q 270 119 244 147 q 347 89 296 90 q 433 117 394 89 q 495 196 472 146 q 518 307 518 246 l 518 575 l 647 575 l 647 1 l 650 0 q 555 -65 588 -32 q 522 -137 522 -97 q 541 -189 522 -172 q 589 -206 560 -206 q 683 -140 642 -206 l 733 -206 z "},"ů":{"ha":760,"x_min":113,"x_max":647,"o":"m 647 575 l 647 0 l 531 0 l 522 110 q 432 15 493 51 q 296 -22 371 -22 q 166 26 217 -22 q 113 150 115 74 l 113 575 l 242 575 l 242 196 q 270 119 244 147 q 347 89 296 90 q 433 117 394 89 q 495 196 472 146 q 518 307 518 246 l 518 575 l 647 575 m 240 771 q 277 860 240 826 q 371 894 314 894 q 463 860 426 894 q 500 771 500 825 q 463 681 500 717 q 371 646 426 646 q 277 681 314 646 q 240 771 240 715 m 311 768 q 328 724 311 742 q 371 707 344 707 q 413 724 396 707 q 429 768 429 742 q 413 814 429 797 q 371 831 396 831 q 328 814 344 831 q 311 768 311 797 z "},"ũ":{"ha":760,"x_min":113,"x_max":647,"o":"m 647 575 l 647 0 l 531 0 l 522 110 q 432 15 493 51 q 296 -22 371 -22 q 166 26 217 -22 q 113 150 115 74 l 113 575 l 242 575 l 242 196 q 270 119 244 147 q 347 89 296 90 q 433 117 394 89 q 495 196 472 146 q 518 307 518 246 l 518 575 l 647 575 m 493 657 q 428 672 453 657 q 365 719 403 688 q 328 750 343 740 q 294 760 313 760 q 253 732 268 760 q 239 657 238 704 l 167 657 q 199 794 161 739 q 301 850 236 850 q 359 834 333 850 q 414 789 385 818 q 456 753 440 764 q 490 742 472 742 q 540 850 540 742 l 613 850 q 614 819 614 839 q 579 701 614 746 q 493 657 544 657 z "},"v":{"ha":686,"x_min":26,"x_max":660,"o":"m 660 575 l 353 -17 l 346 -17 l 26 575 l 181 575 l 354 208 l 515 575 l 660 575 z "},"w":{"ha":938,"x_min":26,"x_max":911,"o":"m 911 575 l 646 -35 l 461 360 l 293 -35 l 26 575 l 154 575 l 308 226 l 415 476 l 369 575 l 482 575 l 638 218 l 783 575 l 911 575 z "},"ẃ":{"ha":938,"x_min":26,"x_max":911,"o":"m 911 575 l 646 -35 l 461 360 l 293 -35 l 26 575 l 154 575 l 308 226 l 415 476 l 369 575 l 482 575 l 638 218 l 783 575 l 911 575 m 513 664 l 429 664 l 544 850 l 689 850 l 513 664 z "},"ŵ":{"ha":938,"x_min":26,"x_max":911,"o":"m 911 575 l 646 -35 l 461 360 l 293 -35 l 26 575 l 154 575 l 308 226 l 415 476 l 369 575 l 482 575 l 638 218 l 783 575 l 911 575 m 579 675 l 465 794 l 357 675 l 236 675 l 465 913 l 467 913 l 700 675 l 579 675 z "},"ẅ":{"ha":938,"x_min":26,"x_max":911,"o":"m 911 575 l 646 -35 l 461 360 l 293 -35 l 26 575 l 154 575 l 308 226 l 415 476 l 369 575 l 482 575 l 638 218 l 783 575 l 911 575 m 264 732 q 286 784 264 763 q 338 806 308 806 q 388 784 365 806 q 410 732 410 763 q 388 680 410 701 q 338 658 365 658 q 286 679 308 658 q 264 732 264 700 m 524 732 q 546 784 524 763 q 597 806 568 806 q 647 784 625 806 q 669 732 669 763 q 647 680 669 701 q 597 658 625 658 q 546 679 568 658 q 524 732 524 700 z "},"ẁ":{"ha":938,"x_min":26,"x_max":911,"o":"m 911 575 l 646 -35 l 461 360 l 293 -35 l 26 575 l 154 575 l 308 226 l 415 476 l 369 575 l 482 575 l 638 218 l 783 575 l 911 575 m 411 861 l 511 675 l 429 675 l 267 861 l 411 861 z "},"x":{"ha":647,"x_min":26,"x_max":621,"o":"m 464 0 l 310 203 l 165 0 l 33 0 l 244 289 l 26 575 l 188 575 l 339 375 l 468 575 l 599 575 l 399 296 l 621 0 l 464 0 z "},"y":{"ha":686,"x_min":26,"x_max":660,"o":"m 660 575 l 289 -276 l 161 -276 l 293 19 l 26 575 l 172 575 l 358 165 l 540 575 l 660 575 z "},"ý":{"ha":686,"x_min":26,"x_max":660,"o":"m 660 575 l 289 -276 l 161 -276 l 293 19 l 26 575 l 172 575 l 358 165 l 540 575 l 660 575 m 397 664 l 314 664 l 429 850 l 574 850 l 397 664 z "},"ŷ":{"ha":686,"x_min":26,"x_max":660,"o":"m 660 575 l 289 -276 l 161 -276 l 293 19 l 26 575 l 172 575 l 358 165 l 540 575 l 660 575 m 464 675 l 350 794 l 242 675 l 121 675 l 350 913 l 351 913 l 585 675 l 464 675 z "},"ÿ":{"ha":686,"x_min":26,"x_max":660,"o":"m 660 575 l 289 -276 l 161 -276 l 293 19 l 26 575 l 172 575 l 358 165 l 540 575 l 660 575 m 149 732 q 171 784 149 763 q 222 806 193 806 q 272 784 250 806 q 294 732 294 763 q 272 680 294 701 q 222 658 250 658 q 171 679 193 658 q 149 732 149 700 m 408 732 q 431 784 408 763 q 482 806 453 806 q 532 784 510 806 q 554 732 554 763 q 532 680 554 701 q 482 658 510 658 q 431 679 453 658 q 408 732 408 700 z "},"ỵ":{"ha":686,"x_min":26,"x_max":660,"o":"m 660 575 l 289 -276 l 161 -276 l 293 19 l 26 575 l 172 575 l 358 165 l 540 575 l 660 575 m 481 -150 q 502 -105 481 -124 q 550 -86 524 -86 q 597 -105 576 -86 q 618 -150 618 -124 q 598 -196 618 -178 q 550 -214 578 -214 q 501 -196 522 -214 q 481 -150 481 -178 z "},"ỳ":{"ha":686,"x_min":26,"x_max":660,"o":"m 660 575 l 289 -276 l 161 -276 l 293 19 l 26 575 l 172 575 l 358 165 l 540 575 l 660 575 m 296 861 l 396 675 l 314 675 l 151 861 l 296 861 z "},"ỷ":{"ha":686,"x_min":26,"x_max":660,"o":"m 660 575 l 289 -276 l 161 -276 l 293 19 l 26 575 l 172 575 l 358 165 l 540 575 l 660 575 m 325 682 q 373 724 358 707 q 388 765 388 742 q 376 801 388 788 q 342 814 364 814 q 306 803 321 814 q 278 771 290 793 l 228 803 q 285 867 251 846 q 358 889 318 889 q 436 858 408 889 q 464 781 464 828 q 436 704 464 736 q 358 640 408 672 l 325 682 z "},"ȳ":{"ha":686,"x_min":26,"x_max":660,"o":"m 660 575 l 289 -276 l 161 -276 l 293 19 l 26 575 l 172 575 l 358 165 l 540 575 l 660 575 m 525 756 l 525 663 l 183 663 l 183 756 l 525 756 z "},"ỹ":{"ha":686,"x_min":26,"x_max":660,"o":"m 660 575 l 289 -276 l 161 -276 l 293 19 l 26 575 l 172 575 l 358 165 l 540 575 l 660 575 m 464 639 q 399 654 424 639 q 336 701 374 669 q 299 732 314 722 q 265 742 283 742 q 224 714 239 742 q 210 639 208 686 l 138 639 q 169 776 132 721 q 272 832 207 832 q 330 816 304 832 q 385 771 356 800 q 427 735 411 746 q 461 724 443 724 q 511 832 511 724 l 583 832 q 585 801 585 821 q 550 683 585 728 q 464 639 515 639 z "},"z":{"ha":643,"x_min":39,"x_max":576,"o":"m 250 107 l 571 107 l 571 0 l 39 0 l 365 469 l 167 469 q 92 497 121 469 q 63 575 63 524 l 63 631 l 161 631 l 161 613 q 172 583 161 590 q 208 575 182 575 l 576 575 l 250 107 z "},"ź":{"ha":643,"x_min":39,"x_max":576,"o":"m 250 107 l 571 107 l 571 0 l 39 0 l 365 469 l 167 469 q 92 497 121 469 q 63 575 63 524 l 63 631 l 161 631 l 161 613 q 172 583 161 590 q 208 575 182 575 l 576 575 l 250 107 m 371 664 l 288 664 l 403 850 l 547 850 l 371 664 z "},"ž":{"ha":643,"x_min":39,"x_max":576,"o":"m 250 107 l 571 107 l 571 0 l 39 0 l 365 469 l 167 469 q 92 497 121 469 q 63 575 63 524 l 63 631 l 161 631 l 161 613 q 172 583 161 590 q 208 575 182 575 l 576 575 l 250 107 m 567 885 l 338 647 l 336 647 l 103 885 l 224 885 l 339 765 l 447 885 l 567 885 z "},"ż":{"ha":643,"x_min":39,"x_max":576,"o":"m 250 107 l 571 107 l 571 0 l 39 0 l 365 469 l 167 469 q 92 497 121 469 q 63 575 63 524 l 63 631 l 161 631 l 161 613 q 172 583 161 590 q 208 575 182 575 l 576 575 l 250 107 m 251 782 q 275 833 251 813 q 329 854 299 854 q 383 833 360 854 q 406 782 406 813 q 383 731 406 751 q 329 710 360 710 q 275 731 299 710 q 251 782 251 751 z "},"ﬁ":{"ha":806,"x_min":61,"x_max":710,"o":"m 160 460 l 61 460 l 61 576 l 160 576 l 160 818 q 217 1010 160 943 q 383 1076 274 1076 q 449 1067 414 1076 q 510 1042 483 1058 l 454 947 q 396 969 433 969 q 316 933 343 969 q 289 817 289 897 l 289 576 l 454 576 l 454 460 l 289 460 l 289 0 l 160 0 l 160 460 m 556 782 q 579 833 556 813 q 633 854 603 854 q 687 833 664 854 q 710 782 710 813 q 687 731 710 751 q 633 710 664 710 q 579 731 603 710 q 556 782 556 751 m 694 575 l 694 0 l 565 0 l 565 575 l 694 575 z "},"ﬂ":{"ha":806,"x_min":61,"x_max":694,"o":"m 160 460 l 61 460 l 61 576 l 160 576 l 160 818 q 217 1010 160 943 q 383 1076 274 1076 q 449 1067 414 1076 q 510 1042 483 1058 l 454 947 q 396 969 433 969 q 316 933 343 969 q 289 817 289 897 l 289 576 l 454 576 l 454 460 l 289 460 l 289 0 l 160 0 l 160 460 m 694 1076 l 694 0 l 565 0 l 565 1076 l 694 1076 z "},"ª":{"ha":556,"x_min":46,"x_max":471,"o":"m 471 993 l 471 594 l 371 594 l 371 656 q 312 607 349 628 q 229 586 275 586 q 97 641 149 586 q 46 794 46 696 q 71 906 46 858 q 137 980 96 954 q 226 1006 178 1006 q 313 987 276 1006 q 372 936 350 968 l 378 993 l 471 993 m 260 668 q 333 694 303 668 q 371 765 364 721 l 371 833 q 329 899 360 874 q 258 925 299 925 q 178 890 211 925 q 146 797 146 854 q 179 706 146 743 q 260 668 213 668 z "},"º":{"ha":524,"x_min":46,"x_max":479,"o":"m 46 793 q 74 901 46 853 q 151 976 101 949 q 263 1003 200 1003 q 374 976 325 1003 q 451 901 424 949 q 479 793 479 853 q 419 643 479 703 q 263 583 358 583 q 107 641 168 583 q 46 793 46 699 m 147 792 q 180 706 147 740 q 261 671 213 671 q 344 706 311 671 q 376 792 376 740 q 344 880 376 844 q 261 915 311 915 q 180 879 213 915 q 147 792 147 843 z "},"Δ":{"ha":1025,"x_min":44,"x_max":982,"o":"m 982 0 l 44 0 l 510 1046 l 517 1046 l 982 0 m 514 750 l 240 129 l 783 129 l 514 750 z "},"μ":{"ha":760,"x_min":113,"x_max":647,"o":"m 647 575 l 647 0 l 531 0 l 522 110 q 432 15 493 51 q 296 -22 371 -22 q 231 -12 265 -22 l 231 -326 l 113 -326 l 113 575 l 242 575 l 242 196 q 270 119 244 147 q 347 89 296 90 q 433 117 394 89 q 495 196 472 146 q 518 307 518 246 l 518 575 l 647 575 z "},"π":{"ha":531,"x_min":11,"x_max":517,"o":"m 517 488 l 517 374 l 443 374 l 443 0 l 326 0 l 326 374 l 204 374 l 204 0 l 88 0 l 88 374 l 11 374 l 11 488 l 517 488 z "},"¹":{"ha":376,"x_min":63,"x_max":267,"o":"m 267 918 l 267 400 l 146 400 l 146 801 l 63 801 l 63 918 l 267 918 z "},"²":{"ha":561,"x_min":94,"x_max":483,"o":"m 483 533 l 483 425 l 106 425 l 106 496 q 265 628 203 565 q 328 756 328 692 q 242 856 328 856 q 180 839 210 856 q 135 799 150 822 l 94 883 q 169 942 118 919 q 276 965 221 965 q 413 917 361 963 q 464 790 464 871 q 419 660 464 722 q 296 533 374 599 l 483 533 z "},"³":{"ha":542,"x_min":76,"x_max":426,"o":"m 289 761 q 385 714 344 754 q 426 610 426 674 q 372 474 426 528 q 229 421 318 421 q 76 486 139 421 l 114 561 q 213 507 160 507 q 282 533 256 507 q 308 606 308 558 q 282 676 308 653 q 214 700 256 700 q 146 686 176 700 l 139 699 l 247 861 l 96 861 l 96 956 l 403 956 l 289 761 z "},"⁴":{"ha":538,"x_min":50,"x_max":465,"o":"m 465 550 l 404 550 l 404 413 l 292 413 l 292 550 l 51 550 l 50 585 l 325 940 l 404 940 l 404 625 l 465 625 l 465 550 m 292 625 l 292 771 l 181 625 l 292 625 z "},"⁄":{"ha":786,"x_min":17,"x_max":704,"o":"m 139 0 l 17 0 l 582 951 l 704 951 l 139 0 z "},"½":{"ha":1217,"x_min":68,"x_max":1122,"o":"m 272 922 l 272 404 l 151 404 l 151 806 l 68 806 l 68 922 l 272 922 m 1122 100 l 1122 -8 l 744 -8 l 744 63 q 904 195 842 132 q 967 322 967 258 q 881 422 967 422 q 819 406 849 422 q 774 365 789 389 l 733 450 q 808 509 757 486 q 915 532 860 532 q 1051 483 1000 529 q 1103 357 1103 438 q 1058 227 1103 289 q 935 100 1013 165 l 1122 100 m 311 0 l 189 0 l 754 951 l 876 951 l 311 0 z "},"¼":{"ha":1126,"x_min":68,"x_max":1079,"o":"m 272 918 l 272 400 l 151 400 l 151 801 l 68 801 l 68 918 l 272 918 m 321 0 l 199 0 l 764 951 l 886 951 l 321 0 m 1079 138 l 1018 138 l 1018 0 l 906 0 l 906 138 l 665 138 l 664 172 l 939 528 l 1018 528 l 1018 213 l 1079 213 l 1079 138 m 906 213 l 906 358 l 794 213 l 906 213 z "},"¾":{"ha":1144,"x_min":69,"x_max":1071,"o":"m 282 761 q 378 714 338 754 q 419 610 419 674 q 365 474 419 528 q 222 421 311 421 q 69 486 132 421 l 107 561 q 206 507 153 507 q 275 533 249 507 q 301 606 301 558 q 275 676 301 653 q 207 700 249 700 q 139 686 169 700 l 132 699 l 240 861 l 89 861 l 89 956 l 396 956 l 282 761 m 351 0 l 229 0 l 794 951 l 917 951 l 351 0 m 1071 139 l 1010 139 l 1010 1 l 897 1 l 897 139 l 657 139 l 656 174 l 931 529 l 1010 529 l 1010 214 l 1071 214 l 1071 139 m 897 214 l 897 360 l 786 214 l 897 214 z "},"*":{"ha":465,"x_min":42,"x_max":428,"o":"m 83 667 l 42 739 q 107 775 51 744 l 153 800 l 43 867 l 81 933 q 193 868 156 889 l 193 1000 l 276 1000 l 275 868 l 389 932 l 428 865 l 313 799 l 425 735 l 383 663 l 272 729 l 271 603 l 193 603 l 193 729 l 83 667 z "},"\\":{"ha":542,"x_min":0,"x_max":524,"o":"m 524 -26 l 392 -26 l 0 1036 l 132 1036 l 524 -26 z "},"·":{"ha":238,"x_min":47,"x_max":193,"o":"m 47 397 q 69 450 47 428 q 121 472 92 472 q 170 450 147 472 q 193 397 193 428 q 171 344 193 365 q 121 324 149 324 q 69 344 92 324 q 47 397 47 365 z "},"•":{"ha":674,"x_min":160,"x_max":517,"o":"m 160 422 q 183 513 160 471 q 248 578 207 554 q 336 603 289 603 q 426 578 385 603 q 492 513 468 554 q 517 422 517 471 q 464 296 517 347 q 336 244 411 244 q 211 296 263 244 q 160 422 160 347 z "},":":{"ha":247,"x_min":47,"x_max":192,"o":"m 47 451 q 69 504 47 482 q 121 526 92 526 q 169 504 147 526 q 192 451 192 482 q 169 399 192 419 q 121 378 147 378 q 69 399 92 378 q 47 451 47 419 m 47 74 q 69 126 47 104 q 121 149 92 149 q 169 126 147 149 q 192 74 192 104 q 169 21 192 42 q 121 0 147 0 q 69 21 92 0 q 47 74 47 42 z "},",":{"ha":282,"x_min":4,"x_max":231,"o":"m 150 -72 l 110 -169 l 4 -169 l 40 -72 q 113 122 103 96 l 231 122 l 150 -72 z "},"…":{"ha":729,"x_min":47,"x_max":688,"o":"m 47 74 q 69 126 47 104 q 121 149 92 149 q 170 126 147 149 q 193 74 193 104 q 171 21 193 42 q 121 0 149 0 q 69 21 92 0 q 47 74 47 42 m 294 74 q 317 126 294 104 q 368 149 339 149 q 417 126 394 149 q 440 74 440 104 q 418 21 440 42 q 368 0 396 0 q 317 21 339 0 q 294 74 294 42 m 542 74 q 564 126 542 104 q 615 149 586 149 q 665 126 642 149 q 688 74 688 104 q 665 21 688 42 q 615 0 643 0 q 564 21 586 0 q 542 74 542 42 z "},"!":{"ha":281,"x_min":58,"x_max":222,"o":"m 196 1056 l 196 260 l 79 260 l 79 1056 l 196 1056 m 142 6 q 82 26 106 6 q 58 81 58 47 q 83 134 58 113 q 142 156 107 156 q 199 134 176 156 q 222 81 222 113 q 200 26 222 47 q 142 6 178 6 z "},"¡":{"ha":282,"x_min":58,"x_max":222,"o":"m 142 754 q 200 733 178 754 q 222 679 222 713 q 199 626 222 647 q 142 604 176 604 q 83 626 107 604 q 58 679 58 647 q 82 733 58 713 q 142 754 106 754 m 79 500 l 196 500 l 196 -296 l 79 -296 l 79 500 z "},"#":{"ha":803,"x_min":35,"x_max":728,"o":"m 326 636 l 468 636 l 485 771 q 500 904 496 860 l 619 904 l 603 771 q 585 636 592 682 l 728 636 q 718 522 722 557 l 572 522 l 556 379 l 699 379 l 694 339 q 686 264 689 301 l 542 264 l 511 0 l 393 0 l 424 264 l 283 264 l 271 161 q 253 0 264 108 l 133 0 l 164 264 l 35 264 q 49 379 46 343 l 179 379 l 196 522 l 67 522 q 72 566 71 547 q 75 597 74 585 l 79 636 l 208 636 l 242 904 l 360 904 l 326 636 m 314 522 q 296 379 301 421 l 438 379 l 454 522 l 314 522 z "},".":{"ha":235,"x_min":47,"x_max":193,"o":"m 47 74 q 69 126 47 104 q 121 149 92 149 q 170 126 147 149 q 193 74 193 104 q 171 21 193 42 q 121 0 149 0 q 69 21 92 0 q 47 74 47 42 z "},"?":{"ha":639,"x_min":25,"x_max":600,"o":"m 232 344 q 249 449 232 407 q 288 514 265 490 q 357 576 311 538 q 436 660 410 621 q 463 756 463 699 q 417 866 463 822 q 310 910 371 910 q 199 869 244 910 q 132 765 154 829 l 25 815 q 78 912 40 863 q 178 996 115 961 q 324 1031 240 1031 q 522 960 444 1029 q 600 767 600 890 q 583 659 600 704 q 538 583 565 614 q 467 513 511 551 q 407 456 426 476 q 374 401 388 436 q 361 315 361 367 l 361 257 l 232 257 l 232 344 m 299 6 q 239 26 263 6 q 215 81 215 47 q 240 134 215 113 q 299 156 264 156 q 356 134 333 156 q 379 81 379 113 q 357 26 379 47 q 299 6 335 6 z "},"¿":{"ha":607,"x_min":40,"x_max":615,"o":"m 342 743 q 401 722 378 743 q 425 668 425 701 q 401 615 425 636 q 342 593 376 593 q 284 615 307 593 q 261 668 261 636 q 283 722 261 701 q 342 743 306 743 m 408 404 q 392 300 408 342 q 352 235 375 258 q 283 172 329 211 q 204 89 231 128 q 178 -7 178 50 q 224 -117 178 -74 q 331 -161 269 -161 q 441 -121 396 -161 q 508 -17 486 -81 l 615 -67 q 563 -163 600 -114 q 463 -247 525 -212 q 317 -282 400 -282 q 118 -211 196 -281 q 40 -18 40 -142 q 58 90 40 44 q 102 166 75 135 q 174 236 129 197 q 233 292 214 272 q 266 347 253 313 q 279 433 279 382 l 279 492 l 408 492 l 408 404 z "},"\"":{"ha":471,"x_min":89,"x_max":393,"o":"m 200 664 l 89 664 l 89 1013 l 206 1013 l 200 664 m 388 664 l 276 664 l 276 1013 l 393 1013 l 388 664 z "},"'":{"ha":229,"x_min":60,"x_max":178,"o":"m 172 664 l 60 664 l 60 1013 l 178 1013 l 172 664 z "},";":{"ha":283,"x_min":-17,"x_max":235,"o":"m 90 425 q 113 478 90 456 q 164 500 136 500 q 213 478 190 500 q 235 425 235 456 q 213 372 235 393 q 164 351 192 351 q 113 372 135 351 q 90 425 90 393 m 89 -169 l -17 -169 q 76 81 32 -42 l 92 122 l 210 122 l 89 -169 z "},"/":{"ha":535,"x_min":24,"x_max":533,"o":"m 142 -26 l 24 -26 q 285 682 199 446 l 415 1036 l 533 1036 l 142 -26 z "}}}
